<ttFont>
    <TTGlyph name=".notdef" xMin="102" yMin="0" xMax="922" yMax="1462">
      <contour>
        <pt x="102" y="0" on="1"/>
        <pt x="102" y="1462" on="1"/>
        <pt x="922" y="1462" on="1"/>
        <pt x="922" y="0" on="1"/>
      </contour>
      <contour>
        <pt x="201" y="98" on="1"/>
        <pt x="823" y="98" on="1"/>
        <pt x="823" y="1364" on="1"/>
        <pt x="201" y="1364" on="1"/>
      </contour>
    </TTGlyph>
    <TTGlyph name="A" xMin="-100" yMin="0" xMax="1456" yMax="1462">
      <contour>
        <pt x="438" y="481" on="1"/>
        <pt x="338" y="297" on="1"/>
        <pt x="318" y="260" on="0"/>
        <pt x="299" y="204" on="0"/>
        <pt x="299" y="182" on="1"/>
        <pt x="299" y="144" on="0"/>
        <pt x="355" y="109" on="0"/>
        <pt x="414" y="109" on="1"/>
        <pt x="455" y="109" on="1"/>
        <pt x="432" y="0" on="1"/>
        <pt x="-100" y="0" on="1"/>
        <pt x="-78" y="109" on="1"/>
        <pt x="-35" y="109" on="1"/>
        <pt x="-7" y="109" on="0"/>
        <pt x="36" y="122" on="0"/>
        <pt x="76" y="158" on="0"/>
        <pt x="119" y="220" on="0"/>
        <pt x="147" y="268" on="1"/>
        <pt x="842" y="1462" on="1"/>
        <pt x="1122" y="1462" on="1"/>
        <pt x="1294" y="256" on="1"/>
        <pt x="1299" y="224" on="0"/>
        <pt x="1316" y="170" on="0"/>
        <pt x="1344" y="131" on="0"/>
        <pt x="1387" y="109" on="0"/>
        <pt x="1419" y="109" on="1"/>
        <pt x="1456" y="109" on="1"/>
        <pt x="1434" y="0" on="1"/>
        <pt x="758" y="0" on="1"/>
        <pt x="780" y="109" on="1"/>
        <pt x="827" y="109" on="1"/>
        <pt x="893" y="109" on="0"/>
        <pt x="971" y="150" on="0"/>
        <pt x="971" y="195" on="1"/>
        <pt x="971" y="212" on="0"/>
        <pt x="969" y="245" on="0"/>
        <pt x="967" y="260" on="1"/>
        <pt x="936" y="481" on="1"/>
      </contour>
      <contour>
        <pt x="885" y="950" on="1"/>
        <pt x="880" y="995" on="0"/>
        <pt x="871" y="1074" on="0"/>
        <pt x="864" y="1148" on="0"/>
        <pt x="859" y="1218" on="0"/>
        <pt x="858" y="1255" on="1"/>
        <pt x="843" y="1218" on="0"/>
        <pt x="813" y="1155" on="0"/>
        <pt x="779" y="1090" on="0"/>
        <pt x="738" y="1017" on="0"/>
        <pt x="711" y="969" on="1"/>
        <pt x="508" y="606" on="1"/>
        <pt x="922" y="606" on="1"/>
      </contour>
    </TTGlyph>
    <TTGlyph name="AE" xMin="-90" yMin="0" xMax="2083" yMax="1462">
      <contour>
        <pt x="2083" y="1462" on="1"/>
        <pt x="2011" y="1081" on="1"/>
        <pt x="1866" y="1081" on="1"/>
        <pt x="1867" y="1088" on="0"/>
        <pt x="1870" y="1124" on="0"/>
        <pt x="1873" y="1163" on="0"/>
        <pt x="1876" y="1196" on="0"/>
        <pt x="1876" y="1200" on="1"/>
        <pt x="1876" y="1228" on="0"/>
        <pt x="1860" y="1278" on="0"/>
        <pt x="1826" y="1316" on="0"/>
        <pt x="1771" y="1337" on="0"/>
        <pt x="1731" y="1337" on="1"/>
        <pt x="1458" y="1337" on="1"/>
        <pt x="1350" y="825" on="1"/>
        <pt x="1815" y="825" on="1"/>
        <pt x="1788" y="702" on="1"/>
        <pt x="1323" y="702" on="1"/>
        <pt x="1200" y="125" on="1"/>
        <pt x="1524" y="125" on="1"/>
        <pt x="1572" y="125" on="0"/>
        <pt x="1647" y="152" on="0"/>
        <pt x="1704" y="198" on="0"/>
        <pt x="1743" y="259" on="0"/>
        <pt x="1755" y="293" on="1"/>
        <pt x="1788" y="381" on="1"/>
        <pt x="1933" y="381" on="1"/>
        <pt x="1839" y="0" on="1"/>
        <pt x="664" y="0" on="1"/>
        <pt x="686" y="109" on="1"/>
        <pt x="713" y="109" on="1"/>
        <pt x="745" y="109" on="0"/>
        <pt x="806" y="117" on="0"/>
        <pt x="856" y="143" on="0"/>
        <pt x="893" y="191" on="0"/>
        <pt x="901" y="231" on="1"/>
        <pt x="950" y="469" on="1"/>
        <pt x="483" y="469" on="1"/>
        <pt x="362" y="297" on="1"/>
        <pt x="332" y="254" on="0"/>
        <pt x="305" y="187" on="0"/>
        <pt x="305" y="170" on="1"/>
        <pt x="305" y="138" on="0"/>
        <pt x="361" y="109" on="0"/>
        <pt x="414" y="109" on="1"/>
        <pt x="449" y="109" on="1"/>
        <pt x="426" y="0" on="1"/>
        <pt x="-90" y="0" on="1"/>
        <pt x="-68" y="109" on="1"/>
        <pt x="-43" y="109" on="1"/>
        <pt x="-16" y="109" on="0"/>
        <pt x="34" y="128" on="0"/>
        <pt x="85" y="167" on="0"/>
        <pt x="139" y="227" on="0"/>
        <pt x="170" y="268" on="1"/>
        <pt x="975" y="1343" on="1"/>
        <pt x="842" y="1354" on="1"/>
        <pt x="864" y="1462" on="1"/>
      </contour>
      <contour>
        <pt x="1114" y="1337" on="1"/>
        <pt x="575" y="592" on="1"/>
        <pt x="977" y="592" on="1"/>
        <pt x="1135" y="1337" on="1"/>
      </contour>
    </TTGlyph>
    <TTGlyph name="AEacute" xMin="-90" yMin="0" xMax="2083" yMax="1907">
      <component glyphName="AE" x="0" y="0" flags="0x204"/>
      <component glyphName="acute" x="842" y="338" flags="0x4"/>
    </TTGlyph>
    <TTGlyph name="Aacute" xMin="-100" yMin="0" xMax="1456" yMax="1907">
      <component glyphName="A" x="0" y="0" flags="0x204"/>
      <component glyphName="acute" x="360" y="338" flags="0x4"/>
    </TTGlyph>
    <TTGlyph name="Abreve" xMin="-100" yMin="0" xMax="1456" yMax="1901">
      <component glyphName="A" x="0" y="0" flags="0x204"/>
      <component glyphName="breve" x="418" y="338" flags="0x4"/>
    </TTGlyph>
    <TTGlyph name="Acircumflex" xMin="-100" yMin="0" xMax="1456" yMax="1907">
      <component glyphName="A" x="0" y="0" flags="0x204"/>
      <component glyphName="circumflex" x="289" y="338" flags="0x4"/>
    </TTGlyph>
    <TTGlyph name="Adieresis" xMin="-100" yMin="0" xMax="1456" yMax="1868">
      <component glyphName="A" x="0" y="0" flags="0x204"/>
      <component glyphName="dieresis" x="297" y="338" flags="0x4"/>
    </TTGlyph>
    <TTGlyph name="Agrave" xMin="-100" yMin="0" xMax="1456" yMax="1907">
      <component glyphName="A" x="0" y="0" flags="0x204"/>
      <component glyphName="grave" x="156" y="338" flags="0x4"/>
    </TTGlyph>
    <TTGlyph name="Alpha" xMin="-100" yMin="0" xMax="1456" yMax="1462">
      <component glyphName="A" x="0" y="0" flags="0x204"/>
    </TTGlyph>
    <TTGlyph name="Alphatonos" xMin="-65" yMin="0" xMax="1491" yMax="1462">
      <component glyphName="A" x="35" y="0" flags="0x4"/>
      <component glyphName="tonos" x="-267" y="-168" flags="0x4"/>
    </TTGlyph>
    <TTGlyph name="Amacron" xMin="-100" yMin="0" xMax="1456" yMax="1741">
      <component glyphName="A" x="0" y="0" flags="0x204"/>
      <component glyphName="uni02C9" x="324" y="338" flags="0x4"/>
    </TTGlyph>
    <TTGlyph name="Aogonek" xMin="-100" yMin="-492" xMax="1456" yMax="1462">
      <component glyphName="A" x="0" y="0" flags="0x204"/>
      <component glyphName="ogonek" x="494" y="0" flags="0x4"/>
    </TTGlyph>
    <TTGlyph name="Aring" xMin="-100" yMin="0" xMax="1456" yMax="1796">
      <component glyphName="A" x="0" y="0" flags="0x204"/>
      <component glyphName="ring" x="467" y="141" flags="0x4"/>
    </TTGlyph>
    <TTGlyph name="Aringacute" xMin="-100" yMin="0" xMax="1487" yMax="2028">
      <contour>
        <pt x="1188" y="1425" on="1"/>
        <pt x="1188" y="1365" on="0"/>
        <pt x="1143" y="1278" on="0"/>
        <pt x="1106" y="1249" on="1"/>
        <pt x="1294" y="256" on="1"/>
        <pt x="1299" y="224" on="0"/>
        <pt x="1316" y="170" on="0"/>
        <pt x="1344" y="131" on="0"/>
        <pt x="1387" y="109" on="0"/>
        <pt x="1419" y="109" on="1"/>
        <pt x="1456" y="109" on="1"/>
        <pt x="1434" y="0" on="1"/>
        <pt x="758" y="0" on="1"/>
        <pt x="780" y="109" on="1"/>
        <pt x="827" y="109" on="1"/>
        <pt x="893" y="109" on="0"/>
        <pt x="971" y="150" on="0"/>
        <pt x="971" y="195" on="1"/>
        <pt x="971" y="212" on="0"/>
        <pt x="969" y="245" on="0"/>
        <pt x="967" y="260" on="1"/>
        <pt x="940" y="432" on="1"/>
        <pt x="420" y="432" on="1"/>
        <pt x="338" y="297" on="1"/>
        <pt x="316" y="262" on="0"/>
        <pt x="299" y="204" on="0"/>
        <pt x="299" y="182" on="1"/>
        <pt x="299" y="144" on="0"/>
        <pt x="355" y="109" on="0"/>
        <pt x="414" y="109" on="1"/>
        <pt x="455" y="109" on="1"/>
        <pt x="432" y="0" on="1"/>
        <pt x="-100" y="0" on="1"/>
        <pt x="-78" y="109" on="1"/>
        <pt x="-35" y="109" on="1"/>
        <pt x="-7" y="109" on="0"/>
        <pt x="35" y="123" on="0"/>
        <pt x="74" y="159" on="0"/>
        <pt x="117" y="220" on="0"/>
        <pt x="147" y="268" on="1"/>
        <pt x="774" y="1253" on="1"/>
        <pt x="737" y="1281" on="0"/>
        <pt x="696" y="1367" on="0"/>
        <pt x="696" y="1425" on="1"/>
        <pt x="696" y="1480" on="0"/>
        <pt x="734" y="1563" on="0"/>
        <pt x="801" y="1620" on="0"/>
        <pt x="891" y="1649" on="0"/>
        <pt x="942" y="1649" on="1"/>
        <pt x="993" y="1649" on="0"/>
        <pt x="1083" y="1620" on="0"/>
        <pt x="1150" y="1563" on="0"/>
        <pt x="1188" y="1480" on="0"/>
      </contour>
      <contour>
        <pt x="883" y="827" on="1"/>
        <pt x="869" y="917" on="0"/>
        <pt x="850" y="1079" on="0"/>
        <pt x="848" y="1153" on="1"/>
        <pt x="832" y="1118" on="0"/>
        <pt x="798" y="1052" on="0"/>
        <pt x="758" y="982" on="0"/>
        <pt x="711" y="903" on="0"/>
        <pt x="682" y="856" on="1"/>
        <pt x="498" y="557" on="1"/>
        <pt x="926" y="557" on="1"/>
      </contour>
      <contour>
        <pt x="922" y="1726" on="1"/>
        <pt x="950" y="1755" on="0"/>
        <pt x="1015" y="1831" on="0"/>
        <pt x="1081" y="1912" on="0"/>
        <pt x="1141" y="1993" on="0"/>
        <pt x="1165" y="2028" on="1"/>
        <pt x="1487" y="2028" on="1"/>
        <pt x="1481" y="2007" on="1"/>
        <pt x="1456" y="1980" on="0"/>
        <pt x="1358" y="1898" on="0"/>
        <pt x="1238" y="1810" on="0"/>
        <pt x="1109" y="1728" on="0"/>
        <pt x="1055" y="1700" on="1"/>
        <pt x="915" y="1700" on="1"/>
      </contour>
      <contour>
        <pt x="1063" y="1425" on="1"/>
        <pt x="1063" y="1455" on="0"/>
        <pt x="1044" y="1497" on="0"/>
        <pt x="1011" y="1524" on="0"/>
        <pt x="967" y="1536" on="0"/>
        <pt x="942" y="1536" on="1"/>
        <pt x="918" y="1536" on="0"/>
        <pt x="874" y="1524" on="0"/>
        <pt x="841" y="1497" on="0"/>
        <pt x="821" y="1455" on="0"/>
        <pt x="821" y="1425" on="1"/>
        <pt x="821" y="1369" on="0"/>
        <pt x="885" y="1316" on="0"/>
        <pt x="932" y="1315" on="1"/>
        <pt x="952" y="1315" on="1"/>
        <pt x="975" y="1316" on="0"/>
        <pt x="1016" y="1329" on="0"/>
        <pt x="1046" y="1356" on="0"/>
        <pt x="1063" y="1397" on="0"/>
      </contour>
    </TTGlyph>
    <TTGlyph name="Atilde" xMin="-100" yMin="0" xMax="1456" yMax="1903">
      <component glyphName="A" x="0" y="0" flags="0x204"/>
      <component glyphName="tilde" x="283" y="338" flags="0x4"/>
    </TTGlyph>
    <TTGlyph name="B" xMin="-47" yMin="0" xMax="1374" yMax="1462">
      <contour>
        <pt x="-25" y="109" on="1"/>
        <pt x="2" y="109" on="1"/>
        <pt x="34" y="109" on="0"/>
        <pt x="95" y="117" on="0"/>
        <pt x="145" y="143" on="0"/>
        <pt x="182" y="191" on="0"/>
        <pt x="190" y="231" on="1"/>
        <pt x="399" y="1217" on="1"/>
        <pt x="404" y="1237" on="0"/>
        <pt x="412" y="1276" on="0"/>
        <pt x="412" y="1284" on="1"/>
        <pt x="412" y="1306" on="0"/>
        <pt x="390" y="1334" on="0"/>
        <pt x="351" y="1349" on="0"/>
        <pt x="296" y="1354" on="0"/>
        <pt x="264" y="1354" on="1"/>
        <pt x="238" y="1354" on="1"/>
        <pt x="260" y="1462" on="1"/>
        <pt x="895" y="1462" on="1"/>
        <pt x="1133" y="1462" on="0"/>
        <pt x="1374" y="1307" on="0"/>
        <pt x="1374" y="1155" on="1"/>
        <pt x="1374" y="1071" on="0"/>
        <pt x="1323" y="943" on="0"/>
        <pt x="1233" y="850" on="0"/>
        <pt x="1111" y="790" on="0"/>
        <pt x="1040" y="774" on="1"/>
        <pt x="1038" y="766" on="1"/>
        <pt x="1093" y="756" on="0"/>
        <pt x="1185" y="708" on="0"/>
        <pt x="1251" y="633" on="0"/>
        <pt x="1288" y="531" on="0"/>
        <pt x="1288" y="467" on="1"/>
        <pt x="1288" y="355" on="0"/>
        <pt x="1212" y="181" on="0"/>
        <pt x="1064" y="62" on="0"/>
        <pt x="843" y="0" on="0"/>
        <pt x="698" y="0" on="1"/>
        <pt x="-47" y="0" on="1"/>
      </contour>
      <contour>
        <pt x="489" y="125" on="1"/>
        <pt x="631" y="125" on="1"/>
        <pt x="718" y="125" on="0"/>
        <pt x="839" y="171" on="0"/>
        <pt x="915" y="261" on="0"/>
        <pt x="950" y="394" on="0"/>
        <pt x="950" y="481" on="1"/>
        <pt x="950" y="593" on="0"/>
        <pt x="848" y="702" on="0"/>
        <pt x="741" y="702" on="1"/>
        <pt x="612" y="702" on="1"/>
      </contour>
      <contour>
        <pt x="639" y="829" on="1"/>
        <pt x="754" y="829" on="1"/>
        <pt x="899" y="829" on="0"/>
        <pt x="1028" y="980" on="0"/>
        <pt x="1028" y="1120" on="1"/>
        <pt x="1028" y="1229" on="0"/>
        <pt x="930" y="1337" on="0"/>
        <pt x="836" y="1337" on="1"/>
        <pt x="745" y="1337" on="1"/>
      </contour>
    </TTGlyph>
    <TTGlyph name="Beta" xMin="-47" yMin="0" xMax="1374" yMax="1462">
      <component glyphName="B" x="0" y="0" flags="0x204"/>
    </TTGlyph>
    <TTGlyph name="C" xMin="129" yMin="-20" xMax="1440" yMax="1491">
      <contour>
        <pt x="823" y="152" on="1"/>
        <pt x="894" y="152" on="0"/>
        <pt x="1008" y="184" on="0"/>
        <pt x="1098" y="237" on="0"/>
        <pt x="1166" y="303" on="0"/>
        <pt x="1192" y="338" on="1"/>
        <pt x="1204" y="329" on="0"/>
        <pt x="1227" y="291" on="0"/>
        <pt x="1227" y="268" on="1"/>
        <pt x="1227" y="217" on="0"/>
        <pt x="1165" y="114" on="0"/>
        <pt x="1044" y="31" on="0"/>
        <pt x="866" y="-20" on="0"/>
        <pt x="750" y="-20" on="1"/>
        <pt x="603" y="-20" on="0"/>
        <pt x="372" y="53" on="0"/>
        <pt x="213" y="194" on="0"/>
        <pt x="129" y="399" on="0"/>
        <pt x="129" y="530" on="1"/>
        <pt x="129" y="653" on="0"/>
        <pt x="187" y="891" on="0"/>
        <pt x="297" y="1105" on="0"/>
        <pt x="456" y="1285" on="0"/>
        <pt x="657" y="1417" on="0"/>
        <pt x="897" y="1491" on="0"/>
        <pt x="1034" y="1491" on="1"/>
        <pt x="1136" y="1491" on="0"/>
        <pt x="1289" y="1456" on="0"/>
        <pt x="1390" y="1393" on="0"/>
        <pt x="1440" y="1302" on="0"/>
        <pt x="1440" y="1247" on="1"/>
        <pt x="1440" y="1202" on="0"/>
        <pt x="1396" y="1134" on="0"/>
        <pt x="1319" y="1087" on="0"/>
        <pt x="1213" y="1063" on="0"/>
        <pt x="1151" y="1063" on="1"/>
        <pt x="1151" y="1106" on="0"/>
        <pt x="1139" y="1210" on="0"/>
        <pt x="1102" y="1300" on="0"/>
        <pt x="1034" y="1360" on="0"/>
        <pt x="977" y="1360" on="1"/>
        <pt x="896" y="1360" on="0"/>
        <pt x="759" y="1286" on="0"/>
        <pt x="646" y="1159" on="0"/>
        <pt x="559" y="991" on="0"/>
        <pt x="500" y="804" on="0"/>
        <pt x="469" y="609" on="0"/>
        <pt x="469" y="518" on="1"/>
        <pt x="469" y="343" on="0"/>
        <pt x="647" y="152" on="0"/>
      </contour>
    </TTGlyph>
    <TTGlyph name="Cacute" xMin="129" yMin="-20" xMax="1493" yMax="1907">
      <component glyphName="C" x="0" y="0" flags="0x204"/>
      <component glyphName="acute" x="424" y="338" flags="0x4"/>
    </TTGlyph>
    <TTGlyph name="Ccaron" xMin="129" yMin="-20" xMax="1464" yMax="1907">
      <component glyphName="C" x="0" y="0" flags="0x204"/>
      <component glyphName="caron" x="309" y="338" flags="0x4"/>
    </TTGlyph>
    <TTGlyph name="Ccedilla" xMin="129" yMin="-492" xMax="1440" yMax="1491">
      <component glyphName="C" x="0" y="0" flags="0x204"/>
      <component glyphName="cedilla" x="297" y="0" flags="0x4"/>
    </TTGlyph>
    <TTGlyph name="Ccircumflex" xMin="129" yMin="-20" xMax="1440" yMax="1907">
      <component glyphName="C" x="0" y="0" flags="0x204"/>
      <component glyphName="circumflex" x="319" y="338" flags="0x4"/>
    </TTGlyph>
    <TTGlyph name="Cdotaccent" xMin="129" yMin="-20" xMax="1440" yMax="1915">
      <component glyphName="C" x="0" y="0" flags="0x204"/>
      <component glyphName="dotaccent" x="571" y="338" flags="0x4"/>
    </TTGlyph>
    <TTGlyph name="Chi" xMin="-86" yMin="0" xMax="1632" yMax="1462">
      <component glyphName="X" x="0" y="0" flags="0x204"/>
    </TTGlyph>
    <TTGlyph name="D" xMin="-49" yMin="0" xMax="1536" yMax="1462">
      <contour>
        <pt x="-27" y="109" on="1"/>
        <pt x="2" y="109" on="1"/>
        <pt x="34" y="109" on="0"/>
        <pt x="95" y="117" on="0"/>
        <pt x="145" y="143" on="0"/>
        <pt x="182" y="191" on="0"/>
        <pt x="190" y="231" on="1"/>
        <pt x="403" y="1237" on="1"/>
        <pt x="407" y="1248" on="0"/>
        <pt x="412" y="1276" on="0"/>
        <pt x="412" y="1284" on="1"/>
        <pt x="412" y="1306" on="0"/>
        <pt x="390" y="1334" on="0"/>
        <pt x="351" y="1349" on="0"/>
        <pt x="296" y="1354" on="0"/>
        <pt x="264" y="1354" on="1"/>
        <pt x="238" y="1354" on="1"/>
        <pt x="260" y="1462" on="1"/>
        <pt x="915" y="1462" on="1"/>
        <pt x="1062" y="1462" on="0"/>
        <pt x="1293" y="1390" on="0"/>
        <pt x="1452" y="1249" on="0"/>
        <pt x="1536" y="1041" on="0"/>
        <pt x="1536" y="905" on="1"/>
        <pt x="1536" y="783" on="0"/>
        <pt x="1485" y="554" on="0"/>
        <pt x="1386" y="353" on="0"/>
        <pt x="1240" y="186" on="0"/>
        <pt x="1048" y="66" on="0"/>
        <pt x="811" y="0" on="0"/>
        <pt x="672" y="0" on="1"/>
        <pt x="-49" y="0" on="1"/>
      </contour>
      <contour>
        <pt x="584" y="127" on="1"/>
        <pt x="728" y="127" on="0"/>
        <pt x="954" y="244" on="0"/>
        <pt x="1110" y="455" on="0"/>
        <pt x="1192" y="747" on="0"/>
        <pt x="1192" y="922" on="1"/>
        <pt x="1192" y="1029" on="0"/>
        <pt x="1142" y="1186" on="0"/>
        <pt x="1049" y="1288" on="0"/>
        <pt x="916" y="1337" on="0"/>
        <pt x="834" y="1337" on="1"/>
        <pt x="748" y="1337" on="1"/>
        <pt x="492" y="127" on="1"/>
      </contour>
    </TTGlyph>
    <TTGlyph name="Dcaron" xMin="-49" yMin="0" xMax="1536" yMax="1907">
      <component glyphName="D" x="0" y="0" flags="0x204"/>
      <component glyphName="caron" x="186" y="338" flags="0x4"/>
    </TTGlyph>
    <TTGlyph name="Dcroat" xMin="-49" yMin="0" xMax="1536" yMax="1462">
      <component glyphName="Eth" x="0" y="0" flags="0x204"/>
    </TTGlyph>
    <TTGlyph name="Delta" xMin="-8" yMin="0" xMax="1253" yMax="1462">
      <component glyphName="uni2206" x="0" y="0" flags="0x204"/>
    </TTGlyph>
    <TTGlyph name="E" xMin="-47" yMin="0" xMax="1372" yMax="1462">
      <contour>
        <pt x="-25" y="109" on="1"/>
        <pt x="2" y="109" on="1"/>
        <pt x="34" y="109" on="0"/>
        <pt x="95" y="117" on="0"/>
        <pt x="145" y="143" on="0"/>
        <pt x="182" y="191" on="0"/>
        <pt x="190" y="231" on="1"/>
        <pt x="403" y="1237" on="1"/>
        <pt x="407" y="1248" on="0"/>
        <pt x="412" y="1276" on="0"/>
        <pt x="412" y="1284" on="1"/>
        <pt x="412" y="1306" on="0"/>
        <pt x="390" y="1334" on="0"/>
        <pt x="351" y="1349" on="0"/>
        <pt x="296" y="1354" on="0"/>
        <pt x="264" y="1354" on="1"/>
        <pt x="238" y="1354" on="1"/>
        <pt x="260" y="1462" on="1"/>
        <pt x="1372" y="1462" on="1"/>
        <pt x="1300" y="1081" on="1"/>
        <pt x="1155" y="1081" on="1"/>
        <pt x="1156" y="1088" on="0"/>
        <pt x="1159" y="1124" on="0"/>
        <pt x="1162" y="1163" on="0"/>
        <pt x="1165" y="1196" on="0"/>
        <pt x="1165" y="1200" on="1"/>
        <pt x="1165" y="1228" on="0"/>
        <pt x="1149" y="1278" on="0"/>
        <pt x="1115" y="1316" on="0"/>
        <pt x="1060" y="1337" on="0"/>
        <pt x="1020" y="1337" on="1"/>
        <pt x="748" y="1337" on="1"/>
        <pt x="639" y="825" on="1"/>
        <pt x="1104" y="825" on="1"/>
        <pt x="1077" y="702" on="1"/>
        <pt x="612" y="702" on="1"/>
        <pt x="489" y="125" on="1"/>
        <pt x="813" y="125" on="1"/>
        <pt x="861" y="125" on="0"/>
        <pt x="937" y="152" on="0"/>
        <pt x="993" y="198" on="0"/>
        <pt x="1032" y="259" on="0"/>
        <pt x="1044" y="293" on="1"/>
        <pt x="1077" y="381" on="1"/>
        <pt x="1223" y="381" on="1"/>
        <pt x="1128" y="0" on="1"/>
        <pt x="-47" y="0" on="1"/>
      </contour>
    </TTGlyph>
    <TTGlyph name="Eacute" xMin="-47" yMin="0" xMax="1372" yMax="1907">
      <component glyphName="E" x="0" y="0" flags="0x204"/>
      <component glyphName="acute" x="244" y="338" flags="0x4"/>
    </TTGlyph>
    <TTGlyph name="Ebreve" xMin="-47" yMin="0" xMax="1372" yMax="1901">
      <component glyphName="E" x="0" y="0" flags="0x204"/>
      <component glyphName="breve" x="289" y="338" flags="0x4"/>
    </TTGlyph>
    <TTGlyph name="Ecaron" xMin="-47" yMin="0" xMax="1372" yMax="1907">
      <component glyphName="E" x="0" y="0" flags="0x204"/>
      <component glyphName="caron" x="139" y="338" flags="0x4"/>
    </TTGlyph>
    <TTGlyph name="Ecircumflex" xMin="-47" yMin="0" xMax="1372" yMax="1907">
      <component glyphName="E" x="0" y="0" flags="0x204"/>
      <component glyphName="circumflex" x="227" y="338" flags="0x4"/>
    </TTGlyph>
    <TTGlyph name="Edieresis" xMin="-47" yMin="0" xMax="1372" yMax="1868">
      <component glyphName="E" x="0" y="0" flags="0x204"/>
      <component glyphName="dieresis" x="195" y="338" flags="0x4"/>
    </TTGlyph>
    <TTGlyph name="Edotaccent" xMin="-47" yMin="0" xMax="1372" yMax="1886">
      <component glyphName="E" x="0" y="0" flags="0x204"/>
      <component glyphName="dotaccent" x="383" y="309" flags="0x4"/>
    </TTGlyph>
    <TTGlyph name="Egrave" xMin="-47" yMin="0" xMax="1372" yMax="1907">
      <component glyphName="E" x="0" y="0" flags="0x204"/>
      <component glyphName="grave" x="39" y="338" flags="0x4"/>
    </TTGlyph>
    <TTGlyph name="Emacron" xMin="-47" yMin="0" xMax="1372" yMax="1741">
      <component glyphName="E" x="0" y="0" flags="0x204"/>
      <component glyphName="uni02C9" x="221" y="338" flags="0x4"/>
    </TTGlyph>
    <TTGlyph name="Eng" xMin="-47" yMin="-492" xMax="1780" yMax="1462">
      <contour>
        <pt x="539" y="1159" on="1"/>
        <pt x="346" y="242" on="1"/>
        <pt x="341" y="219" on="0"/>
        <pt x="336" y="186" on="0"/>
        <pt x="336" y="178" on="1"/>
        <pt x="336" y="156" on="0"/>
        <pt x="358" y="129" on="0"/>
        <pt x="398" y="114" on="0"/>
        <pt x="453" y="109" on="0"/>
        <pt x="485" y="109" on="1"/>
        <pt x="492" y="109" on="1"/>
        <pt x="469" y="0" on="1"/>
        <pt x="-47" y="0" on="1"/>
        <pt x="-25" y="109" on="1"/>
        <pt x="2" y="109" on="1"/>
        <pt x="34" y="109" on="0"/>
        <pt x="95" y="117" on="0"/>
        <pt x="145" y="143" on="0"/>
        <pt x="182" y="191" on="0"/>
        <pt x="190" y="231" on="1"/>
        <pt x="399" y="1214" on="1"/>
        <pt x="412" y="1267" on="0"/>
        <pt x="412" y="1284" on="1"/>
        <pt x="412" y="1306" on="0"/>
        <pt x="390" y="1334" on="0"/>
        <pt x="351" y="1349" on="0"/>
        <pt x="296" y="1354" on="0"/>
        <pt x="264" y="1354" on="1"/>
        <pt x="238" y="1354" on="1"/>
        <pt x="260" y="1462" on="1"/>
        <pt x="715" y="1462" on="1"/>
        <pt x="1214" y="412" on="1"/>
        <pt x="1386" y="1221" on="1"/>
        <pt x="1397" y="1268" on="0"/>
        <pt x="1397" y="1284" on="1"/>
        <pt x="1397" y="1306" on="0"/>
        <pt x="1374" y="1334" on="0"/>
        <pt x="1334" y="1349" on="0"/>
        <pt x="1279" y="1354" on="0"/>
        <pt x="1247" y="1354" on="1"/>
        <pt x="1241" y="1354" on="1"/>
        <pt x="1264" y="1462" on="1"/>
        <pt x="1780" y="1462" on="1"/>
        <pt x="1757" y="1354" on="1"/>
        <pt x="1731" y="1354" on="1"/>
        <pt x="1699" y="1354" on="0"/>
        <pt x="1638" y="1345" on="0"/>
        <pt x="1588" y="1319" on="0"/>
        <pt x="1551" y="1271" on="0"/>
        <pt x="1542" y="1231" on="1"/>
        <pt x="1282" y="0" on="1"/>
        <pt x="1254" y="-132" on="0"/>
        <pt x="1162" y="-319" on="0"/>
        <pt x="1033" y="-437" on="0"/>
        <pt x="870" y="-492" on="0"/>
        <pt x="772" y="-492" on="1"/>
        <pt x="732" y="-492" on="0"/>
        <pt x="648" y="-480" on="0"/>
        <pt x="614" y="-469" on="1"/>
        <pt x="641" y="-354" on="1"/>
        <pt x="667" y="-364" on="0"/>
        <pt x="724" y="-373" on="0"/>
        <pt x="752" y="-373" on="1"/>
        <pt x="800" y="-373" on="0"/>
        <pt x="902" y="-338" on="0"/>
        <pt x="994" y="-252" on="0"/>
        <pt x="1071" y="-108" on="0"/>
        <pt x="1094" y="0" on="1"/>
      </contour>
    </TTGlyph>
    <TTGlyph name="Eogonek" xMin="-47" yMin="-492" xMax="1372" yMax="1462">
      <component glyphName="E" x="0" y="0" flags="0x204"/>
      <component glyphName="ogonek" x="307" y="0" flags="0x4"/>
    </TTGlyph>
    <TTGlyph name="Epsilon" xMin="-47" yMin="0" xMax="1372" yMax="1462">
      <component glyphName="E" x="0" y="0" flags="0x204"/>
    </TTGlyph>
    <TTGlyph name="Epsilontonos" xMin="-52" yMin="0" xMax="1601" yMax="1462">
      <component glyphName="E" x="229" y="0" flags="0x4"/>
      <component glyphName="tonos" x="-486" y="-168" flags="0x4"/>
    </TTGlyph>
    <TTGlyph name="Eta" xMin="-47" yMin="0" xMax="1823" yMax="1462">
      <component glyphName="H" x="0" y="0" flags="0x204"/>
    </TTGlyph>
    <TTGlyph name="Etatonos" xMin="-52" yMin="0" xMax="2052" yMax="1462">
      <component glyphName="H" x="229" y="0" flags="0x4"/>
      <component glyphName="tonos" x="-486" y="-168" flags="0x4"/>
    </TTGlyph>
    <TTGlyph name="Eth" xMin="-49" yMin="0" xMax="1536" yMax="1462">
      <contour>
        <pt x="-27" y="109" on="1"/>
        <pt x="2" y="109" on="1"/>
        <pt x="34" y="109" on="0"/>
        <pt x="95" y="117" on="0"/>
        <pt x="145" y="143" on="0"/>
        <pt x="182" y="191" on="0"/>
        <pt x="190" y="231" on="1"/>
        <pt x="289" y="702" on="1"/>
        <pt x="121" y="702" on="1"/>
        <pt x="147" y="827" on="1"/>
        <pt x="315" y="827" on="1"/>
        <pt x="403" y="1237" on="1"/>
        <pt x="406" y="1248" on="0"/>
        <pt x="411" y="1276" on="0"/>
        <pt x="411" y="1284" on="1"/>
        <pt x="411" y="1306" on="0"/>
        <pt x="389" y="1334" on="0"/>
        <pt x="350" y="1349" on="0"/>
        <pt x="296" y="1354" on="0"/>
        <pt x="264" y="1354" on="1"/>
        <pt x="237" y="1354" on="1"/>
        <pt x="260" y="1462" on="1"/>
        <pt x="915" y="1462" on="1"/>
        <pt x="1062" y="1462" on="0"/>
        <pt x="1292" y="1390" on="0"/>
        <pt x="1452" y="1249" on="0"/>
        <pt x="1536" y="1041" on="0"/>
        <pt x="1536" y="905" on="1"/>
        <pt x="1536" y="783" on="0"/>
        <pt x="1485" y="554" on="0"/>
        <pt x="1386" y="353" on="0"/>
        <pt x="1240" y="186" on="0"/>
        <pt x="1048" y="66" on="0"/>
        <pt x="811" y="0" on="0"/>
        <pt x="672" y="0" on="1"/>
        <pt x="-49" y="0" on="1"/>
      </contour>
      <contour>
        <pt x="584" y="127" on="1"/>
        <pt x="728" y="127" on="0"/>
        <pt x="954" y="244" on="0"/>
        <pt x="1110" y="455" on="0"/>
        <pt x="1192" y="747" on="0"/>
        <pt x="1192" y="922" on="1"/>
        <pt x="1192" y="1029" on="0"/>
        <pt x="1142" y="1186" on="0"/>
        <pt x="1048" y="1288" on="0"/>
        <pt x="915" y="1337" on="0"/>
        <pt x="833" y="1337" on="1"/>
        <pt x="747" y="1337" on="1"/>
        <pt x="639" y="827" on="1"/>
        <pt x="897" y="827" on="1"/>
        <pt x="870" y="702" on="1"/>
        <pt x="612" y="702" on="1"/>
        <pt x="491" y="127" on="1"/>
      </contour>
    </TTGlyph>
    <TTGlyph name="Euro" xMin="45" yMin="-20" xMax="1253" yMax="1479">
      <contour>
        <pt x="707" y="133" on="1"/>
        <pt x="758" y="133" on="0"/>
        <pt x="840" y="160" on="0"/>
        <pt x="907" y="206" on="0"/>
        <pt x="960" y="266" on="0"/>
        <pt x="983" y="299" on="1"/>
        <pt x="995" y="287" on="0"/>
        <pt x="1020" y="248" on="0"/>
        <pt x="1020" y="213" on="1"/>
        <pt x="1020" y="177" on="0"/>
        <pt x="971" y="95" on="0"/>
        <pt x="872" y="26" on="0"/>
        <pt x="723" y="-20" on="0"/>
        <pt x="623" y="-20" on="1"/>
        <pt x="525" y="-20" on="0"/>
        <pt x="357" y="35" on="0"/>
        <pt x="233" y="149" on="0"/>
        <pt x="162" y="324" on="0"/>
        <pt x="162" y="444" on="1"/>
        <pt x="162" y="470" on="0"/>
        <pt x="163" y="517" on="0"/>
        <pt x="166" y="543" on="1"/>
        <pt x="45" y="543" on="1"/>
        <pt x="72" y="670" on="1"/>
        <pt x="178" y="670" on="1"/>
        <pt x="181" y="690" on="0"/>
        <pt x="196" y="758" on="0"/>
        <pt x="207" y="797" on="1"/>
        <pt x="100" y="797" on="1"/>
        <pt x="127" y="924" on="1"/>
        <pt x="244" y="924" on="1"/>
        <pt x="298" y="1084" on="0"/>
        <pt x="440" y="1297" on="0"/>
        <pt x="609" y="1425" on="0"/>
        <pt x="800" y="1479" on="0"/>
        <pt x="901" y="1479" on="1"/>
        <pt x="990" y="1479" on="0"/>
        <pt x="1123" y="1443" on="0"/>
        <pt x="1210" y="1382" on="0"/>
        <pt x="1253" y="1302" on="0"/>
        <pt x="1253" y="1257" on="1"/>
        <pt x="1253" y="1168" on="0"/>
        <pt x="1112" y="1069" on="0"/>
        <pt x="981" y="1069" on="1"/>
        <pt x="981" y="1120" on="0"/>
        <pt x="970" y="1220" on="0"/>
        <pt x="940" y="1300" on="0"/>
        <pt x="888" y="1350" on="0"/>
        <pt x="848" y="1350" on="1"/>
        <pt x="807" y="1350" on="0"/>
        <pt x="725" y="1310" on="0"/>
        <pt x="646" y="1212" on="0"/>
        <pt x="574" y="1048" on="0"/>
        <pt x="543" y="924" on="1"/>
        <pt x="920" y="924" on="1"/>
        <pt x="893" y="797" on="1"/>
        <pt x="508" y="797" on="1"/>
        <pt x="497" y="760" on="0"/>
        <pt x="483" y="687" on="0"/>
        <pt x="481" y="670" on="1"/>
        <pt x="782" y="670" on="1"/>
        <pt x="756" y="543" on="1"/>
        <pt x="465" y="543" on="1"/>
        <pt x="462" y="518" on="0"/>
        <pt x="461" y="460" on="0"/>
        <pt x="461" y="438" on="1"/>
        <pt x="461" y="293" on="0"/>
        <pt x="588" y="133" on="0"/>
      </contour>
    </TTGlyph>
    <TTGlyph name="F" xMin="-47" yMin="0" xMax="1386" yMax="1462">
      <contour>
        <pt x="514" y="242" on="1"/>
        <pt x="509" y="219" on="0"/>
        <pt x="504" y="186" on="0"/>
        <pt x="504" y="178" on="1"/>
        <pt x="504" y="156" on="0"/>
        <pt x="526" y="129" on="0"/>
        <pt x="566" y="114" on="0"/>
        <pt x="621" y="109" on="0"/>
        <pt x="653" y="109" on="1"/>
        <pt x="680" y="109" on="1"/>
        <pt x="657" y="0" on="1"/>
        <pt x="-47" y="0" on="1"/>
        <pt x="-25" y="109" on="1"/>
        <pt x="2" y="109" on="1"/>
        <pt x="34" y="109" on="0"/>
        <pt x="95" y="117" on="0"/>
        <pt x="145" y="143" on="0"/>
        <pt x="182" y="191" on="0"/>
        <pt x="190" y="231" on="1"/>
        <pt x="399" y="1214" on="1"/>
        <pt x="412" y="1267" on="0"/>
        <pt x="412" y="1284" on="1"/>
        <pt x="412" y="1306" on="0"/>
        <pt x="390" y="1334" on="0"/>
        <pt x="351" y="1349" on="0"/>
        <pt x="296" y="1354" on="0"/>
        <pt x="264" y="1354" on="1"/>
        <pt x="238" y="1354" on="1"/>
        <pt x="260" y="1462" on="1"/>
        <pt x="1386" y="1462" on="1"/>
        <pt x="1315" y="1081" on="1"/>
        <pt x="1169" y="1081" on="1"/>
        <pt x="1171" y="1098" on="0"/>
        <pt x="1175" y="1136" on="0"/>
        <pt x="1178" y="1171" on="0"/>
        <pt x="1180" y="1196" on="0"/>
        <pt x="1180" y="1200" on="1"/>
        <pt x="1180" y="1229" on="0"/>
        <pt x="1164" y="1279" on="0"/>
        <pt x="1128" y="1316" on="0"/>
        <pt x="1069" y="1337" on="0"/>
        <pt x="1026" y="1337" on="1"/>
        <pt x="748" y="1337" on="1"/>
        <pt x="629" y="778" on="1"/>
        <pt x="1114" y="778" on="1"/>
        <pt x="1090" y="657" on="1"/>
        <pt x="604" y="657" on="1"/>
      </contour>
    </TTGlyph>
    <TTGlyph name="G" xMin="129" yMin="-20" xMax="1567" yMax="1483">
      <contour>
        <pt x="1544" y="590" on="1"/>
        <pt x="1542" y="590" on="1"/>
        <pt x="1508" y="590" on="0"/>
        <pt x="1445" y="581" on="0"/>
        <pt x="1394" y="555" on="0"/>
        <pt x="1356" y="505" on="0"/>
        <pt x="1348" y="465" on="1"/>
        <pt x="1270" y="74" on="1"/>
        <pt x="1208" y="50" on="0"/>
        <pt x="1089" y="15" on="0"/>
        <pt x="966" y="-9" on="0"/>
        <pt x="836" y="-20" on="0"/>
        <pt x="764" y="-20" on="1"/>
        <pt x="606" y="-20" on="0"/>
        <pt x="369" y="56" on="0"/>
        <pt x="209" y="198" on="0"/>
        <pt x="129" y="401" on="0"/>
        <pt x="129" y="528" on="1"/>
        <pt x="129" y="660" on="0"/>
        <pt x="191" y="905" on="0"/>
        <pt x="307" y="1117" on="0"/>
        <pt x="475" y="1291" on="0"/>
        <pt x="685" y="1415" on="0"/>
        <pt x="936" y="1483" on="0"/>
        <pt x="1077" y="1483" on="1"/>
        <pt x="1195" y="1483" on="0"/>
        <pt x="1369" y="1441" on="0"/>
        <pt x="1485" y="1373" on="0"/>
        <pt x="1542" y="1285" on="0"/>
        <pt x="1542" y="1239" on="1"/>
        <pt x="1542" y="1199" on="0"/>
        <pt x="1495" y="1130" on="0"/>
        <pt x="1415" y="1079" on="0"/>
        <pt x="1306" y="1049" on="0"/>
        <pt x="1245" y="1049" on="1"/>
        <pt x="1245" y="1113" on="0"/>
        <pt x="1218" y="1224" on="0"/>
        <pt x="1161" y="1306" on="0"/>
        <pt x="1074" y="1352" on="0"/>
        <pt x="1014" y="1352" on="1"/>
        <pt x="936" y="1352" on="0"/>
        <pt x="794" y="1288" on="0"/>
        <pt x="672" y="1174" on="0"/>
        <pt x="573" y="1016" on="0"/>
        <pt x="503" y="828" on="0"/>
        <pt x="465" y="615" on="0"/>
        <pt x="465" y="504" on="1"/>
        <pt x="465" y="418" on="0"/>
        <pt x="499" y="277" on="0"/>
        <pt x="574" y="175" on="0"/>
        <pt x="691" y="119" on="0"/>
        <pt x="774" y="119" on="1"/>
        <pt x="821" y="119" on="0"/>
        <pt x="919" y="135" on="0"/>
        <pt x="956" y="147" on="1"/>
        <pt x="1024" y="451" on="1"/>
        <pt x="1036" y="505" on="0"/>
        <pt x="1036" y="520" on="1"/>
        <pt x="1036" y="542" on="0"/>
        <pt x="1014" y="570" on="0"/>
        <pt x="975" y="585" on="0"/>
        <pt x="921" y="590" on="0"/>
        <pt x="889" y="590" on="1"/>
        <pt x="862" y="590" on="1"/>
        <pt x="885" y="698" on="1"/>
        <pt x="1567" y="698" on="1"/>
      </contour>
    </TTGlyph>
    <TTGlyph name="Gamma" xMin="-47" yMin="0" xMax="1376" yMax="1462">
      <contour>
        <pt x="522" y="281" on="1"/>
        <pt x="513" y="239" on="0"/>
        <pt x="504" y="186" on="0"/>
        <pt x="504" y="178" on="1"/>
        <pt x="504" y="156" on="0"/>
        <pt x="526" y="129" on="0"/>
        <pt x="566" y="114" on="0"/>
        <pt x="621" y="109" on="0"/>
        <pt x="653" y="109" on="1"/>
        <pt x="721" y="109" on="1"/>
        <pt x="698" y="0" on="1"/>
        <pt x="-47" y="0" on="1"/>
        <pt x="-25" y="109" on="1"/>
        <pt x="2" y="109" on="1"/>
        <pt x="34" y="109" on="0"/>
        <pt x="95" y="117" on="0"/>
        <pt x="145" y="143" on="0"/>
        <pt x="182" y="191" on="0"/>
        <pt x="190" y="231" on="1"/>
        <pt x="403" y="1237" on="1"/>
        <pt x="407" y="1248" on="0"/>
        <pt x="412" y="1276" on="0"/>
        <pt x="412" y="1284" on="1"/>
        <pt x="412" y="1306" on="0"/>
        <pt x="390" y="1334" on="0"/>
        <pt x="351" y="1349" on="0"/>
        <pt x="296" y="1354" on="0"/>
        <pt x="264" y="1354" on="1"/>
        <pt x="238" y="1354" on="1"/>
        <pt x="258" y="1462" on="1"/>
        <pt x="1376" y="1462" on="1"/>
        <pt x="1307" y="1061" on="1"/>
        <pt x="1171" y="1061" on="1"/>
        <pt x="1167" y="1159" on="1"/>
        <pt x="1165" y="1204" on="0"/>
        <pt x="1147" y="1270" on="0"/>
        <pt x="1110" y="1315" on="0"/>
        <pt x="1053" y="1337" on="0"/>
        <pt x="1012" y="1337" on="1"/>
        <pt x="745" y="1337" on="1"/>
      </contour>
    </TTGlyph>
    <TTGlyph name="Gbreve" xMin="129" yMin="-20" xMax="1567" yMax="1901">
      <component glyphName="G" x="0" y="0" flags="0x204"/>
      <component glyphName="breve" x="481" y="338" flags="0x4"/>
    </TTGlyph>
    <TTGlyph name="Gcaron" xMin="129" yMin="-20" xMax="1567" yMax="1907">
      <component glyphName="G" x="0" y="0" flags="0x204"/>
      <component glyphName="caron" x="328" y="338" flags="0x4"/>
    </TTGlyph>
    <TTGlyph name="Gcircumflex" xMin="129" yMin="-20" xMax="1567" yMax="1907">
      <component glyphName="G" x="0" y="0" flags="0x204"/>
      <component glyphName="circumflex" x="332" y="338" flags="0x4"/>
    </TTGlyph>
    <TTGlyph name="Gcommaaccent" xMin="129" yMin="-453" xMax="1567" yMax="1483">
      <component glyphName="G" x="0" y="0" flags="0x204"/>
      <component glyphName="glyph00569" x="154" y="0" flags="0x4"/>
    </TTGlyph>
    <TTGlyph name="Gdotaccent" xMin="129" yMin="-20" xMax="1567" yMax="1915">
      <component glyphName="G" x="0" y="0" flags="0x204"/>
      <component glyphName="dotaccent" x="567" y="338" flags="0x4"/>
    </TTGlyph>
    <TTGlyph name="H" xMin="-47" yMin="0" xMax="1823" yMax="1462">
      <contour>
        <pt x="807" y="0" on="1"/>
        <pt x="829" y="109" on="1"/>
        <pt x="856" y="109" on="1"/>
        <pt x="889" y="109" on="0"/>
        <pt x="951" y="117" on="0"/>
        <pt x="1003" y="144" on="0"/>
        <pt x="1040" y="192" on="0"/>
        <pt x="1049" y="233" on="1"/>
        <pt x="1147" y="700" on="1"/>
        <pt x="612" y="700" on="1"/>
        <pt x="512" y="225" on="1"/>
        <pt x="509" y="214" on="0"/>
        <pt x="504" y="186" on="0"/>
        <pt x="504" y="178" on="1"/>
        <pt x="504" y="156" on="0"/>
        <pt x="526" y="129" on="0"/>
        <pt x="566" y="114" on="0"/>
        <pt x="621" y="109" on="0"/>
        <pt x="653" y="109" on="1"/>
        <pt x="680" y="109" on="1"/>
        <pt x="657" y="0" on="1"/>
        <pt x="-47" y="0" on="1"/>
        <pt x="-25" y="109" on="1"/>
        <pt x="2" y="109" on="1"/>
        <pt x="34" y="109" on="0"/>
        <pt x="95" y="117" on="0"/>
        <pt x="145" y="143" on="0"/>
        <pt x="182" y="191" on="0"/>
        <pt x="190" y="231" on="1"/>
        <pt x="399" y="1214" on="1"/>
        <pt x="412" y="1267" on="0"/>
        <pt x="412" y="1284" on="1"/>
        <pt x="412" y="1306" on="0"/>
        <pt x="390" y="1334" on="0"/>
        <pt x="351" y="1349" on="0"/>
        <pt x="296" y="1354" on="0"/>
        <pt x="264" y="1354" on="1"/>
        <pt x="238" y="1354" on="1"/>
        <pt x="260" y="1462" on="1"/>
        <pt x="967" y="1462" on="1"/>
        <pt x="944" y="1354" on="1"/>
        <pt x="918" y="1354" on="1"/>
        <pt x="884" y="1354" on="0"/>
        <pt x="821" y="1345" on="0"/>
        <pt x="769" y="1319" on="0"/>
        <pt x="731" y="1269" on="0"/>
        <pt x="723" y="1229" on="1"/>
        <pt x="639" y="825" on="1"/>
        <pt x="1174" y="825" on="1"/>
        <pt x="1260" y="1223" on="1"/>
        <pt x="1265" y="1244" on="0"/>
        <pt x="1270" y="1276" on="0"/>
        <pt x="1270" y="1284" on="1"/>
        <pt x="1270" y="1306" on="0"/>
        <pt x="1247" y="1334" on="0"/>
        <pt x="1207" y="1349" on="0"/>
        <pt x="1152" y="1354" on="0"/>
        <pt x="1120" y="1354" on="1"/>
        <pt x="1094" y="1354" on="1"/>
        <pt x="1116" y="1462" on="1"/>
        <pt x="1823" y="1462" on="1"/>
        <pt x="1800" y="1354" on="1"/>
        <pt x="1774" y="1354" on="1"/>
        <pt x="1741" y="1354" on="0"/>
        <pt x="1679" y="1345" on="0"/>
        <pt x="1627" y="1319" on="0"/>
        <pt x="1590" y="1269" on="0"/>
        <pt x="1581" y="1229" on="1"/>
        <pt x="1370" y="225" on="1"/>
        <pt x="1367" y="214" on="0"/>
        <pt x="1362" y="186" on="0"/>
        <pt x="1362" y="178" on="1"/>
        <pt x="1362" y="156" on="0"/>
        <pt x="1384" y="129" on="0"/>
        <pt x="1423" y="114" on="0"/>
        <pt x="1477" y="109" on="0"/>
        <pt x="1509" y="109" on="1"/>
        <pt x="1536" y="109" on="1"/>
        <pt x="1513" y="0" on="1"/>
      </contour>
    </TTGlyph>
    <TTGlyph name="H18533" xMin="178" yMin="137" xMax="1059" yMax="1018">
      <contour>
        <pt x="618" y="1018" on="1"/>
        <pt x="727" y="1018" on="0"/>
        <pt x="944" y="901" on="0"/>
        <pt x="1059" y="684" on="0"/>
        <pt x="1059" y="578" on="1"/>
        <pt x="1059" y="395" on="0"/>
        <pt x="801" y="137" on="0"/>
        <pt x="618" y="137" on="1"/>
        <pt x="436" y="137" on="0"/>
        <pt x="178" y="395" on="0"/>
        <pt x="178" y="578" on="1"/>
        <pt x="178" y="686" on="0"/>
        <pt x="289" y="899" on="0"/>
        <pt x="504" y="1018" on="0"/>
      </contour>
    </TTGlyph>
    <TTGlyph name="H18543" xMin="109" yMin="383" xMax="616" yMax="891">
      <contour>
        <pt x="616" y="383" on="1"/>
        <pt x="109" y="383" on="1"/>
        <pt x="109" y="891" on="1"/>
        <pt x="616" y="891" on="1"/>
      </contour>
    </TTGlyph>
    <TTGlyph name="H18551" xMin="109" yMin="383" xMax="616" yMax="891">
      <contour>
        <pt x="616" y="383" on="1"/>
        <pt x="109" y="383" on="1"/>
        <pt x="109" y="891" on="1"/>
        <pt x="616" y="891" on="1"/>
      </contour>
      <contour>
        <pt x="541" y="459" on="1"/>
        <pt x="541" y="813" on="1"/>
        <pt x="184" y="813" on="1"/>
        <pt x="184" y="459" on="1"/>
      </contour>
    </TTGlyph>
    <TTGlyph name="H22073" xMin="6" yMin="0" xMax="1231" yMax="1225">
      <contour>
        <pt x="6" y="1225" on="1"/>
        <pt x="1231" y="1225" on="1"/>
        <pt x="1231" y="0" on="1"/>
        <pt x="6" y="0" on="1"/>
      </contour>
      <contour>
        <pt x="82" y="1149" on="1"/>
        <pt x="82" y="76" on="1"/>
        <pt x="1155" y="76" on="1"/>
        <pt x="1155" y="1149" on="1"/>
      </contour>
    </TTGlyph>
    <TTGlyph name="Hbar" xMin="-47" yMin="0" xMax="1823" yMax="1462">
      <contour>
        <pt x="807" y="0" on="1"/>
        <pt x="829" y="109" on="1"/>
        <pt x="856" y="109" on="1"/>
        <pt x="889" y="109" on="0"/>
        <pt x="951" y="117" on="0"/>
        <pt x="1003" y="144" on="0"/>
        <pt x="1040" y="192" on="0"/>
        <pt x="1049" y="233" on="1"/>
        <pt x="1147" y="700" on="1"/>
        <pt x="612" y="700" on="1"/>
        <pt x="512" y="225" on="1"/>
        <pt x="509" y="214" on="0"/>
        <pt x="504" y="186" on="0"/>
        <pt x="504" y="178" on="1"/>
        <pt x="504" y="156" on="0"/>
        <pt x="526" y="129" on="0"/>
        <pt x="566" y="114" on="0"/>
        <pt x="621" y="109" on="0"/>
        <pt x="653" y="109" on="1"/>
        <pt x="680" y="109" on="1"/>
        <pt x="657" y="0" on="1"/>
        <pt x="-47" y="0" on="1"/>
        <pt x="-25" y="109" on="1"/>
        <pt x="2" y="109" on="1"/>
        <pt x="34" y="109" on="0"/>
        <pt x="95" y="117" on="0"/>
        <pt x="145" y="143" on="0"/>
        <pt x="182" y="191" on="0"/>
        <pt x="190" y="231" on="1"/>
        <pt x="358" y="1022" on="1"/>
        <pt x="145" y="1022" on="1"/>
        <pt x="168" y="1130" on="1"/>
        <pt x="381" y="1130" on="1"/>
        <pt x="399" y="1214" on="1"/>
        <pt x="412" y="1267" on="0"/>
        <pt x="412" y="1284" on="1"/>
        <pt x="412" y="1306" on="0"/>
        <pt x="390" y="1334" on="0"/>
        <pt x="351" y="1349" on="0"/>
        <pt x="296" y="1354" on="0"/>
        <pt x="264" y="1354" on="1"/>
        <pt x="238" y="1354" on="1"/>
        <pt x="260" y="1462" on="1"/>
        <pt x="967" y="1462" on="1"/>
        <pt x="944" y="1354" on="1"/>
        <pt x="918" y="1354" on="1"/>
        <pt x="884" y="1354" on="0"/>
        <pt x="821" y="1345" on="0"/>
        <pt x="769" y="1319" on="0"/>
        <pt x="731" y="1269" on="0"/>
        <pt x="723" y="1229" on="1"/>
        <pt x="702" y="1130" on="1"/>
        <pt x="1239" y="1130" on="1"/>
        <pt x="1260" y="1223" on="1"/>
        <pt x="1265" y="1244" on="0"/>
        <pt x="1270" y="1276" on="0"/>
        <pt x="1270" y="1284" on="1"/>
        <pt x="1270" y="1306" on="0"/>
        <pt x="1247" y="1334" on="0"/>
        <pt x="1207" y="1349" on="0"/>
        <pt x="1152" y="1354" on="0"/>
        <pt x="1120" y="1354" on="1"/>
        <pt x="1094" y="1354" on="1"/>
        <pt x="1116" y="1462" on="1"/>
        <pt x="1823" y="1462" on="1"/>
        <pt x="1800" y="1354" on="1"/>
        <pt x="1774" y="1354" on="1"/>
        <pt x="1741" y="1354" on="0"/>
        <pt x="1679" y="1345" on="0"/>
        <pt x="1627" y="1319" on="0"/>
        <pt x="1590" y="1269" on="0"/>
        <pt x="1581" y="1229" on="1"/>
        <pt x="1561" y="1130" on="1"/>
        <pt x="1772" y="1130" on="1"/>
        <pt x="1749" y="1022" on="1"/>
        <pt x="1538" y="1022" on="1"/>
        <pt x="1370" y="225" on="1"/>
        <pt x="1367" y="214" on="0"/>
        <pt x="1362" y="186" on="0"/>
        <pt x="1362" y="178" on="1"/>
        <pt x="1362" y="156" on="0"/>
        <pt x="1384" y="129" on="0"/>
        <pt x="1423" y="114" on="0"/>
        <pt x="1477" y="109" on="0"/>
        <pt x="1509" y="109" on="1"/>
        <pt x="1536" y="109" on="1"/>
        <pt x="1513" y="0" on="1"/>
      </contour>
      <contour>
        <pt x="1174" y="825" on="1"/>
        <pt x="1217" y="1022" on="1"/>
        <pt x="680" y="1022" on="1"/>
        <pt x="639" y="825" on="1"/>
      </contour>
    </TTGlyph>
    <TTGlyph name="Hcircumflex" xMin="-47" yMin="0" xMax="1823" yMax="1907">
      <component glyphName="H" x="0" y="0" flags="0x204"/>
      <component glyphName="circumflex" x="350" y="338" flags="0x4"/>
    </TTGlyph>
    <TTGlyph name="I" xMin="-47" yMin="0" xMax="967" yMax="1462">
      <contour>
        <pt x="-47" y="0" on="1"/>
        <pt x="-25" y="109" on="1"/>
        <pt x="2" y="109" on="1"/>
        <pt x="34" y="109" on="0"/>
        <pt x="95" y="117" on="0"/>
        <pt x="145" y="143" on="0"/>
        <pt x="182" y="191" on="0"/>
        <pt x="190" y="231" on="1"/>
        <pt x="403" y="1237" on="1"/>
        <pt x="407" y="1248" on="0"/>
        <pt x="412" y="1276" on="0"/>
        <pt x="412" y="1284" on="1"/>
        <pt x="412" y="1306" on="0"/>
        <pt x="390" y="1334" on="0"/>
        <pt x="351" y="1349" on="0"/>
        <pt x="296" y="1354" on="0"/>
        <pt x="264" y="1354" on="1"/>
        <pt x="238" y="1354" on="1"/>
        <pt x="260" y="1462" on="1"/>
        <pt x="967" y="1462" on="1"/>
        <pt x="944" y="1354" on="1"/>
        <pt x="918" y="1354" on="1"/>
        <pt x="884" y="1354" on="0"/>
        <pt x="821" y="1345" on="0"/>
        <pt x="769" y="1319" on="0"/>
        <pt x="731" y="1269" on="0"/>
        <pt x="723" y="1229" on="1"/>
        <pt x="512" y="225" on="1"/>
        <pt x="510" y="214" on="0"/>
        <pt x="504" y="186" on="0"/>
        <pt x="504" y="178" on="1"/>
        <pt x="504" y="156" on="0"/>
        <pt x="526" y="129" on="0"/>
        <pt x="566" y="114" on="0"/>
        <pt x="621" y="109" on="0"/>
        <pt x="653" y="109" on="1"/>
        <pt x="680" y="109" on="1"/>
        <pt x="657" y="0" on="1"/>
      </contour>
    </TTGlyph>
    <TTGlyph name="IJ" xMin="-47" yMin="-492" xMax="1788" yMax="1462">
      <component glyphName="I" x="0" y="0" flags="0x4"/>
      <component glyphName="J" x="821" y="0" flags="0x4"/>
    </TTGlyph>
    <TTGlyph name="Iacute" xMin="-47" yMin="0" xMax="1066" yMax="1907">
      <component glyphName="I" x="0" y="0" flags="0x204"/>
      <component glyphName="acute" x="-3" y="338" flags="0x4"/>
    </TTGlyph>
    <TTGlyph name="Ibreve" xMin="-47" yMin="0" xMax="995" yMax="1901">
      <component glyphName="I" x="0" y="0" flags="0x204"/>
      <component glyphName="breve" x="57" y="338" flags="0x4"/>
    </TTGlyph>
    <TTGlyph name="Icircumflex" xMin="-47" yMin="0" xMax="999" yMax="1907">
      <component glyphName="I" x="0" y="0" flags="0x204"/>
      <component glyphName="circumflex" x="-58" y="338" flags="0x4"/>
    </TTGlyph>
    <TTGlyph name="Idieresis" xMin="-47" yMin="0" xMax="984" yMax="1868">
      <component glyphName="I" x="0" y="0" flags="0x204"/>
      <component glyphName="dieresis" x="-60" y="338" flags="0x4"/>
    </TTGlyph>
    <TTGlyph name="Idotaccent" xMin="-47" yMin="0" xMax="967" yMax="1915">
      <component glyphName="I" x="0" y="0" flags="0x204"/>
      <component glyphName="dotaccent" x="160" y="338" flags="0x4"/>
    </TTGlyph>
    <TTGlyph name="Igrave" xMin="-47" yMin="0" xMax="967" yMax="1907">
      <component glyphName="I" x="0" y="0" flags="0x204"/>
      <component glyphName="grave" x="-202" y="338" flags="0x4"/>
    </TTGlyph>
    <TTGlyph name="Imacron" xMin="-47" yMin="0" xMax="967" yMax="1741">
      <component glyphName="I" x="0" y="0" flags="0x204"/>
      <component glyphName="uni02C9" x="-42" y="338" flags="0x4"/>
    </TTGlyph>
    <TTGlyph name="Iogonek" xMin="-47" yMin="-492" xMax="967" yMax="1462">
      <component glyphName="I" x="0" y="0" flags="0x204"/>
      <component glyphName="ogonek" x="-269" y="0" flags="0x4"/>
    </TTGlyph>
    <TTGlyph name="Iota" xMin="-47" yMin="0" xMax="967" yMax="1462">
      <component glyphName="I" x="0" y="0" flags="0x204"/>
    </TTGlyph>
    <TTGlyph name="Iotadieresis" xMin="-47" yMin="0" xMax="984" yMax="1868">
      <component glyphName="I" x="0" y="0" flags="0x204"/>
      <component glyphName="dieresis" x="-60" y="338" flags="0x4"/>
    </TTGlyph>
    <TTGlyph name="Iotatonos" xMin="-52" yMin="0" xMax="1196" yMax="1462">
      <component glyphName="I" x="229" y="0" flags="0x4"/>
      <component glyphName="tonos" x="-486" y="-168" flags="0x4"/>
    </TTGlyph>
    <TTGlyph name="Itilde" xMin="-47" yMin="0" xMax="1068" yMax="1903">
      <component glyphName="I" x="0" y="0" flags="0x204"/>
      <component glyphName="tilde" x="-73" y="338" flags="0x4"/>
    </TTGlyph>
    <TTGlyph name="J" xMin="-324" yMin="-492" xMax="967" yMax="1462">
      <contour>
        <pt x="463" y="-6" on="1"/>
        <pt x="437" y="-131" on="0"/>
        <pt x="315" y="-314" on="0"/>
        <pt x="149" y="-434" on="0"/>
        <pt x="-51" y="-492" on="0"/>
        <pt x="-156" y="-492" on="1"/>
        <pt x="-211" y="-492" on="0"/>
        <pt x="-286" y="-480" on="0"/>
        <pt x="-324" y="-469" on="1"/>
        <pt x="-295" y="-356" on="1"/>
        <pt x="-282" y="-361" on="0"/>
        <pt x="-249" y="-368" on="0"/>
        <pt x="-213" y="-373" on="0"/>
        <pt x="-177" y="-375" on="0"/>
        <pt x="-162" y="-375" on="1"/>
        <pt x="-109" y="-375" on="0"/>
        <pt x="-18" y="-337" on="0"/>
        <pt x="57" y="-250" on="0"/>
        <pt x="117" y="-109" on="0"/>
        <pt x="139" y="-6" on="1"/>
        <pt x="403" y="1237" on="1"/>
        <pt x="407" y="1248" on="0"/>
        <pt x="412" y="1276" on="0"/>
        <pt x="412" y="1284" on="1"/>
        <pt x="412" y="1306" on="0"/>
        <pt x="390" y="1334" on="0"/>
        <pt x="351" y="1349" on="0"/>
        <pt x="296" y="1354" on="0"/>
        <pt x="264" y="1354" on="1"/>
        <pt x="238" y="1354" on="1"/>
        <pt x="260" y="1462" on="1"/>
        <pt x="967" y="1462" on="1"/>
        <pt x="944" y="1354" on="1"/>
        <pt x="918" y="1354" on="1"/>
        <pt x="884" y="1354" on="0"/>
        <pt x="821" y="1345" on="0"/>
        <pt x="769" y="1319" on="0"/>
        <pt x="731" y="1269" on="0"/>
        <pt x="723" y="1229" on="1"/>
      </contour>
    </TTGlyph>
    <TTGlyph name="Jcircumflex" xMin="-324" yMin="-492" xMax="990" yMax="1907">
      <component glyphName="J" x="0" y="0" flags="0x204"/>
      <component glyphName="circumflex" x="-67" y="338" flags="0x4"/>
    </TTGlyph>
    <TTGlyph name="K" xMin="-47" yMin="0" xMax="1659" yMax="1462">
      <contour>
        <pt x="1036" y="1110" on="1"/>
        <pt x="1078" y="1147" on="0"/>
        <pt x="1131" y="1206" on="0"/>
        <pt x="1162" y="1253" on="0"/>
        <pt x="1174" y="1289" on="0"/>
        <pt x="1174" y="1303" on="1"/>
        <pt x="1174" y="1329" on="0"/>
        <pt x="1134" y="1356" on="0"/>
        <pt x="1083" y="1356" on="1"/>
        <pt x="1106" y="1462" on="1"/>
        <pt x="1659" y="1462" on="1"/>
        <pt x="1636" y="1356" on="1"/>
        <pt x="1595" y="1356" on="0"/>
        <pt x="1519" y="1336" on="0"/>
        <pt x="1441" y="1294" on="0"/>
        <pt x="1356" y="1230" on="0"/>
        <pt x="1307" y="1186" on="1"/>
        <pt x="975" y="893" on="1"/>
        <pt x="1214" y="317" on="1"/>
        <pt x="1239" y="260" on="0"/>
        <pt x="1280" y="180" on="0"/>
        <pt x="1323" y="131" on="0"/>
        <pt x="1374" y="109" on="0"/>
        <pt x="1409" y="109" on="1"/>
        <pt x="1415" y="109" on="1"/>
        <pt x="1395" y="0" on="1"/>
        <pt x="1288" y="0" on="1"/>
        <pt x="1186" y="0" on="0"/>
        <pt x="1051" y="25" on="0"/>
        <pt x="958" y="89" on="0"/>
        <pt x="893" y="198" on="0"/>
        <pt x="860" y="283" on="1"/>
        <pt x="709" y="674" on="1"/>
        <pt x="588" y="588" on="1"/>
        <pt x="512" y="225" on="1"/>
        <pt x="510" y="214" on="0"/>
        <pt x="504" y="186" on="0"/>
        <pt x="504" y="178" on="1"/>
        <pt x="504" y="156" on="0"/>
        <pt x="526" y="129" on="0"/>
        <pt x="566" y="114" on="0"/>
        <pt x="621" y="109" on="0"/>
        <pt x="653" y="109" on="1"/>
        <pt x="680" y="109" on="1"/>
        <pt x="657" y="0" on="1"/>
        <pt x="-47" y="0" on="1"/>
        <pt x="-25" y="109" on="1"/>
        <pt x="2" y="109" on="1"/>
        <pt x="34" y="109" on="0"/>
        <pt x="95" y="117" on="0"/>
        <pt x="145" y="143" on="0"/>
        <pt x="182" y="191" on="0"/>
        <pt x="190" y="231" on="1"/>
        <pt x="399" y="1214" on="1"/>
        <pt x="412" y="1267" on="0"/>
        <pt x="412" y="1284" on="1"/>
        <pt x="412" y="1306" on="0"/>
        <pt x="390" y="1334" on="0"/>
        <pt x="351" y="1349" on="0"/>
        <pt x="296" y="1354" on="0"/>
        <pt x="264" y="1354" on="1"/>
        <pt x="238" y="1354" on="1"/>
        <pt x="260" y="1462" on="1"/>
        <pt x="967" y="1462" on="1"/>
        <pt x="944" y="1354" on="1"/>
        <pt x="918" y="1354" on="1"/>
        <pt x="884" y="1354" on="0"/>
        <pt x="821" y="1345" on="0"/>
        <pt x="769" y="1319" on="0"/>
        <pt x="731" y="1269" on="0"/>
        <pt x="723" y="1229" on="1"/>
        <pt x="621" y="743" on="1"/>
      </contour>
    </TTGlyph>
    <TTGlyph name="Kappa" xMin="-47" yMin="0" xMax="1659" yMax="1462">
      <component glyphName="K" x="0" y="0" flags="0x204"/>
    </TTGlyph>
    <TTGlyph name="Kcommaaccent" xMin="-47" yMin="-453" xMax="1659" yMax="1462">
      <component glyphName="K" x="0" y="0" flags="0x204"/>
      <component glyphName="glyph00569" x="131" y="0" flags="0x4"/>
    </TTGlyph>
    <TTGlyph name="L" xMin="-47" yMin="0" xMax="1266" yMax="1462">
      <contour>
        <pt x="834" y="125" on="1"/>
        <pt x="890" y="125" on="0"/>
        <pt x="972" y="153" on="0"/>
        <pt x="1033" y="208" on="0"/>
        <pt x="1079" y="292" on="0"/>
        <pt x="1098" y="348" on="1"/>
        <pt x="1135" y="457" on="1"/>
        <pt x="1266" y="457" on="1"/>
        <pt x="1153" y="0" on="1"/>
        <pt x="-47" y="0" on="1"/>
        <pt x="-25" y="109" on="1"/>
        <pt x="2" y="109" on="1"/>
        <pt x="34" y="109" on="0"/>
        <pt x="95" y="117" on="0"/>
        <pt x="145" y="143" on="0"/>
        <pt x="182" y="191" on="0"/>
        <pt x="190" y="231" on="1"/>
        <pt x="399" y="1214" on="1"/>
        <pt x="412" y="1267" on="0"/>
        <pt x="412" y="1284" on="1"/>
        <pt x="412" y="1306" on="0"/>
        <pt x="390" y="1334" on="0"/>
        <pt x="351" y="1349" on="0"/>
        <pt x="296" y="1354" on="0"/>
        <pt x="264" y="1354" on="1"/>
        <pt x="238" y="1354" on="1"/>
        <pt x="260" y="1462" on="1"/>
        <pt x="967" y="1462" on="1"/>
        <pt x="944" y="1354" on="1"/>
        <pt x="918" y="1354" on="1"/>
        <pt x="884" y="1354" on="0"/>
        <pt x="821" y="1345" on="0"/>
        <pt x="769" y="1319" on="0"/>
        <pt x="731" y="1269" on="0"/>
        <pt x="723" y="1229" on="1"/>
        <pt x="492" y="125" on="1"/>
      </contour>
    </TTGlyph>
    <TTGlyph name="Lacute" xMin="-47" yMin="0" xMax="1266" yMax="1907">
      <component glyphName="L" x="0" y="0" flags="0x204"/>
      <component glyphName="acute" x="70" y="338" flags="0x4"/>
    </TTGlyph>
    <TTGlyph name="Lambda" xMin="-100" yMin="0" xMax="1374" yMax="1462">
      <contour>
        <pt x="889" y="195" on="1"/>
        <pt x="889" y="203" on="0"/>
        <pt x="889" y="224" on="0"/>
        <pt x="888" y="253" on="0"/>
        <pt x="885" y="295" on="0"/>
        <pt x="883" y="324" on="1"/>
        <pt x="834" y="897" on="1"/>
        <pt x="830" y="942" on="0"/>
        <pt x="824" y="1038" on="0"/>
        <pt x="820" y="1131" on="0"/>
        <pt x="818" y="1218" on="0"/>
        <pt x="817" y="1255" on="1"/>
        <pt x="802" y="1218" on="0"/>
        <pt x="771" y="1147" on="0"/>
        <pt x="736" y="1072" on="0"/>
        <pt x="695" y="989" on="0"/>
        <pt x="670" y="940" on="1"/>
        <pt x="338" y="297" on="1"/>
        <pt x="319" y="260" on="0"/>
        <pt x="299" y="204" on="0"/>
        <pt x="299" y="182" on="1"/>
        <pt x="299" y="144" on="0"/>
        <pt x="355" y="109" on="0"/>
        <pt x="414" y="109" on="1"/>
        <pt x="455" y="109" on="1"/>
        <pt x="432" y="0" on="1"/>
        <pt x="-100" y="0" on="1"/>
        <pt x="-78" y="109" on="1"/>
        <pt x="-35" y="109" on="1"/>
        <pt x="-7" y="109" on="0"/>
        <pt x="36" y="122" on="0"/>
        <pt x="76" y="158" on="0"/>
        <pt x="119" y="220" on="0"/>
        <pt x="147" y="268" on="1"/>
        <pt x="801" y="1462" on="1"/>
        <pt x="1081" y="1462" on="1"/>
        <pt x="1212" y="256" on="1"/>
        <pt x="1217" y="224" on="0"/>
        <pt x="1234" y="170" on="0"/>
        <pt x="1262" y="131" on="0"/>
        <pt x="1305" y="109" on="0"/>
        <pt x="1337" y="109" on="1"/>
        <pt x="1374" y="109" on="1"/>
        <pt x="1352" y="0" on="1"/>
        <pt x="676" y="0" on="1"/>
        <pt x="698" y="109" on="1"/>
        <pt x="745" y="109" on="1"/>
        <pt x="812" y="109" on="0"/>
        <pt x="889" y="150" on="0"/>
      </contour>
    </TTGlyph>
    <TTGlyph name="Lcaron" xMin="-47" yMin="0" xMax="1417" yMax="1463">
      <component glyphName="L" x="0" y="0" flags="0x204"/>
      <component glyphName="glyph00568" x="643" y="-93" flags="0x4"/>
    </TTGlyph>
    <TTGlyph name="Lcommaaccent" xMin="-47" yMin="-453" xMax="1266" yMax="1462">
      <component glyphName="L" x="0" y="0" flags="0x204"/>
      <component glyphName="glyph00569" x="20" y="0" flags="0x4"/>
    </TTGlyph>
    <TTGlyph name="Ldot" xMin="-47" yMin="0" xMax="1282" yMax="1462">
      <component glyphName="L" x="0" y="0" flags="0x204"/>
      <component glyphName="dotaccent" x="608" y="-644" flags="0x4"/>
    </TTGlyph>
    <TTGlyph name="Lslash" xMin="-47" yMin="0" xMax="1266" yMax="1462">
      <contour>
        <pt x="834" y="125" on="1"/>
        <pt x="890" y="125" on="0"/>
        <pt x="972" y="153" on="0"/>
        <pt x="1033" y="208" on="0"/>
        <pt x="1079" y="292" on="0"/>
        <pt x="1098" y="348" on="1"/>
        <pt x="1135" y="457" on="1"/>
        <pt x="1266" y="457" on="1"/>
        <pt x="1153" y="0" on="1"/>
        <pt x="-47" y="0" on="1"/>
        <pt x="-25" y="109" on="1"/>
        <pt x="2" y="109" on="1"/>
        <pt x="34" y="109" on="0"/>
        <pt x="95" y="117" on="0"/>
        <pt x="145" y="143" on="0"/>
        <pt x="182" y="191" on="0"/>
        <pt x="190" y="231" on="1"/>
        <pt x="260" y="565" on="1"/>
        <pt x="72" y="469" on="1"/>
        <pt x="104" y="616" on="1"/>
        <pt x="293" y="713" on="1"/>
        <pt x="399" y="1214" on="1"/>
        <pt x="412" y="1267" on="0"/>
        <pt x="412" y="1284" on="1"/>
        <pt x="412" y="1306" on="0"/>
        <pt x="390" y="1334" on="0"/>
        <pt x="351" y="1349" on="0"/>
        <pt x="296" y="1354" on="0"/>
        <pt x="264" y="1354" on="1"/>
        <pt x="238" y="1354" on="1"/>
        <pt x="260" y="1462" on="1"/>
        <pt x="967" y="1462" on="1"/>
        <pt x="944" y="1354" on="1"/>
        <pt x="918" y="1354" on="1"/>
        <pt x="884" y="1354" on="0"/>
        <pt x="821" y="1345" on="0"/>
        <pt x="769" y="1319" on="0"/>
        <pt x="731" y="1269" on="0"/>
        <pt x="723" y="1229" on="1"/>
        <pt x="653" y="897" on="1"/>
        <pt x="993" y="1075" on="1"/>
        <pt x="961" y="924" on="1"/>
        <pt x="623" y="750" on="1"/>
        <pt x="492" y="125" on="1"/>
      </contour>
    </TTGlyph>
    <TTGlyph name="M" xMin="-47" yMin="0" xMax="2097" yMax="1462">
      <contour>
        <pt x="2097" y="1462" on="1"/>
        <pt x="2075" y="1354" on="1"/>
        <pt x="2048" y="1354" on="1"/>
        <pt x="2015" y="1354" on="0"/>
        <pt x="1953" y="1345" on="0"/>
        <pt x="1901" y="1319" on="0"/>
        <pt x="1864" y="1269" on="0"/>
        <pt x="1855" y="1229" on="1"/>
        <pt x="1645" y="225" on="1"/>
        <pt x="1641" y="214" on="0"/>
        <pt x="1636" y="186" on="0"/>
        <pt x="1636" y="178" on="1"/>
        <pt x="1636" y="156" on="0"/>
        <pt x="1658" y="129" on="0"/>
        <pt x="1697" y="114" on="0"/>
        <pt x="1752" y="109" on="0"/>
        <pt x="1784" y="109" on="1"/>
        <pt x="1810" y="109" on="1"/>
        <pt x="1788" y="0" on="1"/>
        <pt x="1090" y="0" on="1"/>
        <pt x="1112" y="109" on="1"/>
        <pt x="1139" y="109" on="1"/>
        <pt x="1172" y="109" on="0"/>
        <pt x="1234" y="117" on="0"/>
        <pt x="1285" y="144" on="0"/>
        <pt x="1323" y="192" on="0"/>
        <pt x="1331" y="233" on="1"/>
        <pt x="1548" y="1260" on="1"/>
        <pt x="870" y="0" on="1"/>
        <pt x="729" y="0" on="1"/>
        <pt x="563" y="1260" on="1"/>
        <pt x="346" y="242" on="1"/>
        <pt x="341" y="219" on="0"/>
        <pt x="336" y="186" on="0"/>
        <pt x="336" y="178" on="1"/>
        <pt x="336" y="156" on="0"/>
        <pt x="358" y="129" on="0"/>
        <pt x="398" y="114" on="0"/>
        <pt x="453" y="109" on="0"/>
        <pt x="485" y="109" on="1"/>
        <pt x="492" y="109" on="1"/>
        <pt x="469" y="0" on="1"/>
        <pt x="-47" y="0" on="1"/>
        <pt x="-25" y="109" on="1"/>
        <pt x="2" y="109" on="1"/>
        <pt x="34" y="109" on="0"/>
        <pt x="95" y="117" on="0"/>
        <pt x="145" y="143" on="0"/>
        <pt x="182" y="191" on="0"/>
        <pt x="190" y="231" on="1"/>
        <pt x="399" y="1214" on="1"/>
        <pt x="412" y="1267" on="0"/>
        <pt x="412" y="1284" on="1"/>
        <pt x="412" y="1306" on="0"/>
        <pt x="390" y="1334" on="0"/>
        <pt x="351" y="1349" on="0"/>
        <pt x="296" y="1354" on="0"/>
        <pt x="264" y="1354" on="1"/>
        <pt x="238" y="1354" on="1"/>
        <pt x="260" y="1462" on="1"/>
        <pt x="831" y="1462" on="1"/>
        <pt x="969" y="467" on="1"/>
        <pt x="1505" y="1462" on="1"/>
      </contour>
    </TTGlyph>
    <TTGlyph name="Mu" xMin="-47" yMin="0" xMax="2097" yMax="1462">
      <component glyphName="M" x="0" y="0" flags="0x204"/>
    </TTGlyph>
    <TTGlyph name="N" xMin="-47" yMin="0" xMax="1780" yMax="1462">
      <contour>
        <pt x="1094" y="0" on="1"/>
        <pt x="539" y="1159" on="1"/>
        <pt x="346" y="242" on="1"/>
        <pt x="341" y="219" on="0"/>
        <pt x="336" y="186" on="0"/>
        <pt x="336" y="178" on="1"/>
        <pt x="336" y="156" on="0"/>
        <pt x="358" y="129" on="0"/>
        <pt x="398" y="114" on="0"/>
        <pt x="453" y="109" on="0"/>
        <pt x="485" y="109" on="1"/>
        <pt x="492" y="109" on="1"/>
        <pt x="469" y="0" on="1"/>
        <pt x="-47" y="0" on="1"/>
        <pt x="-25" y="109" on="1"/>
        <pt x="2" y="109" on="1"/>
        <pt x="34" y="109" on="0"/>
        <pt x="95" y="117" on="0"/>
        <pt x="145" y="143" on="0"/>
        <pt x="182" y="191" on="0"/>
        <pt x="190" y="231" on="1"/>
        <pt x="399" y="1214" on="1"/>
        <pt x="412" y="1267" on="0"/>
        <pt x="412" y="1284" on="1"/>
        <pt x="412" y="1306" on="0"/>
        <pt x="390" y="1334" on="0"/>
        <pt x="351" y="1349" on="0"/>
        <pt x="296" y="1354" on="0"/>
        <pt x="264" y="1354" on="1"/>
        <pt x="238" y="1354" on="1"/>
        <pt x="260" y="1462" on="1"/>
        <pt x="715" y="1462" on="1"/>
        <pt x="1214" y="412" on="1"/>
        <pt x="1386" y="1221" on="1"/>
        <pt x="1397" y="1268" on="0"/>
        <pt x="1397" y="1284" on="1"/>
        <pt x="1397" y="1306" on="0"/>
        <pt x="1374" y="1334" on="0"/>
        <pt x="1334" y="1349" on="0"/>
        <pt x="1279" y="1354" on="0"/>
        <pt x="1247" y="1354" on="1"/>
        <pt x="1241" y="1354" on="1"/>
        <pt x="1264" y="1462" on="1"/>
        <pt x="1780" y="1462" on="1"/>
        <pt x="1757" y="1354" on="1"/>
        <pt x="1731" y="1354" on="1"/>
        <pt x="1699" y="1354" on="0"/>
        <pt x="1638" y="1345" on="0"/>
        <pt x="1588" y="1319" on="0"/>
        <pt x="1551" y="1271" on="0"/>
        <pt x="1542" y="1231" on="1"/>
        <pt x="1282" y="0" on="1"/>
      </contour>
    </TTGlyph>
    <TTGlyph name="Nacute" xMin="-47" yMin="0" xMax="1780" yMax="1907">
      <component glyphName="N" x="0" y="0" flags="0x204"/>
      <component glyphName="acute" x="440" y="338" flags="0x4"/>
    </TTGlyph>
    <TTGlyph name="Ncaron" xMin="-47" yMin="0" xMax="1780" yMax="1907">
      <component glyphName="N" x="0" y="0" flags="0x204"/>
      <component glyphName="caron" x="303" y="338" flags="0x4"/>
    </TTGlyph>
    <TTGlyph name="Ncommaaccent" xMin="-47" yMin="-453" xMax="1780" yMax="1462">
      <component glyphName="N" x="0" y="0" flags="0x204"/>
      <component glyphName="glyph00569" x="92" y="0" flags="0x4"/>
    </TTGlyph>
    <TTGlyph name="Ntilde" xMin="-47" yMin="0" xMax="1780" yMax="1903">
      <component glyphName="N" x="0" y="0" flags="0x204"/>
      <component glyphName="tilde" x="342" y="338" flags="0x4"/>
    </TTGlyph>
    <TTGlyph name="Nu" xMin="-47" yMin="0" xMax="1780" yMax="1462">
      <component glyphName="N" x="0" y="0" flags="0x204"/>
    </TTGlyph>
    <TTGlyph name="O" xMin="129" yMin="-23" xMax="1567" yMax="1485">
      <contour>
        <pt x="129" y="545" on="1"/>
        <pt x="129" y="643" on="0"/>
        <pt x="178" y="859" on="0"/>
        <pt x="276" y="1068" on="0"/>
        <pt x="422" y="1257" on="0"/>
        <pt x="615" y="1400" on="0"/>
        <pt x="857" y="1485" on="0"/>
        <pt x="1001" y="1485" on="1"/>
        <pt x="1114" y="1485" on="0"/>
        <pt x="1319" y="1419" on="0"/>
        <pt x="1475" y="1281" on="0"/>
        <pt x="1567" y="1069" on="0"/>
        <pt x="1567" y="922" on="1"/>
        <pt x="1567" y="828" on="0"/>
        <pt x="1520" y="614" on="0"/>
        <pt x="1425" y="404" on="0"/>
        <pt x="1282" y="212" on="0"/>
        <pt x="1089" y="65" on="0"/>
        <pt x="846" y="-23" on="0"/>
        <pt x="700" y="-23" on="1"/>
        <pt x="579" y="-23" on="0"/>
        <pt x="370" y="50" on="0"/>
        <pt x="217" y="194" on="0"/>
        <pt x="129" y="406" on="0"/>
      </contour>
      <contour>
        <pt x="463" y="496" on="1"/>
        <pt x="463" y="395" on="0"/>
        <pt x="506" y="250" on="0"/>
        <pt x="581" y="157" on="0"/>
        <pt x="683" y="113" on="0"/>
        <pt x="741" y="113" on="1"/>
        <pt x="826" y="113" on="0"/>
        <pt x="965" y="195" on="0"/>
        <pt x="1075" y="332" on="0"/>
        <pt x="1156" y="509" on="0"/>
        <pt x="1209" y="699" on="0"/>
        <pt x="1235" y="888" on="0"/>
        <pt x="1235" y="969" on="1"/>
        <pt x="1235" y="1069" on="0"/>
        <pt x="1193" y="1213" on="0"/>
        <pt x="1120" y="1307" on="0"/>
        <pt x="1018" y="1352" on="0"/>
        <pt x="958" y="1352" on="1"/>
        <pt x="873" y="1352" on="0"/>
        <pt x="734" y="1270" on="0"/>
        <pt x="624" y="1133" on="0"/>
        <pt x="542" y="956" on="0"/>
        <pt x="489" y="765" on="0"/>
        <pt x="463" y="576" on="0"/>
      </contour>
    </TTGlyph>
    <TTGlyph name="OE" xMin="129" yMin="-23" xMax="2105" yMax="1485">
      <contour>
        <pt x="1001" y="1485" on="1"/>
        <pt x="1048" y="1485" on="0"/>
        <pt x="1147" y="1473" on="0"/>
        <pt x="1190" y="1462" on="1"/>
        <pt x="2105" y="1462" on="1"/>
        <pt x="2034" y="1081" on="1"/>
        <pt x="1888" y="1081" on="1"/>
        <pt x="1889" y="1088" on="0"/>
        <pt x="1892" y="1124" on="0"/>
        <pt x="1895" y="1163" on="0"/>
        <pt x="1898" y="1196" on="0"/>
        <pt x="1898" y="1200" on="1"/>
        <pt x="1898" y="1228" on="0"/>
        <pt x="1883" y="1278" on="0"/>
        <pt x="1848" y="1316" on="0"/>
        <pt x="1793" y="1337" on="0"/>
        <pt x="1753" y="1337" on="1"/>
        <pt x="1481" y="1337" on="1"/>
        <pt x="1372" y="825" on="1"/>
        <pt x="1837" y="825" on="1"/>
        <pt x="1810" y="702" on="1"/>
        <pt x="1346" y="702" on="1"/>
        <pt x="1223" y="125" on="1"/>
        <pt x="1546" y="125" on="1"/>
        <pt x="1594" y="125" on="0"/>
        <pt x="1670" y="152" on="0"/>
        <pt x="1726" y="198" on="0"/>
        <pt x="1766" y="259" on="0"/>
        <pt x="1778" y="293" on="1"/>
        <pt x="1810" y="381" on="1"/>
        <pt x="1956" y="381" on="1"/>
        <pt x="1862" y="0" on="1"/>
        <pt x="893" y="0" on="1"/>
        <pt x="848" y="-11" on="0"/>
        <pt x="751" y="-23" on="0"/>
        <pt x="700" y="-23" on="1"/>
        <pt x="579" y="-23" on="0"/>
        <pt x="370" y="50" on="0"/>
        <pt x="217" y="194" on="0"/>
        <pt x="129" y="406" on="0"/>
        <pt x="129" y="545" on="1"/>
        <pt x="129" y="643" on="0"/>
        <pt x="178" y="859" on="0"/>
        <pt x="276" y="1068" on="0"/>
        <pt x="422" y="1257" on="0"/>
        <pt x="615" y="1400" on="0"/>
        <pt x="857" y="1485" on="0"/>
      </contour>
      <contour>
        <pt x="741" y="113" on="1"/>
        <pt x="786" y="113" on="0"/>
        <pt x="868" y="130" on="0"/>
        <pt x="905" y="150" on="1"/>
        <pt x="1149" y="1303" on="1"/>
        <pt x="1114" y="1324" on="0"/>
        <pt x="1014" y="1352" on="0"/>
        <pt x="958" y="1352" on="1"/>
        <pt x="873" y="1352" on="0"/>
        <pt x="734" y="1270" on="0"/>
        <pt x="624" y="1133" on="0"/>
        <pt x="542" y="956" on="0"/>
        <pt x="489" y="765" on="0"/>
        <pt x="463" y="576" on="0"/>
        <pt x="463" y="496" on="1"/>
        <pt x="463" y="395" on="0"/>
        <pt x="506" y="250" on="0"/>
        <pt x="581" y="157" on="0"/>
        <pt x="683" y="113" on="0"/>
      </contour>
    </TTGlyph>
    <TTGlyph name="Oacute" xMin="129" yMin="-23" xMax="1567" yMax="1907">
      <component glyphName="O" x="0" y="0" flags="0x204"/>
      <component glyphName="acute" x="377" y="338" flags="0x4"/>
    </TTGlyph>
    <TTGlyph name="Obreve" xMin="129" yMin="-23" xMax="1567" yMax="1901">
      <component glyphName="O" x="0" y="0" flags="0x204"/>
      <component glyphName="breve" x="420" y="338" flags="0x4"/>
    </TTGlyph>
    <TTGlyph name="Ocircumflex" xMin="129" yMin="-23" xMax="1567" yMax="1907">
      <component glyphName="O" x="0" y="0" flags="0x204"/>
      <component glyphName="circumflex" x="322" y="338" flags="0x4"/>
    </TTGlyph>
    <TTGlyph name="Odieresis" xMin="129" yMin="-23" xMax="1567" yMax="1868">
      <component glyphName="O" x="0" y="0" flags="0x204"/>
      <component glyphName="dieresis" x="326" y="338" flags="0x4"/>
    </TTGlyph>
    <TTGlyph name="Ograve" xMin="129" yMin="-23" xMax="1567" yMax="1907">
      <component glyphName="O" x="0" y="0" flags="0x204"/>
      <component glyphName="grave" x="152" y="338" flags="0x4"/>
    </TTGlyph>
    <TTGlyph name="Ohorn" xMin="129" yMin="-23" xMax="1907" yMax="1577">
      <contour>
        <pt x="1536" y="1133" on="1"/>
        <pt x="1694" y="1195" on="0"/>
        <pt x="1694" y="1276" on="1"/>
        <pt x="1694" y="1301" on="0"/>
        <pt x="1659" y="1348" on="1"/>
        <pt x="1622" y="1395" on="0"/>
        <pt x="1622" y="1442" on="1"/>
        <pt x="1622" y="1504" on="0"/>
        <pt x="1704" y="1577" on="0"/>
        <pt x="1769" y="1577" on="1"/>
        <pt x="1907" y="1577" on="0"/>
        <pt x="1907" y="1434" on="1"/>
        <pt x="1907" y="1174" on="0"/>
        <pt x="1556" y="1047" on="1"/>
        <pt x="1567" y="983" on="0"/>
        <pt x="1567" y="922" on="1"/>
        <pt x="1567" y="573" on="0"/>
        <pt x="1083" y="-23" on="0"/>
        <pt x="700" y="-23" on="1"/>
        <pt x="442" y="-23" on="0"/>
        <pt x="129" y="284" on="0"/>
        <pt x="129" y="545" on="1"/>
        <pt x="129" y="896" on="0"/>
        <pt x="618" y="1485" on="0"/>
        <pt x="1001" y="1485" on="1"/>
        <pt x="1198" y="1485" on="0"/>
        <pt x="1482" y="1301" on="0"/>
      </contour>
      <contour>
        <pt x="741" y="113" on="1"/>
        <pt x="958" y="113" on="0"/>
        <pt x="1235" y="657" on="0"/>
        <pt x="1235" y="969" on="1"/>
        <pt x="1235" y="1152" on="0"/>
        <pt x="1090" y="1352" on="0"/>
        <pt x="958" y="1352" on="1"/>
        <pt x="741" y="1352" on="0"/>
        <pt x="463" y="809" on="0"/>
        <pt x="463" y="496" on="1"/>
        <pt x="463" y="310" on="0"/>
        <pt x="612" y="113" on="0"/>
      </contour>
    </TTGlyph>
    <TTGlyph name="Ohungarumlaut" xMin="129" yMin="-23" xMax="1592" yMax="1907">
      <component glyphName="O" x="0" y="0" flags="0x204"/>
      <component glyphName="hungarumlaut" x="545" y="338" flags="0x4"/>
    </TTGlyph>
    <TTGlyph name="Omacron" xMin="129" yMin="-23" xMax="1567" yMax="1741">
      <component glyphName="O" x="0" y="0" flags="0x204"/>
      <component glyphName="uni02C9" x="334" y="338" flags="0x4"/>
    </TTGlyph>
    <TTGlyph name="Omega" xMin="12" yMin="0" xMax="1610" yMax="1485">
      <contour>
        <pt x="786" y="0" on="1"/>
        <pt x="907" y="494" on="1"/>
        <pt x="1043" y="511" on="0"/>
        <pt x="1219" y="710" on="0"/>
        <pt x="1253" y="897" on="1"/>
        <pt x="1261" y="937" on="0"/>
        <pt x="1270" y="1002" on="0"/>
        <pt x="1270" y="1036" on="1"/>
        <pt x="1270" y="1107" on="0"/>
        <pt x="1235" y="1223" on="0"/>
        <pt x="1161" y="1306" on="0"/>
        <pt x="1049" y="1352" on="0"/>
        <pt x="971" y="1352" on="1"/>
        <pt x="807" y="1352" on="0"/>
        <pt x="602" y="1151" on="0"/>
        <pt x="561" y="942" on="1"/>
        <pt x="553" y="900" on="0"/>
        <pt x="545" y="821" on="0"/>
        <pt x="545" y="768" on="1"/>
        <pt x="545" y="715" on="0"/>
        <pt x="570" y="623" on="0"/>
        <pt x="618" y="551" on="0"/>
        <pt x="687" y="503" on="0"/>
        <pt x="731" y="494" on="1"/>
        <pt x="639" y="0" on="1"/>
        <pt x="12" y="0" on="1"/>
        <pt x="45" y="410" on="1"/>
        <pt x="156" y="410" on="1"/>
        <pt x="160" y="346" on="1"/>
        <pt x="162" y="312" on="0"/>
        <pt x="179" y="263" on="0"/>
        <pt x="221" y="231" on="0"/>
        <pt x="293" y="215" on="0"/>
        <pt x="350" y="215" on="1"/>
        <pt x="559" y="215" on="1"/>
        <pt x="590" y="393" on="1"/>
        <pt x="498" y="411" on="0"/>
        <pt x="352" y="489" on="0"/>
        <pt x="252" y="603" on="0"/>
        <pt x="199" y="747" on="0"/>
        <pt x="199" y="831" on="1"/>
        <pt x="199" y="862" on="0"/>
        <pt x="206" y="929" on="0"/>
        <pt x="215" y="963" on="1"/>
        <pt x="242" y="1073" on="0"/>
        <pt x="368" y="1264" on="0"/>
        <pt x="567" y="1405" on="0"/>
        <pt x="842" y="1485" on="0"/>
        <pt x="1018" y="1485" on="1"/>
        <pt x="1156" y="1485" on="0"/>
        <pt x="1375" y="1423" on="0"/>
        <pt x="1528" y="1307" on="0"/>
        <pt x="1610" y="1141" on="0"/>
        <pt x="1610" y="1036" on="1"/>
        <pt x="1610" y="1004" on="0"/>
        <pt x="1601" y="916" on="0"/>
        <pt x="1591" y="881" on="1"/>
        <pt x="1566" y="776" on="0"/>
        <pt x="1461" y="611" on="0"/>
        <pt x="1311" y="489" on="0"/>
        <pt x="1120" y="409" on="0"/>
        <pt x="1008" y="391" on="1"/>
        <pt x="961" y="219" on="1"/>
        <pt x="1159" y="219" on="1"/>
        <pt x="1210" y="219" on="0"/>
        <pt x="1284" y="233" on="0"/>
        <pt x="1338" y="264" on="0"/>
        <pt x="1376" y="312" on="0"/>
        <pt x="1391" y="346" on="1"/>
        <pt x="1421" y="414" on="1"/>
        <pt x="1530" y="414" on="1"/>
        <pt x="1446" y="0" on="1"/>
      </contour>
    </TTGlyph>
    <TTGlyph name="Omegatonos" xMin="-31" yMin="0" xMax="1706" yMax="1485">
      <component glyphName="Omega" x="96" y="0" flags="0x4"/>
      <component glyphName="tonos" x="-465" y="-168" flags="0x4"/>
    </TTGlyph>
    <TTGlyph name="Omicron" xMin="129" yMin="-23" xMax="1567" yMax="1485">
      <component glyphName="O" x="0" y="0" flags="0x204"/>
    </TTGlyph>
    <TTGlyph name="Omicrontonos" xMin="-31" yMin="-23" xMax="1594" yMax="1485">
      <component glyphName="O" x="27" y="0" flags="0x4"/>
      <component glyphName="tonos" x="-465" y="-168" flags="0x4"/>
    </TTGlyph>
    <TTGlyph name="Oslash" xMin="129" yMin="-82" xMax="1567" yMax="1546">
      <contour>
        <pt x="129" y="545" on="1"/>
        <pt x="129" y="643" on="0"/>
        <pt x="178" y="859" on="0"/>
        <pt x="276" y="1068" on="0"/>
        <pt x="422" y="1257" on="0"/>
        <pt x="615" y="1400" on="0"/>
        <pt x="857" y="1485" on="0"/>
        <pt x="1001" y="1485" on="1"/>
        <pt x="1163" y="1485" on="0"/>
        <pt x="1296" y="1417" on="1"/>
        <pt x="1393" y="1546" on="1"/>
        <pt x="1536" y="1546" on="1"/>
        <pt x="1391" y="1354" on="1"/>
        <pt x="1471" y="1285" on="0"/>
        <pt x="1567" y="1071" on="0"/>
        <pt x="1567" y="922" on="1"/>
        <pt x="1567" y="828" on="0"/>
        <pt x="1520" y="614" on="0"/>
        <pt x="1425" y="404" on="0"/>
        <pt x="1282" y="212" on="0"/>
        <pt x="1089" y="65" on="0"/>
        <pt x="846" y="-23" on="0"/>
        <pt x="700" y="-23" on="1"/>
        <pt x="619" y="-23" on="0"/>
        <pt x="473" y="11" on="0"/>
        <pt x="408" y="43" on="1"/>
        <pt x="315" y="-82" on="1"/>
        <pt x="170" y="-82" on="1"/>
        <pt x="313" y="104" on="1"/>
        <pt x="227" y="177" on="0"/>
        <pt x="129" y="396" on="0"/>
      </contour>
      <contour>
        <pt x="463" y="496" on="1"/>
        <pt x="463" y="400" on="0"/>
        <pt x="481" y="330" on="1"/>
        <pt x="1167" y="1245" on="1"/>
        <pt x="1130" y="1299" on="0"/>
        <pt x="1023" y="1352" on="0"/>
        <pt x="958" y="1352" on="1"/>
        <pt x="873" y="1352" on="0"/>
        <pt x="734" y="1270" on="0"/>
        <pt x="624" y="1133" on="0"/>
        <pt x="542" y="956" on="0"/>
        <pt x="489" y="765" on="0"/>
        <pt x="463" y="576" on="0"/>
      </contour>
      <contour>
        <pt x="1235" y="969" on="1"/>
        <pt x="1235" y="1012" on="0"/>
        <pt x="1227" y="1090" on="0"/>
        <pt x="1219" y="1122" on="1"/>
        <pt x="537" y="213" on="1"/>
        <pt x="574" y="160" on="0"/>
        <pt x="679" y="113" on="0"/>
        <pt x="741" y="113" on="1"/>
        <pt x="826" y="113" on="0"/>
        <pt x="965" y="195" on="0"/>
        <pt x="1075" y="332" on="0"/>
        <pt x="1156" y="509" on="0"/>
        <pt x="1209" y="699" on="0"/>
        <pt x="1235" y="888" on="0"/>
      </contour>
    </TTGlyph>
    <TTGlyph name="Oslashacute" xMin="129" yMin="-82" xMax="1567" yMax="1907">
      <component glyphName="Oslash" x="0" y="0" flags="0x204"/>
      <component glyphName="acute" x="377" y="338" flags="0x4"/>
    </TTGlyph>
    <TTGlyph name="Otilde" xMin="129" yMin="-23" xMax="1567" yMax="1903">
      <component glyphName="O" x="0" y="0" flags="0x204"/>
      <component glyphName="tilde" x="279" y="338" flags="0x4"/>
    </TTGlyph>
    <TTGlyph name="P" xMin="-47" yMin="0" xMax="1368" yMax="1462">
      <contour>
        <pt x="610" y="678" on="1"/>
        <pt x="696" y="678" on="1"/>
        <pt x="789" y="678" on="0"/>
        <pt x="918" y="734" on="0"/>
        <pt x="998" y="835" on="0"/>
        <pt x="1034" y="974" on="0"/>
        <pt x="1034" y="1057" on="1"/>
        <pt x="1034" y="1134" on="0"/>
        <pt x="999" y="1242" on="0"/>
        <pt x="937" y="1310" on="0"/>
        <pt x="850" y="1341" on="0"/>
        <pt x="799" y="1341" on="1"/>
        <pt x="754" y="1341" on="1"/>
      </contour>
      <contour>
        <pt x="512" y="225" on="1"/>
        <pt x="509" y="214" on="0"/>
        <pt x="504" y="186" on="0"/>
        <pt x="504" y="178" on="1"/>
        <pt x="504" y="156" on="0"/>
        <pt x="526" y="129" on="0"/>
        <pt x="566" y="114" on="0"/>
        <pt x="621" y="109" on="0"/>
        <pt x="653" y="109" on="1"/>
        <pt x="721" y="109" on="1"/>
        <pt x="698" y="0" on="1"/>
        <pt x="-47" y="0" on="1"/>
        <pt x="-25" y="109" on="1"/>
        <pt x="2" y="109" on="1"/>
        <pt x="34" y="109" on="0"/>
        <pt x="95" y="117" on="0"/>
        <pt x="145" y="143" on="0"/>
        <pt x="182" y="191" on="0"/>
        <pt x="190" y="231" on="1"/>
        <pt x="399" y="1214" on="1"/>
        <pt x="412" y="1267" on="0"/>
        <pt x="412" y="1284" on="1"/>
        <pt x="412" y="1306" on="0"/>
        <pt x="390" y="1334" on="0"/>
        <pt x="351" y="1349" on="0"/>
        <pt x="296" y="1354" on="0"/>
        <pt x="264" y="1354" on="1"/>
        <pt x="238" y="1354" on="1"/>
        <pt x="260" y="1462" on="1"/>
        <pt x="846" y="1462" on="1"/>
        <pt x="966" y="1462" on="0"/>
        <pt x="1160" y="1411" on="0"/>
        <pt x="1295" y="1310" on="0"/>
        <pt x="1368" y="1161" on="0"/>
        <pt x="1368" y="1063" on="1"/>
        <pt x="1368" y="1011" on="0"/>
        <pt x="1348" y="895" on="0"/>
        <pt x="1297" y="783" on="0"/>
        <pt x="1207" y="682" on="0"/>
        <pt x="1068" y="605" on="0"/>
        <pt x="873" y="559" on="0"/>
        <pt x="741" y="559" on="1"/>
        <pt x="586" y="559" on="1"/>
      </contour>
    </TTGlyph>
    <TTGlyph name="Phi" xMin="94" yMin="0" xMax="1720" yMax="1462">
      <contour>
        <pt x="408" y="0" on="1"/>
        <pt x="430" y="109" on="1"/>
        <pt x="457" y="109" on="1"/>
        <pt x="489" y="109" on="0"/>
        <pt x="551" y="115" on="0"/>
        <pt x="603" y="139" on="0"/>
        <pt x="641" y="185" on="0"/>
        <pt x="649" y="225" on="1"/>
        <pt x="664" y="295" on="1"/>
        <pt x="616" y="295" on="1"/>
        <pt x="496" y="295" on="0"/>
        <pt x="302" y="346" on="0"/>
        <pt x="167" y="446" on="0"/>
        <pt x="94" y="596" on="0"/>
        <pt x="94" y="694" on="1"/>
        <pt x="94" y="746" on="0"/>
        <pt x="117" y="862" on="0"/>
        <pt x="173" y="974" on="0"/>
        <pt x="268" y="1075" on="0"/>
        <pt x="411" y="1152" on="0"/>
        <pt x="609" y="1198" on="0"/>
        <pt x="741" y="1198" on="1"/>
        <pt x="854" y="1198" on="1"/>
        <pt x="862" y="1231" on="1"/>
        <pt x="865" y="1242" on="0"/>
        <pt x="870" y="1276" on="0"/>
        <pt x="870" y="1284" on="1"/>
        <pt x="870" y="1306" on="0"/>
        <pt x="848" y="1334" on="0"/>
        <pt x="809" y="1349" on="0"/>
        <pt x="755" y="1354" on="0"/>
        <pt x="723" y="1354" on="1"/>
        <pt x="696" y="1354" on="1"/>
        <pt x="719" y="1462" on="1"/>
        <pt x="1401" y="1462" on="1"/>
        <pt x="1378" y="1354" on="1"/>
        <pt x="1352" y="1354" on="1"/>
        <pt x="1318" y="1354" on="0"/>
        <pt x="1255" y="1345" on="0"/>
        <pt x="1203" y="1319" on="0"/>
        <pt x="1166" y="1269" on="0"/>
        <pt x="1157" y="1229" on="1"/>
        <pt x="1151" y="1198" on="1"/>
        <pt x="1198" y="1198" on="1"/>
        <pt x="1319" y="1198" on="0"/>
        <pt x="1512" y="1147" on="0"/>
        <pt x="1647" y="1046" on="0"/>
        <pt x="1720" y="897" on="0"/>
        <pt x="1720" y="799" on="1"/>
        <pt x="1720" y="747" on="0"/>
        <pt x="1697" y="631" on="0"/>
        <pt x="1641" y="519" on="0"/>
        <pt x="1546" y="418" on="0"/>
        <pt x="1403" y="341" on="0"/>
        <pt x="1204" y="295" on="0"/>
        <pt x="1073" y="295" on="1"/>
        <pt x="961" y="295" on="1"/>
        <pt x="946" y="225" on="1"/>
        <pt x="944" y="214" on="0"/>
        <pt x="938" y="186" on="0"/>
        <pt x="938" y="178" on="1"/>
        <pt x="938" y="156" on="0"/>
        <pt x="960" y="129" on="0"/>
        <pt x="1000" y="114" on="0"/>
        <pt x="1055" y="109" on="0"/>
        <pt x="1087" y="109" on="1"/>
        <pt x="1114" y="109" on="1"/>
        <pt x="1092" y="0" on="1"/>
      </contour>
      <contour>
        <pt x="985" y="414" on="1"/>
        <pt x="1028" y="414" on="1"/>
        <pt x="1121" y="414" on="0"/>
        <pt x="1260" y="470" on="0"/>
        <pt x="1351" y="570" on="0"/>
        <pt x="1397" y="710" on="0"/>
        <pt x="1397" y="793" on="1"/>
        <pt x="1397" y="869" on="0"/>
        <pt x="1359" y="977" on="0"/>
        <pt x="1292" y="1046" on="0"/>
        <pt x="1202" y="1077" on="0"/>
        <pt x="1151" y="1077" on="1"/>
        <pt x="1126" y="1077" on="1"/>
      </contour>
      <contour>
        <pt x="829" y="1079" on="1"/>
        <pt x="786" y="1079" on="1"/>
        <pt x="693" y="1079" on="0"/>
        <pt x="555" y="1023" on="0"/>
        <pt x="464" y="922" on="0"/>
        <pt x="418" y="783" on="0"/>
        <pt x="418" y="700" on="1"/>
        <pt x="418" y="623" on="0"/>
        <pt x="456" y="516" on="0"/>
        <pt x="522" y="447" on="0"/>
        <pt x="612" y="416" on="0"/>
        <pt x="664" y="416" on="1"/>
        <pt x="688" y="416" on="1"/>
      </contour>
    </TTGlyph>
    <TTGlyph name="Pi" xMin="-47" yMin="0" xMax="1802" yMax="1462">
      <contour>
        <pt x="1802" y="1462" on="1"/>
        <pt x="1780" y="1354" on="1"/>
        <pt x="1753" y="1354" on="1"/>
        <pt x="1720" y="1354" on="0"/>
        <pt x="1658" y="1345" on="0"/>
        <pt x="1607" y="1319" on="0"/>
        <pt x="1569" y="1269" on="0"/>
        <pt x="1561" y="1229" on="1"/>
        <pt x="1350" y="225" on="1"/>
        <pt x="1347" y="214" on="0"/>
        <pt x="1341" y="186" on="0"/>
        <pt x="1341" y="178" on="1"/>
        <pt x="1341" y="156" on="0"/>
        <pt x="1363" y="129" on="0"/>
        <pt x="1402" y="114" on="0"/>
        <pt x="1457" y="109" on="0"/>
        <pt x="1489" y="109" on="1"/>
        <pt x="1516" y="109" on="1"/>
        <pt x="1493" y="0" on="1"/>
        <pt x="786" y="0" on="1"/>
        <pt x="809" y="109" on="1"/>
        <pt x="836" y="109" on="1"/>
        <pt x="869" y="109" on="0"/>
        <pt x="931" y="117" on="0"/>
        <pt x="982" y="144" on="0"/>
        <pt x="1020" y="192" on="0"/>
        <pt x="1028" y="233" on="1"/>
        <pt x="1264" y="1337" on="1"/>
        <pt x="750" y="1337" on="1"/>
        <pt x="512" y="225" on="1"/>
        <pt x="509" y="214" on="0"/>
        <pt x="504" y="186" on="0"/>
        <pt x="504" y="178" on="1"/>
        <pt x="504" y="156" on="0"/>
        <pt x="526" y="129" on="0"/>
        <pt x="566" y="114" on="0"/>
        <pt x="621" y="109" on="0"/>
        <pt x="653" y="109" on="1"/>
        <pt x="680" y="109" on="1"/>
        <pt x="657" y="0" on="1"/>
        <pt x="-47" y="0" on="1"/>
        <pt x="-25" y="109" on="1"/>
        <pt x="2" y="109" on="1"/>
        <pt x="34" y="109" on="0"/>
        <pt x="95" y="117" on="0"/>
        <pt x="145" y="143" on="0"/>
        <pt x="182" y="191" on="0"/>
        <pt x="190" y="231" on="1"/>
        <pt x="399" y="1214" on="1"/>
        <pt x="412" y="1267" on="0"/>
        <pt x="412" y="1284" on="1"/>
        <pt x="412" y="1306" on="0"/>
        <pt x="390" y="1334" on="0"/>
        <pt x="351" y="1349" on="0"/>
        <pt x="296" y="1354" on="0"/>
        <pt x="264" y="1354" on="1"/>
        <pt x="238" y="1354" on="1"/>
        <pt x="260" y="1462" on="1"/>
      </contour>
    </TTGlyph>
    <TTGlyph name="Psi" xMin="223" yMin="0" xMax="2150" yMax="1462">
      <contour>
        <pt x="293" y="811" on="1"/>
        <pt x="293" y="835" on="0"/>
        <pt x="298" y="890" on="0"/>
        <pt x="306" y="947" on="0"/>
        <pt x="316" y="1001" on="0"/>
        <pt x="322" y="1024" on="1"/>
        <pt x="369" y="1233" on="1"/>
        <pt x="372" y="1244" on="0"/>
        <pt x="377" y="1278" on="0"/>
        <pt x="377" y="1286" on="1"/>
        <pt x="377" y="1331" on="0"/>
        <pt x="314" y="1354" on="0"/>
        <pt x="250" y="1354" on="1"/>
        <pt x="223" y="1354" on="1"/>
        <pt x="246" y="1462" on="1"/>
        <pt x="713" y="1462" on="1"/>
        <pt x="614" y="995" on="1"/>
        <pt x="603" y="943" on="0"/>
        <pt x="588" y="838" on="0"/>
        <pt x="588" y="801" on="1"/>
        <pt x="588" y="751" on="0"/>
        <pt x="613" y="678" on="0"/>
        <pt x="669" y="630" on="0"/>
        <pt x="758" y="606" on="0"/>
        <pt x="823" y="606" on="1"/>
        <pt x="868" y="606" on="1"/>
        <pt x="1001" y="1231" on="1"/>
        <pt x="1005" y="1242" on="0"/>
        <pt x="1010" y="1276" on="0"/>
        <pt x="1010" y="1284" on="1"/>
        <pt x="1010" y="1306" on="0"/>
        <pt x="988" y="1334" on="0"/>
        <pt x="949" y="1349" on="0"/>
        <pt x="894" y="1354" on="0"/>
        <pt x="862" y="1354" on="1"/>
        <pt x="836" y="1354" on="1"/>
        <pt x="858" y="1462" on="1"/>
        <pt x="1540" y="1462" on="1"/>
        <pt x="1518" y="1354" on="1"/>
        <pt x="1491" y="1354" on="1"/>
        <pt x="1457" y="1354" on="0"/>
        <pt x="1394" y="1345" on="0"/>
        <pt x="1342" y="1319" on="0"/>
        <pt x="1305" y="1269" on="0"/>
        <pt x="1296" y="1229" on="1"/>
        <pt x="1167" y="606" on="1"/>
        <pt x="1212" y="606" on="1"/>
        <pt x="1300" y="606" on="0"/>
        <pt x="1422" y="649" on="0"/>
        <pt x="1506" y="741" on="0"/>
        <pt x="1560" y="881" on="0"/>
        <pt x="1581" y="979" on="1"/>
        <pt x="1683" y="1462" on="1"/>
        <pt x="2150" y="1462" on="1"/>
        <pt x="2128" y="1354" on="1"/>
        <pt x="2093" y="1354" on="0"/>
        <pt x="2031" y="1344" on="0"/>
        <pt x="1979" y="1313" on="0"/>
        <pt x="1940" y="1254" on="0"/>
        <pt x="1929" y="1206" on="1"/>
        <pt x="1874" y="952" on="1"/>
        <pt x="1861" y="891" on="0"/>
        <pt x="1818" y="775" on="0"/>
        <pt x="1749" y="672" on="0"/>
        <pt x="1651" y="585" on="0"/>
        <pt x="1514" y="522" on="0"/>
        <pt x="1334" y="487" on="0"/>
        <pt x="1219" y="487" on="1"/>
        <pt x="1141" y="487" on="1"/>
        <pt x="1090" y="250" on="1"/>
        <pt x="1077" y="194" on="0"/>
        <pt x="1077" y="178" on="1"/>
        <pt x="1077" y="156" on="0"/>
        <pt x="1100" y="129" on="0"/>
        <pt x="1140" y="114" on="0"/>
        <pt x="1195" y="109" on="0"/>
        <pt x="1227" y="109" on="1"/>
        <pt x="1253" y="109" on="1"/>
        <pt x="1231" y="0" on="1"/>
        <pt x="547" y="0" on="1"/>
        <pt x="569" y="109" on="1"/>
        <pt x="596" y="109" on="1"/>
        <pt x="628" y="109" on="0"/>
        <pt x="691" y="115" on="0"/>
        <pt x="743" y="139" on="0"/>
        <pt x="780" y="185" on="0"/>
        <pt x="788" y="225" on="1"/>
        <pt x="842" y="487" on="1"/>
        <pt x="764" y="487" on="1"/>
        <pt x="626" y="487" on="0"/>
        <pt x="444" y="537" on="0"/>
        <pt x="336" y="624" on="0"/>
        <pt x="293" y="743" on="0"/>
      </contour>
    </TTGlyph>
    <TTGlyph name="Q" xMin="127" yMin="-492" xMax="1565" yMax="1485">
      <contour>
        <pt x="127" y="545" on="1"/>
        <pt x="127" y="643" on="0"/>
        <pt x="176" y="859" on="0"/>
        <pt x="274" y="1068" on="0"/>
        <pt x="420" y="1257" on="0"/>
        <pt x="613" y="1400" on="0"/>
        <pt x="855" y="1485" on="0"/>
        <pt x="999" y="1485" on="1"/>
        <pt x="1112" y="1485" on="0"/>
        <pt x="1317" y="1419" on="0"/>
        <pt x="1473" y="1281" on="0"/>
        <pt x="1565" y="1069" on="0"/>
        <pt x="1565" y="922" on="1"/>
        <pt x="1565" y="838" on="0"/>
        <pt x="1528" y="652" on="0"/>
        <pt x="1455" y="465" on="0"/>
        <pt x="1343" y="288" on="0"/>
        <pt x="1194" y="139" on="0"/>
        <pt x="1006" y="27" on="0"/>
        <pt x="893" y="0" on="1"/>
        <pt x="896" y="-113" on="0"/>
        <pt x="932" y="-258" on="0"/>
        <pt x="994" y="-341" on="0"/>
        <pt x="1077" y="-373" on="0"/>
        <pt x="1128" y="-373" on="1"/>
        <pt x="1161" y="-373" on="1"/>
        <pt x="1135" y="-492" on="1"/>
        <pt x="987" y="-492" on="1"/>
        <pt x="895" y="-492" on="0"/>
        <pt x="737" y="-437" on="0"/>
        <pt x="620" y="-320" on="0"/>
        <pt x="552" y="-136" on="0"/>
        <pt x="549" y="-6" on="1"/>
        <pt x="456" y="13" on="0"/>
        <pt x="301" y="102" on="0"/>
        <pt x="189" y="241" on="0"/>
        <pt x="127" y="428" on="0"/>
      </contour>
      <contour>
        <pt x="461" y="496" on="1"/>
        <pt x="461" y="395" on="0"/>
        <pt x="504" y="250" on="0"/>
        <pt x="579" y="157" on="0"/>
        <pt x="681" y="113" on="0"/>
        <pt x="739" y="113" on="1"/>
        <pt x="824" y="113" on="0"/>
        <pt x="963" y="195" on="0"/>
        <pt x="1073" y="332" on="0"/>
        <pt x="1154" y="509" on="0"/>
        <pt x="1207" y="699" on="0"/>
        <pt x="1233" y="888" on="0"/>
        <pt x="1233" y="969" on="1"/>
        <pt x="1233" y="1069" on="0"/>
        <pt x="1191" y="1213" on="0"/>
        <pt x="1118" y="1307" on="0"/>
        <pt x="1016" y="1352" on="0"/>
        <pt x="956" y="1352" on="1"/>
        <pt x="871" y="1352" on="0"/>
        <pt x="732" y="1270" on="0"/>
        <pt x="622" y="1133" on="0"/>
        <pt x="540" y="956" on="0"/>
        <pt x="487" y="765" on="0"/>
        <pt x="461" y="576" on="0"/>
      </contour>
      <contour>
        <pt x="700" y="-23" on="1"/>
      </contour>
    </TTGlyph>
    <TTGlyph name="R" xMin="-47" yMin="0" xMax="1405" yMax="1462">
      <contour>
        <pt x="621" y="754" on="1"/>
        <pt x="748" y="754" on="1"/>
        <pt x="813" y="754" on="0"/>
        <pt x="926" y="792" on="0"/>
        <pt x="1009" y="873" on="0"/>
        <pt x="1057" y="1002" on="0"/>
        <pt x="1057" y="1094" on="1"/>
        <pt x="1057" y="1163" on="0"/>
        <pt x="1033" y="1257" on="0"/>
        <pt x="983" y="1316" on="0"/>
        <pt x="907" y="1341" on="0"/>
        <pt x="856" y="1341" on="1"/>
        <pt x="752" y="1341" on="1"/>
      </contour>
      <contour>
        <pt x="918" y="1462" on="1"/>
        <pt x="1163" y="1462" on="0"/>
        <pt x="1405" y="1292" on="0"/>
        <pt x="1405" y="1120" on="1"/>
        <pt x="1405" y="1016" on="0"/>
        <pt x="1338" y="870" on="0"/>
        <pt x="1233" y="771" on="0"/>
        <pt x="1103" y="713" on="0"/>
        <pt x="1040" y="698" on="1"/>
        <pt x="1182" y="317" on="1"/>
        <pt x="1203" y="259" on="0"/>
        <pt x="1243" y="179" on="0"/>
        <pt x="1288" y="130" on="0"/>
        <pt x="1341" y="109" on="0"/>
        <pt x="1376" y="109" on="1"/>
        <pt x="1384" y="109" on="1"/>
        <pt x="1362" y="0" on="1"/>
        <pt x="1341" y="0" on="1"/>
        <pt x="1234" y="0" on="0"/>
        <pt x="1077" y="18" on="0"/>
        <pt x="965" y="69" on="0"/>
        <pt x="891" y="160" on="0"/>
        <pt x="868" y="233" on="1"/>
        <pt x="739" y="635" on="1"/>
        <pt x="598" y="635" on="1"/>
        <pt x="518" y="260" on="1"/>
        <pt x="510" y="223" on="0"/>
        <pt x="504" y="186" on="0"/>
        <pt x="504" y="178" on="1"/>
        <pt x="504" y="156" on="0"/>
        <pt x="526" y="129" on="0"/>
        <pt x="566" y="114" on="0"/>
        <pt x="621" y="109" on="0"/>
        <pt x="653" y="109" on="1"/>
        <pt x="721" y="109" on="1"/>
        <pt x="698" y="0" on="1"/>
        <pt x="-47" y="0" on="1"/>
        <pt x="-25" y="109" on="1"/>
        <pt x="2" y="109" on="1"/>
        <pt x="34" y="109" on="0"/>
        <pt x="95" y="117" on="0"/>
        <pt x="145" y="143" on="0"/>
        <pt x="182" y="191" on="0"/>
        <pt x="190" y="231" on="1"/>
        <pt x="399" y="1214" on="1"/>
        <pt x="412" y="1267" on="0"/>
        <pt x="412" y="1284" on="1"/>
        <pt x="412" y="1306" on="0"/>
        <pt x="390" y="1334" on="0"/>
        <pt x="351" y="1349" on="0"/>
        <pt x="296" y="1354" on="0"/>
        <pt x="264" y="1354" on="1"/>
        <pt x="238" y="1354" on="1"/>
        <pt x="260" y="1462" on="1"/>
      </contour>
    </TTGlyph>
    <TTGlyph name="Racute" xMin="-47" yMin="0" xMax="1405" yMax="1907">
      <component glyphName="R" x="0" y="0" flags="0x204"/>
      <component glyphName="acute" x="256" y="338" flags="0x4"/>
    </TTGlyph>
    <TTGlyph name="Rcaron" xMin="-47" yMin="0" xMax="1405" yMax="1907">
      <component glyphName="R" x="0" y="0" flags="0x204"/>
      <component glyphName="caron" x="131" y="338" flags="0x4"/>
    </TTGlyph>
    <TTGlyph name="Rcommaaccent" xMin="-47" yMin="-453" xMax="1405" yMax="1462">
      <component glyphName="R" x="0" y="0" flags="0x204"/>
      <component glyphName="glyph00569" x="84" y="0" flags="0x4"/>
    </TTGlyph>
    <TTGlyph name="Rho" xMin="-47" yMin="0" xMax="1368" yMax="1462">
      <component glyphName="P" x="0" y="0" flags="0x204"/>
    </TTGlyph>
    <TTGlyph name="S" xMin="29" yMin="-20" xMax="1219" yMax="1483">
      <contour>
        <pt x="535" y="-20" on="1"/>
        <pt x="408" y="-20" on="0"/>
        <pt x="218" y="26" on="0"/>
        <pt x="92" y="106" on="0"/>
        <pt x="29" y="215" on="0"/>
        <pt x="29" y="279" on="1"/>
        <pt x="29" y="327" on="0"/>
        <pt x="68" y="399" on="0"/>
        <pt x="139" y="447" on="0"/>
        <pt x="236" y="471" on="0"/>
        <pt x="295" y="471" on="1"/>
        <pt x="295" y="377" on="0"/>
        <pt x="335" y="239" on="0"/>
        <pt x="407" y="148" on="0"/>
        <pt x="507" y="104" on="0"/>
        <pt x="567" y="104" on="1"/>
        <pt x="625" y="104" on="0"/>
        <pt x="715" y="137" on="0"/>
        <pt x="778" y="194" on="0"/>
        <pt x="811" y="271" on="0"/>
        <pt x="811" y="315" on="1"/>
        <pt x="811" y="358" on="0"/>
        <pt x="790" y="430" on="0"/>
        <pt x="734" y="498" on="0"/>
        <pt x="636" y="568" on="0"/>
        <pt x="559" y="610" on="1"/>
        <pt x="479" y="654" on="0"/>
        <pt x="358" y="747" on="0"/>
        <pt x="277" y="855" on="0"/>
        <pt x="236" y="984" on="0"/>
        <pt x="236" y="1065" on="1"/>
        <pt x="236" y="1157" on="0"/>
        <pt x="310" y="1311" on="0"/>
        <pt x="448" y="1422" on="0"/>
        <pt x="644" y="1483" on="0"/>
        <pt x="766" y="1483" on="1"/>
        <pt x="880" y="1483" on="0"/>
        <pt x="1050" y="1447" on="0"/>
        <pt x="1163" y="1385" on="0"/>
        <pt x="1219" y="1301" on="0"/>
        <pt x="1219" y="1253" on="1"/>
        <pt x="1219" y="1170" on="0"/>
        <pt x="1093" y="1075" on="0"/>
        <pt x="950" y="1075" on="1"/>
        <pt x="950" y="1121" on="0"/>
        <pt x="932" y="1221" on="0"/>
        <pt x="886" y="1304" on="0"/>
        <pt x="808" y="1358" on="0"/>
        <pt x="748" y="1358" on="1"/>
        <pt x="707" y="1358" on="0"/>
        <pt x="626" y="1332" on="0"/>
        <pt x="562" y="1280" on="0"/>
        <pt x="522" y="1201" on="0"/>
        <pt x="522" y="1147" on="1"/>
        <pt x="522" y="1093" on="0"/>
        <pt x="556" y="1017" on="0"/>
        <pt x="624" y="952" on="0"/>
        <pt x="726" y="891" on="0"/>
        <pt x="795" y="854" on="1"/>
        <pt x="950" y="770" on="0"/>
        <pt x="1098" y="567" on="0"/>
        <pt x="1098" y="436" on="1"/>
        <pt x="1098" y="327" on="0"/>
        <pt x="1019" y="157" on="0"/>
        <pt x="872" y="41" on="0"/>
        <pt x="664" y="-20" on="0"/>
      </contour>
    </TTGlyph>
    <TTGlyph name="SF010000" xMin="653" yMin="-492" xMax="1460" yMax="823">
      <contour>
        <pt x="653" y="823" on="1"/>
        <pt x="1460" y="823" on="1"/>
        <pt x="1460" y="678" on="1"/>
        <pt x="799" y="678" on="1"/>
        <pt x="799" y="-492" on="1"/>
        <pt x="653" y="-492" on="1"/>
      </contour>
    </TTGlyph>
    <TTGlyph name="SF020000" xMin="653" yMin="678" xMax="1460" yMax="1993">
      <contour>
        <pt x="653" y="1993" on="1"/>
        <pt x="799" y="1993" on="1"/>
        <pt x="799" y="823" on="1"/>
        <pt x="1460" y="823" on="1"/>
        <pt x="1460" y="678" on="1"/>
        <pt x="653" y="678" on="1"/>
      </contour>
    </TTGlyph>
    <TTGlyph name="SF030000" xMin="-10" yMin="-492" xMax="799" yMax="823">
      <contour>
        <pt x="-10" y="678" on="1"/>
        <pt x="-10" y="823" on="1"/>
        <pt x="799" y="823" on="1"/>
        <pt x="799" y="-492" on="1"/>
        <pt x="653" y="-492" on="1"/>
        <pt x="653" y="678" on="1"/>
      </contour>
    </TTGlyph>
    <TTGlyph name="SF040000" xMin="-10" yMin="678" xMax="799" yMax="1993">
      <contour>
        <pt x="-10" y="678" on="1"/>
        <pt x="-10" y="823" on="1"/>
        <pt x="653" y="823" on="1"/>
        <pt x="653" y="1993" on="1"/>
        <pt x="799" y="1993" on="1"/>
        <pt x="799" y="678" on="1"/>
      </contour>
    </TTGlyph>
    <TTGlyph name="SF050000" xMin="-10" yMin="-492" xMax="1460" yMax="1993">
      <contour>
        <pt x="-10" y="678" on="1"/>
        <pt x="-10" y="823" on="1"/>
        <pt x="653" y="823" on="1"/>
        <pt x="653" y="1993" on="1"/>
        <pt x="799" y="1993" on="1"/>
        <pt x="799" y="823" on="1"/>
        <pt x="1460" y="823" on="1"/>
        <pt x="1460" y="678" on="1"/>
        <pt x="799" y="678" on="1"/>
        <pt x="799" y="-492" on="1"/>
        <pt x="653" y="-492" on="1"/>
        <pt x="653" y="678" on="1"/>
      </contour>
    </TTGlyph>
    <TTGlyph name="SF060000" xMin="-10" yMin="-492" xMax="1460" yMax="823">
      <contour>
        <pt x="-10" y="678" on="1"/>
        <pt x="-10" y="823" on="1"/>
        <pt x="1460" y="823" on="1"/>
        <pt x="1460" y="678" on="1"/>
        <pt x="799" y="678" on="1"/>
        <pt x="799" y="-492" on="1"/>
        <pt x="653" y="-492" on="1"/>
        <pt x="653" y="678" on="1"/>
      </contour>
    </TTGlyph>
    <TTGlyph name="SF070000" xMin="-10" yMin="678" xMax="1460" yMax="1993">
      <contour>
        <pt x="-10" y="678" on="1"/>
        <pt x="-10" y="823" on="1"/>
        <pt x="653" y="823" on="1"/>
        <pt x="653" y="1993" on="1"/>
        <pt x="799" y="1993" on="1"/>
        <pt x="799" y="823" on="1"/>
        <pt x="1460" y="823" on="1"/>
        <pt x="1460" y="678" on="1"/>
      </contour>
    </TTGlyph>
    <TTGlyph name="SF080000" xMin="653" yMin="-492" xMax="1460" yMax="1993">
      <contour>
        <pt x="653" y="1993" on="1"/>
        <pt x="799" y="1993" on="1"/>
        <pt x="799" y="823" on="1"/>
        <pt x="1460" y="823" on="1"/>
        <pt x="1460" y="678" on="1"/>
        <pt x="799" y="678" on="1"/>
        <pt x="799" y="-492" on="1"/>
        <pt x="653" y="-492" on="1"/>
      </contour>
    </TTGlyph>
    <TTGlyph name="SF090000" xMin="-10" yMin="-492" xMax="799" yMax="1993">
      <contour>
        <pt x="-10" y="678" on="1"/>
        <pt x="-10" y="823" on="1"/>
        <pt x="653" y="823" on="1"/>
        <pt x="653" y="1993" on="1"/>
        <pt x="799" y="1993" on="1"/>
        <pt x="799" y="-492" on="1"/>
        <pt x="653" y="-492" on="1"/>
        <pt x="653" y="678" on="1"/>
      </contour>
    </TTGlyph>
    <TTGlyph name="SF100000" xMin="-10" yMin="678" xMax="1460" yMax="823">
      <contour>
        <pt x="-10" y="678" on="1"/>
        <pt x="-10" y="823" on="1"/>
        <pt x="1460" y="823" on="1"/>
        <pt x="1460" y="678" on="1"/>
      </contour>
    </TTGlyph>
    <TTGlyph name="SF110000" xMin="471" yMin="-492" xMax="616" yMax="1993">
      <contour>
        <pt x="471" y="1993" on="1"/>
        <pt x="616" y="1993" on="1"/>
        <pt x="616" y="-492" on="1"/>
        <pt x="471" y="-492" on="1"/>
      </contour>
    </TTGlyph>
    <TTGlyph name="SF190000" xMin="-10" yMin="-492" xMax="799" yMax="1993">
      <contour>
        <pt x="-10" y="498" on="1"/>
        <pt x="-10" y="643" on="1"/>
        <pt x="653" y="643" on="1"/>
        <pt x="653" y="858" on="1"/>
        <pt x="-10" y="858" on="1"/>
        <pt x="-10" y="1004" on="1"/>
        <pt x="653" y="1004" on="1"/>
        <pt x="653" y="1993" on="1"/>
        <pt x="799" y="1993" on="1"/>
        <pt x="799" y="-492" on="1"/>
        <pt x="653" y="-492" on="1"/>
        <pt x="653" y="498" on="1"/>
      </contour>
    </TTGlyph>
    <TTGlyph name="SF200000" xMin="-10" yMin="-492" xMax="979" yMax="1993">
      <contour>
        <pt x="-10" y="678" on="1"/>
        <pt x="-10" y="823" on="1"/>
        <pt x="473" y="823" on="1"/>
        <pt x="473" y="1993" on="1"/>
        <pt x="618" y="1993" on="1"/>
        <pt x="618" y="-492" on="1"/>
        <pt x="473" y="-492" on="1"/>
        <pt x="473" y="678" on="1"/>
      </contour>
      <contour>
        <pt x="834" y="1993" on="1"/>
        <pt x="979" y="1993" on="1"/>
        <pt x="979" y="-492" on="1"/>
        <pt x="834" y="-492" on="1"/>
      </contour>
    </TTGlyph>
    <TTGlyph name="SF210000" xMin="-10" yMin="-492" xMax="979" yMax="823">
      <contour>
        <pt x="-10" y="678" on="1"/>
        <pt x="-10" y="823" on="1"/>
        <pt x="979" y="823" on="1"/>
        <pt x="979" y="-492" on="1"/>
        <pt x="834" y="-492" on="1"/>
        <pt x="834" y="678" on="1"/>
        <pt x="618" y="678" on="1"/>
        <pt x="618" y="-492" on="1"/>
        <pt x="473" y="-492" on="1"/>
        <pt x="473" y="678" on="1"/>
      </contour>
    </TTGlyph>
    <TTGlyph name="SF220000" xMin="-10" yMin="-492" xMax="799" yMax="1004">
      <contour>
        <pt x="-10" y="498" on="1"/>
        <pt x="-10" y="643" on="1"/>
        <pt x="653" y="643" on="1"/>
        <pt x="653" y="858" on="1"/>
        <pt x="-10" y="858" on="1"/>
        <pt x="-10" y="1004" on="1"/>
        <pt x="799" y="1004" on="1"/>
        <pt x="799" y="-492" on="1"/>
        <pt x="653" y="-492" on="1"/>
        <pt x="653" y="498" on="1"/>
      </contour>
    </TTGlyph>
    <TTGlyph name="SF230000" xMin="-10" yMin="-492" xMax="979" yMax="1993">
      <contour>
        <pt x="834" y="1993" on="1"/>
        <pt x="979" y="1993" on="1"/>
        <pt x="979" y="-492" on="1"/>
        <pt x="834" y="-492" on="1"/>
      </contour>
      <contour>
        <pt x="473" y="1993" on="1"/>
        <pt x="618" y="1993" on="1"/>
        <pt x="618" y="858" on="1"/>
        <pt x="-10" y="858" on="1"/>
        <pt x="-10" y="1004" on="1"/>
        <pt x="473" y="1004" on="1"/>
      </contour>
      <contour>
        <pt x="618" y="-492" on="1"/>
        <pt x="473" y="-492" on="1"/>
        <pt x="473" y="498" on="1"/>
        <pt x="-10" y="498" on="1"/>
        <pt x="-10" y="643" on="1"/>
        <pt x="618" y="643" on="1"/>
      </contour>
    </TTGlyph>
    <TTGlyph name="SF240000" xMin="473" yMin="-492" xMax="979" yMax="1993">
      <contour>
        <pt x="473" y="1993" on="1"/>
        <pt x="618" y="1993" on="1"/>
        <pt x="618" y="-492" on="1"/>
        <pt x="473" y="-492" on="1"/>
      </contour>
      <contour>
        <pt x="834" y="1993" on="1"/>
        <pt x="979" y="1993" on="1"/>
        <pt x="979" y="-492" on="1"/>
        <pt x="834" y="-492" on="1"/>
      </contour>
    </TTGlyph>
    <TTGlyph name="SF250000" xMin="-10" yMin="-492" xMax="979" yMax="1004">
      <contour>
        <pt x="979" y="1004" on="1"/>
        <pt x="979" y="-492" on="1"/>
        <pt x="834" y="-492" on="1"/>
        <pt x="834" y="858" on="1"/>
        <pt x="-10" y="858" on="1"/>
        <pt x="-10" y="1004" on="1"/>
      </contour>
      <contour>
        <pt x="618" y="-492" on="1"/>
        <pt x="473" y="-492" on="1"/>
        <pt x="473" y="498" on="1"/>
        <pt x="-10" y="498" on="1"/>
        <pt x="-10" y="643" on="1"/>
        <pt x="618" y="643" on="1"/>
      </contour>
    </TTGlyph>
    <TTGlyph name="SF260000" xMin="-10" yMin="498" xMax="979" yMax="1993">
      <contour>
        <pt x="979" y="498" on="1"/>
        <pt x="-10" y="498" on="1"/>
        <pt x="-10" y="643" on="1"/>
        <pt x="834" y="643" on="1"/>
        <pt x="834" y="1993" on="1"/>
        <pt x="979" y="1993" on="1"/>
      </contour>
      <contour>
        <pt x="473" y="1993" on="1"/>
        <pt x="618" y="1993" on="1"/>
        <pt x="618" y="858" on="1"/>
        <pt x="-10" y="858" on="1"/>
        <pt x="-10" y="1004" on="1"/>
        <pt x="473" y="1004" on="1"/>
      </contour>
    </TTGlyph>
    <TTGlyph name="SF270000" xMin="-10" yMin="678" xMax="979" yMax="1993">
      <contour>
        <pt x="979" y="678" on="1"/>
        <pt x="-10" y="678" on="1"/>
        <pt x="-10" y="823" on="1"/>
        <pt x="473" y="823" on="1"/>
        <pt x="473" y="1993" on="1"/>
        <pt x="618" y="1993" on="1"/>
        <pt x="618" y="823" on="1"/>
        <pt x="834" y="823" on="1"/>
        <pt x="834" y="1993" on="1"/>
        <pt x="979" y="1993" on="1"/>
      </contour>
    </TTGlyph>
    <TTGlyph name="SF280000" xMin="-10" yMin="498" xMax="799" yMax="1993">
      <contour>
        <pt x="-10" y="498" on="1"/>
        <pt x="-10" y="643" on="1"/>
        <pt x="653" y="643" on="1"/>
        <pt x="653" y="858" on="1"/>
        <pt x="-10" y="858" on="1"/>
        <pt x="-10" y="1004" on="1"/>
        <pt x="653" y="1004" on="1"/>
        <pt x="653" y="1993" on="1"/>
        <pt x="799" y="1993" on="1"/>
        <pt x="799" y="498" on="1"/>
      </contour>
    </TTGlyph>
    <TTGlyph name="SF360000" xMin="653" yMin="-492" xMax="1460" yMax="1993">
      <contour>
        <pt x="653" y="1993" on="1"/>
        <pt x="799" y="1993" on="1"/>
        <pt x="799" y="1004" on="1"/>
        <pt x="1460" y="1004" on="1"/>
        <pt x="1460" y="858" on="1"/>
        <pt x="799" y="858" on="1"/>
        <pt x="799" y="643" on="1"/>
        <pt x="1460" y="643" on="1"/>
        <pt x="1460" y="498" on="1"/>
        <pt x="799" y="498" on="1"/>
        <pt x="799" y="-492" on="1"/>
        <pt x="653" y="-492" on="1"/>
      </contour>
    </TTGlyph>
    <TTGlyph name="SF370000" xMin="473" yMin="-492" xMax="1460" yMax="1993">
      <contour>
        <pt x="834" y="1993" on="1"/>
        <pt x="979" y="1993" on="1"/>
        <pt x="979" y="823" on="1"/>
        <pt x="1460" y="823" on="1"/>
        <pt x="1460" y="678" on="1"/>
        <pt x="979" y="678" on="1"/>
        <pt x="979" y="-492" on="1"/>
        <pt x="834" y="-492" on="1"/>
      </contour>
      <contour>
        <pt x="473" y="1993" on="1"/>
        <pt x="618" y="1993" on="1"/>
        <pt x="618" y="-492" on="1"/>
        <pt x="473" y="-492" on="1"/>
      </contour>
    </TTGlyph>
    <TTGlyph name="SF380000" xMin="473" yMin="498" xMax="1460" yMax="1993">
      <contour>
        <pt x="473" y="1993" on="1"/>
        <pt x="618" y="1993" on="1"/>
        <pt x="618" y="643" on="1"/>
        <pt x="1460" y="643" on="1"/>
        <pt x="1460" y="498" on="1"/>
        <pt x="473" y="498" on="1"/>
      </contour>
      <contour>
        <pt x="834" y="1993" on="1"/>
        <pt x="979" y="1993" on="1"/>
        <pt x="979" y="1004" on="1"/>
        <pt x="1460" y="1004" on="1"/>
        <pt x="1460" y="858" on="1"/>
        <pt x="834" y="858" on="1"/>
      </contour>
    </TTGlyph>
    <TTGlyph name="SF390000" xMin="473" yMin="-492" xMax="1460" yMax="1004">
      <contour>
        <pt x="473" y="1004" on="1"/>
        <pt x="1460" y="1004" on="1"/>
        <pt x="1460" y="858" on="1"/>
        <pt x="618" y="858" on="1"/>
        <pt x="618" y="-492" on="1"/>
        <pt x="473" y="-492" on="1"/>
      </contour>
      <contour>
        <pt x="834" y="643" on="1"/>
        <pt x="1460" y="643" on="1"/>
        <pt x="1460" y="498" on="1"/>
        <pt x="979" y="498" on="1"/>
        <pt x="979" y="-492" on="1"/>
        <pt x="834" y="-492" on="1"/>
      </contour>
    </TTGlyph>
    <TTGlyph name="SF400000" xMin="-10" yMin="498" xMax="1460" yMax="1993">
      <contour>
        <pt x="834" y="1993" on="1"/>
        <pt x="979" y="1993" on="1"/>
        <pt x="979" y="1004" on="1"/>
        <pt x="1460" y="1004" on="1"/>
        <pt x="1460" y="858" on="1"/>
        <pt x="834" y="858" on="1"/>
      </contour>
      <contour>
        <pt x="473" y="1993" on="1"/>
        <pt x="618" y="1993" on="1"/>
        <pt x="618" y="858" on="1"/>
        <pt x="-10" y="858" on="1"/>
        <pt x="-10" y="1004" on="1"/>
        <pt x="473" y="1004" on="1"/>
      </contour>
      <contour>
        <pt x="-10" y="498" on="1"/>
        <pt x="-10" y="643" on="1"/>
        <pt x="1460" y="643" on="1"/>
        <pt x="1460" y="498" on="1"/>
      </contour>
    </TTGlyph>
    <TTGlyph name="SF410000" xMin="-10" yMin="-492" xMax="1460" yMax="1004">
      <contour>
        <pt x="618" y="-492" on="1"/>
        <pt x="473" y="-492" on="1"/>
        <pt x="473" y="498" on="1"/>
        <pt x="-10" y="498" on="1"/>
        <pt x="-10" y="643" on="1"/>
        <pt x="618" y="643" on="1"/>
      </contour>
      <contour>
        <pt x="834" y="643" on="1"/>
        <pt x="1460" y="643" on="1"/>
        <pt x="1460" y="498" on="1"/>
        <pt x="979" y="498" on="1"/>
        <pt x="979" y="-492" on="1"/>
        <pt x="834" y="-492" on="1"/>
      </contour>
      <contour>
        <pt x="1460" y="1004" on="1"/>
        <pt x="1460" y="858" on="1"/>
        <pt x="-10" y="858" on="1"/>
        <pt x="-10" y="1004" on="1"/>
      </contour>
    </TTGlyph>
    <TTGlyph name="SF420000" xMin="473" yMin="-492" xMax="1460" yMax="1993">
      <contour>
        <pt x="618" y="-492" on="1"/>
        <pt x="473" y="-492" on="1"/>
        <pt x="473" y="1993" on="1"/>
        <pt x="618" y="1993" on="1"/>
      </contour>
      <contour>
        <pt x="834" y="643" on="1"/>
        <pt x="1460" y="643" on="1"/>
        <pt x="1460" y="498" on="1"/>
        <pt x="979" y="498" on="1"/>
        <pt x="979" y="-492" on="1"/>
        <pt x="834" y="-492" on="1"/>
      </contour>
      <contour>
        <pt x="834" y="1993" on="1"/>
        <pt x="979" y="1993" on="1"/>
        <pt x="979" y="1004" on="1"/>
        <pt x="1460" y="1004" on="1"/>
        <pt x="1460" y="858" on="1"/>
        <pt x="834" y="858" on="1"/>
      </contour>
    </TTGlyph>
    <TTGlyph name="SF430000" xMin="-10" yMin="498" xMax="1460" yMax="1004">
      <contour>
        <pt x="-10" y="858" on="1"/>
        <pt x="-10" y="1004" on="1"/>
        <pt x="1460" y="1004" on="1"/>
        <pt x="1460" y="858" on="1"/>
      </contour>
      <contour>
        <pt x="-10" y="498" on="1"/>
        <pt x="-10" y="643" on="1"/>
        <pt x="1460" y="643" on="1"/>
        <pt x="1460" y="498" on="1"/>
      </contour>
    </TTGlyph>
    <TTGlyph name="SF440000" xMin="-10" yMin="-492" xMax="1460" yMax="1993">
      <contour>
        <pt x="834" y="1993" on="1"/>
        <pt x="979" y="1993" on="1"/>
        <pt x="979" y="1004" on="1"/>
        <pt x="1460" y="1004" on="1"/>
        <pt x="1460" y="858" on="1"/>
        <pt x="834" y="858" on="1"/>
      </contour>
      <contour>
        <pt x="618" y="-492" on="1"/>
        <pt x="473" y="-492" on="1"/>
        <pt x="473" y="498" on="1"/>
        <pt x="-10" y="498" on="1"/>
        <pt x="-10" y="643" on="1"/>
        <pt x="618" y="643" on="1"/>
      </contour>
      <contour>
        <pt x="834" y="643" on="1"/>
        <pt x="1460" y="643" on="1"/>
        <pt x="1460" y="498" on="1"/>
        <pt x="979" y="498" on="1"/>
        <pt x="979" y="-492" on="1"/>
        <pt x="834" y="-492" on="1"/>
      </contour>
      <contour>
        <pt x="473" y="1993" on="1"/>
        <pt x="618" y="1993" on="1"/>
        <pt x="618" y="858" on="1"/>
        <pt x="-10" y="858" on="1"/>
        <pt x="-10" y="1004" on="1"/>
        <pt x="473" y="1004" on="1"/>
      </contour>
    </TTGlyph>
    <TTGlyph name="SF450000" xMin="-10" yMin="498" xMax="1460" yMax="1993">
      <contour>
        <pt x="-10" y="858" on="1"/>
        <pt x="-10" y="1004" on="1"/>
        <pt x="653" y="1004" on="1"/>
        <pt x="653" y="1993" on="1"/>
        <pt x="799" y="1993" on="1"/>
        <pt x="799" y="1004" on="1"/>
        <pt x="1460" y="1004" on="1"/>
        <pt x="1460" y="858" on="1"/>
      </contour>
      <contour>
        <pt x="-10" y="498" on="1"/>
        <pt x="-10" y="643" on="1"/>
        <pt x="1460" y="643" on="1"/>
        <pt x="1460" y="498" on="1"/>
      </contour>
    </TTGlyph>
    <TTGlyph name="SF460000" xMin="-10" yMin="678" xMax="1460" yMax="1993">
      <contour>
        <pt x="-10" y="678" on="1"/>
        <pt x="-10" y="823" on="1"/>
        <pt x="473" y="823" on="1"/>
        <pt x="473" y="1993" on="1"/>
        <pt x="618" y="1993" on="1"/>
        <pt x="618" y="823" on="1"/>
        <pt x="834" y="823" on="1"/>
        <pt x="834" y="1993" on="1"/>
        <pt x="979" y="1993" on="1"/>
        <pt x="979" y="823" on="1"/>
        <pt x="1460" y="823" on="1"/>
        <pt x="1460" y="678" on="1"/>
      </contour>
    </TTGlyph>
    <TTGlyph name="SF470000" xMin="-10" yMin="-492" xMax="1460" yMax="1004">
      <contour>
        <pt x="-10" y="498" on="1"/>
        <pt x="-10" y="643" on="1"/>
        <pt x="1460" y="643" on="1"/>
        <pt x="1460" y="498" on="1"/>
        <pt x="799" y="498" on="1"/>
        <pt x="799" y="-492" on="1"/>
        <pt x="653" y="-492" on="1"/>
        <pt x="653" y="498" on="1"/>
      </contour>
      <contour>
        <pt x="-10" y="858" on="1"/>
        <pt x="-10" y="1004" on="1"/>
        <pt x="1460" y="1004" on="1"/>
        <pt x="1460" y="858" on="1"/>
      </contour>
    </TTGlyph>
    <TTGlyph name="SF480000" xMin="-10" yMin="-492" xMax="1460" yMax="823">
      <contour>
        <pt x="-10" y="678" on="1"/>
        <pt x="-10" y="823" on="1"/>
        <pt x="1460" y="823" on="1"/>
        <pt x="1460" y="678" on="1"/>
        <pt x="979" y="678" on="1"/>
        <pt x="979" y="-492" on="1"/>
        <pt x="834" y="-492" on="1"/>
        <pt x="834" y="678" on="1"/>
        <pt x="618" y="678" on="1"/>
        <pt x="618" y="-492" on="1"/>
        <pt x="473" y="-492" on="1"/>
        <pt x="473" y="678" on="1"/>
      </contour>
    </TTGlyph>
    <TTGlyph name="SF490000" xMin="473" yMin="678" xMax="1460" yMax="1993">
      <contour>
        <pt x="834" y="1993" on="1"/>
        <pt x="979" y="1993" on="1"/>
        <pt x="979" y="823" on="1"/>
        <pt x="1460" y="823" on="1"/>
        <pt x="1460" y="678" on="1"/>
        <pt x="473" y="678" on="1"/>
        <pt x="473" y="1993" on="1"/>
        <pt x="618" y="1993" on="1"/>
        <pt x="618" y="823" on="1"/>
        <pt x="834" y="823" on="1"/>
      </contour>
    </TTGlyph>
    <TTGlyph name="SF500000" xMin="653" yMin="498" xMax="1460" yMax="1993">
      <contour>
        <pt x="653" y="1993" on="1"/>
        <pt x="799" y="1993" on="1"/>
        <pt x="799" y="1004" on="1"/>
        <pt x="1460" y="1004" on="1"/>
        <pt x="1460" y="858" on="1"/>
        <pt x="799" y="858" on="1"/>
        <pt x="799" y="643" on="1"/>
        <pt x="1460" y="643" on="1"/>
        <pt x="1460" y="498" on="1"/>
        <pt x="653" y="498" on="1"/>
      </contour>
    </TTGlyph>
    <TTGlyph name="SF510000" xMin="653" yMin="-492" xMax="1460" yMax="1004">
      <contour>
        <pt x="653" y="1004" on="1"/>
        <pt x="1460" y="1004" on="1"/>
        <pt x="1460" y="858" on="1"/>
        <pt x="799" y="858" on="1"/>
        <pt x="799" y="643" on="1"/>
        <pt x="1460" y="643" on="1"/>
        <pt x="1460" y="498" on="1"/>
        <pt x="799" y="498" on="1"/>
        <pt x="799" y="-492" on="1"/>
        <pt x="653" y="-492" on="1"/>
      </contour>
    </TTGlyph>
    <TTGlyph name="SF520000" xMin="473" yMin="-492" xMax="1460" yMax="823">
      <contour>
        <pt x="1460" y="823" on="1"/>
        <pt x="1460" y="678" on="1"/>
        <pt x="979" y="678" on="1"/>
        <pt x="979" y="-492" on="1"/>
        <pt x="834" y="-492" on="1"/>
        <pt x="834" y="678" on="1"/>
        <pt x="618" y="678" on="1"/>
        <pt x="618" y="-492" on="1"/>
        <pt x="473" y="-492" on="1"/>
        <pt x="473" y="823" on="1"/>
      </contour>
    </TTGlyph>
    <TTGlyph name="SF530000" xMin="-10" yMin="-492" xMax="1460" yMax="1993">
      <contour>
        <pt x="834" y="1993" on="1"/>
        <pt x="979" y="1993" on="1"/>
        <pt x="979" y="823" on="1"/>
        <pt x="1460" y="823" on="1"/>
        <pt x="1460" y="678" on="1"/>
        <pt x="979" y="678" on="1"/>
        <pt x="979" y="-492" on="1"/>
        <pt x="834" y="-492" on="1"/>
        <pt x="834" y="678" on="1"/>
        <pt x="618" y="678" on="1"/>
        <pt x="618" y="-492" on="1"/>
        <pt x="473" y="-492" on="1"/>
        <pt x="473" y="678" on="1"/>
        <pt x="-10" y="678" on="1"/>
        <pt x="-10" y="823" on="1"/>
        <pt x="473" y="823" on="1"/>
        <pt x="473" y="1993" on="1"/>
        <pt x="618" y="1993" on="1"/>
        <pt x="618" y="823" on="1"/>
        <pt x="834" y="823" on="1"/>
      </contour>
    </TTGlyph>
    <TTGlyph name="SF540000" xMin="-10" yMin="-492" xMax="1460" yMax="1993">
      <contour>
        <pt x="-10" y="498" on="1"/>
        <pt x="-10" y="643" on="1"/>
        <pt x="653" y="643" on="1"/>
        <pt x="653" y="858" on="1"/>
        <pt x="-10" y="858" on="1"/>
        <pt x="-10" y="1004" on="1"/>
        <pt x="653" y="1004" on="1"/>
        <pt x="653" y="1993" on="1"/>
        <pt x="799" y="1993" on="1"/>
        <pt x="799" y="1004" on="1"/>
        <pt x="1460" y="1004" on="1"/>
        <pt x="1460" y="858" on="1"/>
        <pt x="799" y="858" on="1"/>
        <pt x="799" y="643" on="1"/>
        <pt x="1460" y="643" on="1"/>
        <pt x="1460" y="498" on="1"/>
        <pt x="799" y="498" on="1"/>
        <pt x="799" y="-492" on="1"/>
        <pt x="653" y="-492" on="1"/>
        <pt x="653" y="498" on="1"/>
      </contour>
    </TTGlyph>
    <TTGlyph name="Sacute" xMin="29" yMin="-20" xMax="1272" yMax="1907">
      <component glyphName="S" x="0" y="0" flags="0x204"/>
      <component glyphName="acute" x="203" y="338" flags="0x4"/>
    </TTGlyph>
    <TTGlyph name="Scaron" xMin="29" yMin="-20" xMax="1219" yMax="1907">
      <component glyphName="S" x="0" y="0" flags="0x204"/>
      <component glyphName="caron" x="63" y="338" flags="0x4"/>
    </TTGlyph>
    <TTGlyph name="Scedilla" xMin="29" yMin="-492" xMax="1219" yMax="1483">
      <component glyphName="S" x="0" y="0" flags="0x204"/>
      <component glyphName="cedilla" x="180" y="0" flags="0x4"/>
    </TTGlyph>
    <TTGlyph name="Scircumflex" xMin="29" yMin="-20" xMax="1219" yMax="1907">
      <component glyphName="S" x="0" y="0" flags="0x204"/>
      <component glyphName="circumflex" x="102" y="338" flags="0x4"/>
    </TTGlyph>
    <TTGlyph name="Scommaaccent" xMin="29" yMin="-453" xMax="1219" yMax="1483">
      <component glyphName="S" x="0" y="0" flags="0x204"/>
      <component glyphName="glyph00569" x="-58" y="0" flags="0x4"/>
    </TTGlyph>
    <TTGlyph name="Sigma" xMin="-45" yMin="0" xMax="1329" yMax="1462">
      <contour>
        <pt x="846" y="250" on="1"/>
        <pt x="894" y="250" on="0"/>
        <pt x="967" y="279" on="0"/>
        <pt x="1024" y="331" on="0"/>
        <pt x="1064" y="402" on="0"/>
        <pt x="1079" y="444" on="1"/>
        <pt x="1100" y="506" on="1"/>
        <pt x="1227" y="506" on="1"/>
        <pt x="1110" y="0" on="1"/>
        <pt x="-45" y="0" on="1"/>
        <pt x="-10" y="164" on="1"/>
        <pt x="506" y="709" on="1"/>
        <pt x="281" y="1343" on="1"/>
        <pt x="307" y="1462" on="1"/>
        <pt x="1329" y="1462" on="1"/>
        <pt x="1260" y="1083" on="1"/>
        <pt x="1133" y="1083" on="1"/>
        <pt x="1145" y="1192" on="1"/>
        <pt x="1149" y="1226" on="0"/>
        <pt x="1137" y="1279" on="0"/>
        <pt x="1102" y="1317" on="0"/>
        <pt x="1041" y="1337" on="0"/>
        <pt x="995" y="1337" on="1"/>
        <pt x="608" y="1337" on="1"/>
        <pt x="782" y="834" on="1"/>
        <pt x="774" y="801" on="1"/>
        <pt x="254" y="250" on="1"/>
      </contour>
    </TTGlyph>
    <TTGlyph name="T" xMin="139" yMin="0" xMax="1507" yMax="1462">
      <contour>
        <pt x="213" y="0" on="1"/>
        <pt x="236" y="109" on="1"/>
        <pt x="262" y="109" on="1"/>
        <pt x="294" y="109" on="0"/>
        <pt x="355" y="117" on="0"/>
        <pt x="405" y="143" on="0"/>
        <pt x="442" y="191" on="0"/>
        <pt x="451" y="231" on="1"/>
        <pt x="682" y="1337" on="1"/>
        <pt x="518" y="1337" on="1"/>
        <pt x="470" y="1337" on="0"/>
        <pt x="403" y="1313" on="0"/>
        <pt x="354" y="1266" on="0"/>
        <pt x="320" y="1198" on="0"/>
        <pt x="305" y="1153" on="1"/>
        <pt x="276" y="1065" on="1"/>
        <pt x="139" y="1065" on="1"/>
        <pt x="233" y="1462" on="1"/>
        <pt x="1507" y="1462" on="1"/>
        <pt x="1436" y="1065" on="1"/>
        <pt x="1298" y="1065" on="1"/>
        <pt x="1299" y="1072" on="0"/>
        <pt x="1304" y="1121" on="0"/>
        <pt x="1310" y="1177" on="0"/>
        <pt x="1315" y="1224" on="0"/>
        <pt x="1315" y="1229" on="1"/>
        <pt x="1315" y="1283" on="0"/>
        <pt x="1250" y="1337" on="0"/>
        <pt x="1171" y="1337" on="1"/>
        <pt x="1008" y="1337" on="1"/>
        <pt x="772" y="225" on="1"/>
        <pt x="770" y="214" on="0"/>
        <pt x="764" y="186" on="0"/>
        <pt x="764" y="178" on="1"/>
        <pt x="764" y="156" on="0"/>
        <pt x="786" y="129" on="0"/>
        <pt x="826" y="114" on="0"/>
        <pt x="881" y="109" on="0"/>
        <pt x="913" y="109" on="1"/>
        <pt x="940" y="109" on="1"/>
        <pt x="918" y="0" on="1"/>
      </contour>
    </TTGlyph>
    <TTGlyph name="Tau" xMin="139" yMin="0" xMax="1507" yMax="1462">
      <component glyphName="T" x="0" y="0" flags="0x204"/>
    </TTGlyph>
    <TTGlyph name="Tbar" xMin="139" yMin="0" xMax="1507" yMax="1462">
      <contour>
        <pt x="213" y="0" on="1"/>
        <pt x="236" y="109" on="1"/>
        <pt x="262" y="109" on="1"/>
        <pt x="294" y="109" on="0"/>
        <pt x="355" y="117" on="0"/>
        <pt x="405" y="143" on="0"/>
        <pt x="442" y="191" on="0"/>
        <pt x="451" y="231" on="1"/>
        <pt x="543" y="674" on="1"/>
        <pt x="246" y="674" on="1"/>
        <pt x="268" y="782" on="1"/>
        <pt x="565" y="782" on="1"/>
        <pt x="682" y="1337" on="1"/>
        <pt x="518" y="1337" on="1"/>
        <pt x="470" y="1337" on="0"/>
        <pt x="403" y="1313" on="0"/>
        <pt x="354" y="1266" on="0"/>
        <pt x="320" y="1198" on="0"/>
        <pt x="305" y="1153" on="1"/>
        <pt x="276" y="1065" on="1"/>
        <pt x="139" y="1065" on="1"/>
        <pt x="233" y="1462" on="1"/>
        <pt x="1507" y="1462" on="1"/>
        <pt x="1436" y="1065" on="1"/>
        <pt x="1298" y="1065" on="1"/>
        <pt x="1299" y="1072" on="0"/>
        <pt x="1304" y="1121" on="0"/>
        <pt x="1310" y="1177" on="0"/>
        <pt x="1315" y="1224" on="0"/>
        <pt x="1315" y="1229" on="1"/>
        <pt x="1315" y="1283" on="0"/>
        <pt x="1250" y="1337" on="0"/>
        <pt x="1171" y="1337" on="1"/>
        <pt x="1008" y="1337" on="1"/>
        <pt x="889" y="782" on="1"/>
        <pt x="1184" y="782" on="1"/>
        <pt x="1161" y="674" on="1"/>
        <pt x="866" y="674" on="1"/>
        <pt x="772" y="225" on="1"/>
        <pt x="770" y="214" on="0"/>
        <pt x="764" y="186" on="0"/>
        <pt x="764" y="178" on="1"/>
        <pt x="764" y="156" on="0"/>
        <pt x="786" y="129" on="0"/>
        <pt x="826" y="114" on="0"/>
        <pt x="881" y="109" on="0"/>
        <pt x="913" y="109" on="1"/>
        <pt x="940" y="109" on="1"/>
        <pt x="918" y="0" on="1"/>
      </contour>
    </TTGlyph>
    <TTGlyph name="Tcaron" xMin="139" yMin="0" xMax="1507" yMax="1907">
      <component glyphName="T" x="0" y="0" flags="0x204"/>
      <component glyphName="caron" x="145" y="338" flags="0x4"/>
    </TTGlyph>
    <TTGlyph name="Tcommaaccent" xMin="139" yMin="-492" xMax="1507" yMax="1462">
      <component glyphName="T" x="0" y="0" flags="0x204"/>
      <component glyphName="cedilla" x="190" y="0" flags="0x4"/>
    </TTGlyph>
    <TTGlyph name="Theta" xMin="129" yMin="-23" xMax="1567" yMax="1485">
      <contour>
        <pt x="731" y="952" on="1"/>
        <pt x="733" y="913" on="1"/>
        <pt x="734" y="891" on="0"/>
        <pt x="740" y="856" on="0"/>
        <pt x="764" y="832" on="0"/>
        <pt x="814" y="819" on="0"/>
        <pt x="860" y="819" on="1"/>
        <pt x="868" y="819" on="1"/>
        <pt x="909" y="819" on="0"/>
        <pt x="966" y="832" on="0"/>
        <pt x="1006" y="857" on="0"/>
        <pt x="1032" y="892" on="0"/>
        <pt x="1042" y="913" on="1"/>
        <pt x="1061" y="952" on="1"/>
        <pt x="1167" y="952" on="1"/>
        <pt x="1081" y="561" on="1"/>
        <pt x="975" y="561" on="1"/>
        <pt x="973" y="600" on="1"/>
        <pt x="972" y="621" on="0"/>
        <pt x="961" y="654" on="0"/>
        <pt x="932" y="678" on="0"/>
        <pt x="880" y="692" on="0"/>
        <pt x="840" y="694" on="1"/>
        <pt x="834" y="694" on="1"/>
        <pt x="788" y="694" on="0"/>
        <pt x="732" y="681" on="0"/>
        <pt x="697" y="657" on="0"/>
        <pt x="675" y="622" on="0"/>
        <pt x="664" y="600" on="1"/>
        <pt x="645" y="561" on="1"/>
        <pt x="539" y="561" on="1"/>
        <pt x="625" y="952" on="1"/>
      </contour>
      <contour>
        <pt x="129" y="545" on="1"/>
        <pt x="129" y="643" on="0"/>
        <pt x="178" y="859" on="0"/>
        <pt x="276" y="1068" on="0"/>
        <pt x="422" y="1257" on="0"/>
        <pt x="615" y="1400" on="0"/>
        <pt x="857" y="1485" on="0"/>
        <pt x="1001" y="1485" on="1"/>
        <pt x="1114" y="1485" on="0"/>
        <pt x="1319" y="1419" on="0"/>
        <pt x="1475" y="1281" on="0"/>
        <pt x="1567" y="1069" on="0"/>
        <pt x="1567" y="922" on="1"/>
        <pt x="1567" y="828" on="0"/>
        <pt x="1520" y="614" on="0"/>
        <pt x="1425" y="404" on="0"/>
        <pt x="1282" y="212" on="0"/>
        <pt x="1089" y="65" on="0"/>
        <pt x="846" y="-23" on="0"/>
        <pt x="700" y="-23" on="1"/>
        <pt x="579" y="-23" on="0"/>
        <pt x="370" y="50" on="0"/>
        <pt x="217" y="194" on="0"/>
        <pt x="129" y="406" on="0"/>
      </contour>
      <contour>
        <pt x="463" y="496" on="1"/>
        <pt x="463" y="395" on="0"/>
        <pt x="506" y="250" on="0"/>
        <pt x="581" y="157" on="0"/>
        <pt x="683" y="113" on="0"/>
        <pt x="741" y="113" on="1"/>
        <pt x="826" y="113" on="0"/>
        <pt x="965" y="195" on="0"/>
        <pt x="1075" y="332" on="0"/>
        <pt x="1156" y="509" on="0"/>
        <pt x="1209" y="699" on="0"/>
        <pt x="1235" y="888" on="0"/>
        <pt x="1235" y="969" on="1"/>
        <pt x="1235" y="1069" on="0"/>
        <pt x="1193" y="1213" on="0"/>
        <pt x="1120" y="1307" on="0"/>
        <pt x="1018" y="1352" on="0"/>
        <pt x="958" y="1352" on="1"/>
        <pt x="873" y="1352" on="0"/>
        <pt x="734" y="1270" on="0"/>
        <pt x="624" y="1133" on="0"/>
        <pt x="542" y="956" on="0"/>
        <pt x="489" y="765" on="0"/>
        <pt x="463" y="576" on="0"/>
      </contour>
    </TTGlyph>
    <TTGlyph name="Thorn" xMin="-47" yMin="0" xMax="1307" yMax="1462">
      <contour>
        <pt x="-47" y="0" on="1"/>
        <pt x="-25" y="109" on="1"/>
        <pt x="2" y="109" on="1"/>
        <pt x="34" y="109" on="0"/>
        <pt x="95" y="117" on="0"/>
        <pt x="145" y="143" on="0"/>
        <pt x="182" y="191" on="0"/>
        <pt x="190" y="231" on="1"/>
        <pt x="403" y="1237" on="1"/>
        <pt x="407" y="1248" on="0"/>
        <pt x="412" y="1276" on="0"/>
        <pt x="412" y="1284" on="1"/>
        <pt x="412" y="1306" on="0"/>
        <pt x="390" y="1334" on="0"/>
        <pt x="351" y="1349" on="0"/>
        <pt x="296" y="1354" on="0"/>
        <pt x="264" y="1354" on="1"/>
        <pt x="238" y="1354" on="1"/>
        <pt x="260" y="1462" on="1"/>
        <pt x="967" y="1462" on="1"/>
        <pt x="944" y="1354" on="1"/>
        <pt x="918" y="1354" on="1"/>
        <pt x="884" y="1354" on="0"/>
        <pt x="821" y="1345" on="0"/>
        <pt x="769" y="1319" on="0"/>
        <pt x="731" y="1269" on="0"/>
        <pt x="723" y="1229" on="1"/>
        <pt x="717" y="1198" on="1"/>
        <pt x="784" y="1198" on="1"/>
        <pt x="905" y="1198" on="0"/>
        <pt x="1098" y="1147" on="0"/>
        <pt x="1234" y="1046" on="0"/>
        <pt x="1307" y="897" on="0"/>
        <pt x="1307" y="799" on="1"/>
        <pt x="1307" y="747" on="0"/>
        <pt x="1287" y="631" on="0"/>
        <pt x="1236" y="519" on="0"/>
        <pt x="1146" y="418" on="0"/>
        <pt x="1007" y="341" on="0"/>
        <pt x="811" y="295" on="0"/>
        <pt x="680" y="295" on="1"/>
        <pt x="526" y="295" on="1"/>
        <pt x="512" y="225" on="1"/>
        <pt x="510" y="214" on="0"/>
        <pt x="504" y="186" on="0"/>
        <pt x="504" y="178" on="1"/>
        <pt x="504" y="156" on="0"/>
        <pt x="526" y="129" on="0"/>
        <pt x="566" y="114" on="0"/>
        <pt x="621" y="109" on="0"/>
        <pt x="653" y="109" on="1"/>
        <pt x="680" y="109" on="1"/>
        <pt x="657" y="0" on="1"/>
      </contour>
      <contour>
        <pt x="551" y="414" on="1"/>
        <pt x="635" y="414" on="1"/>
        <pt x="728" y="414" on="0"/>
        <pt x="857" y="470" on="0"/>
        <pt x="937" y="570" on="0"/>
        <pt x="973" y="710" on="0"/>
        <pt x="973" y="793" on="1"/>
        <pt x="973" y="869" on="0"/>
        <pt x="938" y="977" on="0"/>
        <pt x="875" y="1046" on="0"/>
        <pt x="788" y="1077" on="0"/>
        <pt x="737" y="1077" on="1"/>
        <pt x="692" y="1077" on="1"/>
      </contour>
    </TTGlyph>
    <TTGlyph name="U" xMin="203" yMin="-20" xMax="1700" yMax="1462">
      <contour>
        <pt x="772" y="125" on="1"/>
        <pt x="865" y="125" on="0"/>
        <pt x="993" y="179" on="0"/>
        <pt x="1079" y="274" on="0"/>
        <pt x="1131" y="405" on="0"/>
        <pt x="1147" y="483" on="1"/>
        <pt x="1305" y="1223" on="1"/>
        <pt x="1308" y="1240" on="0"/>
        <pt x="1313" y="1276" on="0"/>
        <pt x="1313" y="1284" on="1"/>
        <pt x="1313" y="1306" on="0"/>
        <pt x="1291" y="1334" on="0"/>
        <pt x="1252" y="1349" on="0"/>
        <pt x="1197" y="1354" on="0"/>
        <pt x="1165" y="1354" on="1"/>
        <pt x="1139" y="1354" on="1"/>
        <pt x="1161" y="1462" on="1"/>
        <pt x="1700" y="1462" on="1"/>
        <pt x="1677" y="1354" on="1"/>
        <pt x="1651" y="1354" on="1"/>
        <pt x="1618" y="1354" on="0"/>
        <pt x="1556" y="1345" on="0"/>
        <pt x="1504" y="1319" on="0"/>
        <pt x="1467" y="1269" on="0"/>
        <pt x="1458" y="1229" on="1"/>
        <pt x="1294" y="451" on="1"/>
        <pt x="1270" y="336" on="0"/>
        <pt x="1175" y="160" on="0"/>
        <pt x="1028" y="41" on="0"/>
        <pt x="828" y="-20" on="0"/>
        <pt x="698" y="-20" on="1"/>
        <pt x="578" y="-20" on="0"/>
        <pt x="394" y="27" on="0"/>
        <pt x="268" y="118" on="0"/>
        <pt x="203" y="250" on="0"/>
        <pt x="203" y="334" on="1"/>
        <pt x="203" y="350" on="0"/>
        <pt x="207" y="398" on="0"/>
        <pt x="213" y="449" on="0"/>
        <pt x="221" y="498" on="0"/>
        <pt x="225" y="516" on="1"/>
        <pt x="375" y="1214" on="1"/>
        <pt x="387" y="1269" on="0"/>
        <pt x="387" y="1284" on="1"/>
        <pt x="387" y="1306" on="0"/>
        <pt x="365" y="1334" on="0"/>
        <pt x="326" y="1349" on="0"/>
        <pt x="272" y="1354" on="0"/>
        <pt x="240" y="1354" on="1"/>
        <pt x="213" y="1354" on="1"/>
        <pt x="236" y="1462" on="1"/>
        <pt x="944" y="1462" on="1"/>
        <pt x="922" y="1354" on="1"/>
        <pt x="895" y="1354" on="1"/>
        <pt x="861" y="1354" on="0"/>
        <pt x="798" y="1345" on="0"/>
        <pt x="746" y="1320" on="0"/>
        <pt x="709" y="1272" on="0"/>
        <pt x="700" y="1233" on="1"/>
        <pt x="545" y="512" on="1"/>
        <pt x="541" y="494" on="0"/>
        <pt x="532" y="450" on="0"/>
        <pt x="525" y="403" on="0"/>
        <pt x="520" y="355" on="0"/>
        <pt x="520" y="334" on="1"/>
        <pt x="520" y="231" on="0"/>
        <pt x="648" y="125" on="0"/>
      </contour>
    </TTGlyph>
    <TTGlyph name="Uacute" xMin="203" yMin="-20" xMax="1700" yMax="1907">
      <component glyphName="U" x="0" y="0" flags="0x204"/>
      <component glyphName="acute" x="410" y="338" flags="0x4"/>
    </TTGlyph>
    <TTGlyph name="Ubreve" xMin="203" yMin="-20" xMax="1700" yMax="1901">
      <component glyphName="U" x="0" y="0" flags="0x204"/>
      <component glyphName="breve" x="438" y="338" flags="0x4"/>
    </TTGlyph>
    <TTGlyph name="Ucircumflex" xMin="203" yMin="-20" xMax="1700" yMax="1907">
      <component glyphName="U" x="0" y="0" flags="0x204"/>
      <component glyphName="circumflex" x="367" y="338" flags="0x4"/>
    </TTGlyph>
    <TTGlyph name="Udieresis" xMin="203" yMin="-20" xMax="1700" yMax="1868">
      <component glyphName="U" x="0" y="0" flags="0x204"/>
      <component glyphName="dieresis" x="340" y="338" flags="0x4"/>
    </TTGlyph>
    <TTGlyph name="Ugrave" xMin="203" yMin="-20" xMax="1700" yMax="1907">
      <component glyphName="U" x="0" y="0" flags="0x204"/>
      <component glyphName="grave" x="184" y="338" flags="0x4"/>
    </TTGlyph>
    <TTGlyph name="Uhorn" xMin="203" yMin="-20" xMax="1915" yMax="1577">
      <contour>
        <pt x="1139" y="1354" on="1"/>
        <pt x="1161" y="1462" on="1"/>
        <pt x="1507" y="1462" on="1"/>
        <pt x="1434" y="1110" on="1"/>
        <pt x="1560" y="1126" on="0"/>
        <pt x="1702" y="1219" on="0"/>
        <pt x="1702" y="1276" on="1"/>
        <pt x="1702" y="1301" on="0"/>
        <pt x="1667" y="1348" on="1"/>
        <pt x="1630" y="1395" on="0"/>
        <pt x="1630" y="1442" on="1"/>
        <pt x="1630" y="1504" on="0"/>
        <pt x="1713" y="1577" on="0"/>
        <pt x="1778" y="1577" on="1"/>
        <pt x="1915" y="1577" on="0"/>
        <pt x="1915" y="1434" on="1"/>
        <pt x="1915" y="1269" on="0"/>
        <pt x="1655" y="1049" on="0"/>
        <pt x="1413" y="1020" on="1"/>
        <pt x="1294" y="451" on="1"/>
        <pt x="1195" y="-20" on="0"/>
        <pt x="698" y="-20" on="1"/>
        <pt x="458" y="-20" on="0"/>
        <pt x="203" y="166" on="0"/>
        <pt x="203" y="334" on="1"/>
        <pt x="203" y="417" on="0"/>
        <pt x="225" y="516" on="1"/>
        <pt x="375" y="1214" on="1"/>
        <pt x="387" y="1270" on="0"/>
        <pt x="387" y="1284" on="1"/>
        <pt x="387" y="1354" on="0"/>
        <pt x="240" y="1354" on="1"/>
        <pt x="213" y="1354" on="1"/>
        <pt x="236" y="1462" on="1"/>
        <pt x="944" y="1462" on="1"/>
        <pt x="922" y="1354" on="1"/>
        <pt x="895" y="1354" on="1"/>
        <pt x="728" y="1354" on="0"/>
        <pt x="700" y="1233" on="1"/>
        <pt x="545" y="512" on="1"/>
        <pt x="520" y="396" on="0"/>
        <pt x="520" y="334" on="1"/>
        <pt x="520" y="125" on="0"/>
        <pt x="772" y="125" on="1"/>
        <pt x="926" y="125" on="0"/>
        <pt x="1107" y="288" on="0"/>
        <pt x="1147" y="483" on="1"/>
        <pt x="1305" y="1223" on="1"/>
        <pt x="1313" y="1260" on="0"/>
        <pt x="1313" y="1284" on="1"/>
        <pt x="1313" y="1354" on="0"/>
        <pt x="1165" y="1354" on="1"/>
      </contour>
    </TTGlyph>
    <TTGlyph name="Uhungarumlaut" xMin="203" yMin="-20" xMax="1700" yMax="1907">
      <component glyphName="U" x="0" y="0" flags="0x204"/>
      <component glyphName="hungarumlaut" x="524" y="338" flags="0x4"/>
    </TTGlyph>
    <TTGlyph name="Umacron" xMin="203" yMin="-20" xMax="1700" yMax="1741">
      <component glyphName="U" x="0" y="0" flags="0x204"/>
      <component glyphName="uni02C9" x="326" y="338" flags="0x4"/>
    </TTGlyph>
    <TTGlyph name="Uogonek" xMin="203" yMin="-492" xMax="1700" yMax="1462">
      <component glyphName="U" x="0" y="0" flags="0x204"/>
      <component glyphName="ogonek" x="121" y="0" flags="0x4"/>
    </TTGlyph>
    <TTGlyph name="Upsilon" xMin="180" yMin="0" xMax="1620" yMax="1462">
      <component glyphName="Y" x="0" y="0" flags="0x204"/>
    </TTGlyph>
    <TTGlyph name="Upsilon1" xMin="178" yMin="0" xMax="1665" yMax="1477">
      <contour>
        <pt x="817" y="236" on="1"/>
        <pt x="814" y="219" on="0"/>
        <pt x="807" y="184" on="0"/>
        <pt x="807" y="172" on="1"/>
        <pt x="807" y="152" on="0"/>
        <pt x="829" y="127" on="0"/>
        <pt x="869" y="114" on="0"/>
        <pt x="924" y="109" on="0"/>
        <pt x="956" y="109" on="1"/>
        <pt x="1006" y="109" on="1"/>
        <pt x="983" y="0" on="1"/>
        <pt x="227" y="0" on="1"/>
        <pt x="250" y="109" on="1"/>
        <pt x="305" y="109" on="1"/>
        <pt x="337" y="109" on="0"/>
        <pt x="397" y="118" on="0"/>
        <pt x="447" y="145" on="0"/>
        <pt x="483" y="193" on="0"/>
        <pt x="492" y="233" on="1"/>
        <pt x="528" y="403" on="1"/>
        <pt x="535" y="431" on="0"/>
        <pt x="539" y="492" on="0"/>
        <pt x="539" y="524" on="1"/>
        <pt x="540" y="613" on="0"/>
        <pt x="509" y="803" on="0"/>
        <pt x="466" y="974" on="0"/>
        <pt x="420" y="1111" on="0"/>
        <pt x="406" y="1149" on="1"/>
        <pt x="389" y="1193" on="0"/>
        <pt x="351" y="1268" on="0"/>
        <pt x="304" y="1323" on="0"/>
        <pt x="244" y="1354" on="0"/>
        <pt x="205" y="1354" on="1"/>
        <pt x="178" y="1354" on="1"/>
        <pt x="203" y="1462" on="1"/>
        <pt x="446" y="1462" on="1"/>
        <pt x="512" y="1462" on="0"/>
        <pt x="607" y="1439" on="0"/>
        <pt x="678" y="1379" on="0"/>
        <pt x="730" y="1275" on="0"/>
        <pt x="754" y="1194" on="1"/>
        <pt x="775" y="1123" on="0"/>
        <pt x="804" y="999" on="0"/>
        <pt x="825" y="886" on="0"/>
        <pt x="838" y="782" on="0"/>
        <pt x="842" y="731" on="1"/>
        <pt x="869" y="793" on="0"/>
        <pt x="932" y="919" on="0"/>
        <pt x="999" y="1041" on="0"/>
        <pt x="1067" y="1154" on="0"/>
        <pt x="1100" y="1204" on="1"/>
        <pt x="1156" y="1288" on="0"/>
        <pt x="1252" y="1394" on="0"/>
        <pt x="1344" y="1454" on="0"/>
        <pt x="1437" y="1477" on="0"/>
        <pt x="1489" y="1477" on="1"/>
        <pt x="1537" y="1477" on="0"/>
        <pt x="1604" y="1456" on="0"/>
        <pt x="1646" y="1422" on="0"/>
        <pt x="1665" y="1376" on="0"/>
        <pt x="1665" y="1352" on="1"/>
        <pt x="1665" y="1317" on="0"/>
        <pt x="1640" y="1264" on="0"/>
        <pt x="1599" y="1226" on="0"/>
        <pt x="1545" y="1202" on="0"/>
        <pt x="1516" y="1198" on="1"/>
        <pt x="1513" y="1217" on="0"/>
        <pt x="1504" y="1253" on="0"/>
        <pt x="1485" y="1281" on="0"/>
        <pt x="1456" y="1298" on="0"/>
        <pt x="1434" y="1298" on="1"/>
        <pt x="1408" y="1298" on="0"/>
        <pt x="1355" y="1276" on="0"/>
        <pt x="1292" y="1221" on="0"/>
        <pt x="1217" y="1128" on="0"/>
        <pt x="1171" y="1057" on="1"/>
        <pt x="1149" y="1023" on="0"/>
        <pt x="1091" y="931" on="0"/>
        <pt x="1029" y="824" on="0"/>
        <pt x="966" y="707" on="0"/>
        <pt x="911" y="591" on="0"/>
        <pt x="870" y="482" on="0"/>
        <pt x="860" y="436" on="1"/>
      </contour>
    </TTGlyph>
    <TTGlyph name="Upsilondieresis" xMin="180" yMin="0" xMax="1620" yMax="1868">
      <component glyphName="Y" x="0" y="0" flags="0x204"/>
      <component glyphName="dieresis" x="303" y="338" flags="0x4"/>
    </TTGlyph>
    <TTGlyph name="Upsilontonos" xMin="-52" yMin="0" xMax="1907" yMax="1462">
      <component glyphName="Y" x="287" y="0" flags="0x4"/>
      <component glyphName="tonos" x="-486" y="-168" flags="0x4"/>
    </TTGlyph>
    <TTGlyph name="Uring" xMin="203" yMin="-20" xMax="1700" yMax="1993">
      <component glyphName="U" x="0" y="0" flags="0x204"/>
      <component glyphName="ring" x="500" y="338" flags="0x4"/>
    </TTGlyph>
    <TTGlyph name="Utilde" xMin="203" yMin="-20" xMax="1700" yMax="1903">
      <component glyphName="U" x="0" y="0" flags="0x204"/>
      <component glyphName="tilde" x="344" y="338" flags="0x4"/>
    </TTGlyph>
    <TTGlyph name="V" xMin="174" yMin="0" xMax="1634" yMax="1462">
      <contour>
        <pt x="659" y="1272" on="1"/>
        <pt x="659" y="1255" on="0"/>
        <pt x="662" y="1216" on="0"/>
        <pt x="664" y="1202" on="1"/>
        <pt x="729" y="662" on="1"/>
        <pt x="733" y="626" on="0"/>
        <pt x="740" y="531" on="0"/>
        <pt x="743" y="434" on="0"/>
        <pt x="745" y="347" on="0"/>
        <pt x="745" y="319" on="1"/>
        <pt x="757" y="347" on="0"/>
        <pt x="784" y="409" on="0"/>
        <pt x="809" y="467" on="0"/>
        <pt x="831" y="517" on="0"/>
        <pt x="840" y="532" on="1"/>
        <pt x="1208" y="1194" on="1"/>
        <pt x="1228" y="1229" on="0"/>
        <pt x="1245" y="1281" on="0"/>
        <pt x="1245" y="1303" on="1"/>
        <pt x="1245" y="1333" on="0"/>
        <pt x="1185" y="1354" on="0"/>
        <pt x="1126" y="1354" on="1"/>
        <pt x="1079" y="1354" on="1"/>
        <pt x="1100" y="1462" on="1"/>
        <pt x="1634" y="1462" on="1"/>
        <pt x="1612" y="1354" on="1"/>
        <pt x="1563" y="1354" on="1"/>
        <pt x="1533" y="1354" on="0"/>
        <pt x="1490" y="1344" on="0"/>
        <pt x="1452" y="1315" on="0"/>
        <pt x="1414" y="1261" on="0"/>
        <pt x="1389" y="1217" on="1"/>
        <pt x="707" y="0" on="1"/>
        <pt x="502" y="0" on="1"/>
        <pt x="330" y="1255" on="1"/>
        <pt x="325" y="1286" on="0"/>
        <pt x="302" y="1325" on="0"/>
        <pt x="269" y="1347" on="0"/>
        <pt x="226" y="1354" on="0"/>
        <pt x="201" y="1354" on="1"/>
        <pt x="174" y="1354" on="1"/>
        <pt x="197" y="1462" on="1"/>
        <pt x="872" y="1462" on="1"/>
        <pt x="850" y="1354" on="1"/>
        <pt x="803" y="1354" on="1"/>
        <pt x="737" y="1354" on="0"/>
        <pt x="659" y="1321" on="0"/>
      </contour>
    </TTGlyph>
    <TTGlyph name="W" xMin="176" yMin="0" xMax="2390" yMax="1462">
      <contour>
        <pt x="2367" y="1354" on="1"/>
        <pt x="2318" y="1354" on="1"/>
        <pt x="2288" y="1354" on="0"/>
        <pt x="2242" y="1342" on="0"/>
        <pt x="2203" y="1309" on="0"/>
        <pt x="2164" y="1250" on="0"/>
        <pt x="2142" y="1204" on="1"/>
        <pt x="1569" y="0" on="1"/>
        <pt x="1335" y="0" on="1"/>
        <pt x="1194" y="977" on="1"/>
        <pt x="696" y="0" on="1"/>
        <pt x="442" y="0" on="1"/>
        <pt x="332" y="1255" on="1"/>
        <pt x="329" y="1286" on="0"/>
        <pt x="307" y="1325" on="0"/>
        <pt x="272" y="1347" on="0"/>
        <pt x="228" y="1354" on="0"/>
        <pt x="203" y="1354" on="1"/>
        <pt x="176" y="1354" on="1"/>
        <pt x="199" y="1462" on="1"/>
        <pt x="868" y="1462" on="1"/>
        <pt x="846" y="1354" on="1"/>
        <pt x="799" y="1354" on="1"/>
        <pt x="733" y="1354" on="0"/>
        <pt x="655" y="1321" on="0"/>
        <pt x="655" y="1272" on="1"/>
        <pt x="655" y="1255" on="0"/>
        <pt x="657" y="1211" on="0"/>
        <pt x="659" y="1182" on="1"/>
        <pt x="698" y="672" on="1"/>
        <pt x="701" y="645" on="0"/>
        <pt x="707" y="556" on="0"/>
        <pt x="712" y="458" on="0"/>
        <pt x="715" y="363" on="0"/>
        <pt x="715" y="330" on="1"/>
        <pt x="736" y="390" on="0"/>
        <pt x="792" y="511" on="0"/>
        <pt x="823" y="571" on="1"/>
        <pt x="1280" y="1448" on="1"/>
        <pt x="1430" y="1448" on="1"/>
        <pt x="1546" y="666" on="1"/>
        <pt x="1560" y="569" on="0"/>
        <pt x="1581" y="392" on="0"/>
        <pt x="1581" y="326" on="1"/>
        <pt x="1593" y="360" on="0"/>
        <pt x="1627" y="450" on="0"/>
        <pt x="1668" y="551" on="0"/>
        <pt x="1714" y="655" on="0"/>
        <pt x="1737" y="705" on="1"/>
        <pt x="1964" y="1194" on="1"/>
        <pt x="1978" y="1223" on="0"/>
        <pt x="1995" y="1281" on="0"/>
        <pt x="1995" y="1303" on="1"/>
        <pt x="1995" y="1333" on="0"/>
        <pt x="1941" y="1354" on="0"/>
        <pt x="1882" y="1354" on="1"/>
        <pt x="1835" y="1354" on="1"/>
        <pt x="1855" y="1462" on="1"/>
        <pt x="2390" y="1462" on="1"/>
      </contour>
    </TTGlyph>
    <TTGlyph name="Wacute" xMin="176" yMin="0" xMax="2390" yMax="1907">
      <component glyphName="W" x="0" y="0" flags="0x204"/>
      <component glyphName="acute" x="772" y="338" flags="0x4"/>
    </TTGlyph>
    <TTGlyph name="Wcircumflex" xMin="176" yMin="0" xMax="2390" yMax="1907">
      <component glyphName="W" x="0" y="0" flags="0x204"/>
      <component glyphName="circumflex" x="647" y="338" flags="0x4"/>
    </TTGlyph>
    <TTGlyph name="Wdieresis" xMin="176" yMin="0" xMax="2390" yMax="1868">
      <component glyphName="W" x="0" y="0" flags="0x204"/>
      <component glyphName="dieresis" x="666" y="338" flags="0x4"/>
    </TTGlyph>
    <TTGlyph name="Wgrave" xMin="176" yMin="0" xMax="2390" yMax="1907">
      <component glyphName="W" x="0" y="0" flags="0x204"/>
      <component glyphName="grave" x="510" y="338" flags="0x4"/>
    </TTGlyph>
    <TTGlyph name="X" xMin="-86" yMin="0" xMax="1632" yMax="1462">
      <contour>
        <pt x="1610" y="1354" on="1"/>
        <pt x="1591" y="1354" on="1"/>
        <pt x="1561" y="1354" on="0"/>
        <pt x="1511" y="1340" on="0"/>
        <pt x="1458" y="1306" on="0"/>
        <pt x="1399" y="1250" on="0"/>
        <pt x="1360" y="1208" on="1"/>
        <pt x="975" y="803" on="1"/>
        <pt x="1227" y="217" on="1"/>
        <pt x="1255" y="154" on="0"/>
        <pt x="1330" y="109" on="0"/>
        <pt x="1368" y="109" on="1"/>
        <pt x="1395" y="109" on="1"/>
        <pt x="1372" y="0" on="1"/>
        <pt x="696" y="0" on="1"/>
        <pt x="719" y="109" on="1"/>
        <pt x="750" y="109" on="1"/>
        <pt x="811" y="109" on="0"/>
        <pt x="866" y="146" on="0"/>
        <pt x="866" y="180" on="1"/>
        <pt x="866" y="209" on="0"/>
        <pt x="846" y="280" on="0"/>
        <pt x="827" y="322" on="1"/>
        <pt x="702" y="604" on="1"/>
        <pt x="416" y="307" on="1"/>
        <pt x="379" y="269" on="0"/>
        <pt x="334" y="199" on="0"/>
        <pt x="334" y="170" on="1"/>
        <pt x="334" y="155" on="0"/>
        <pt x="344" y="133" on="0"/>
        <pt x="369" y="117" on="0"/>
        <pt x="412" y="109" on="0"/>
        <pt x="446" y="109" on="1"/>
        <pt x="453" y="109" on="1"/>
        <pt x="430" y="0" on="1"/>
        <pt x="-86" y="0" on="1"/>
        <pt x="-63" y="109" on="1"/>
        <pt x="-43" y="109" on="1"/>
        <pt x="-12" y="109" on="0"/>
        <pt x="41" y="124" on="0"/>
        <pt x="96" y="158" on="0"/>
        <pt x="159" y="214" on="0"/>
        <pt x="199" y="256" on="1"/>
        <pt x="651" y="723" on="1"/>
        <pt x="422" y="1249" on="1"/>
        <pt x="407" y="1283" on="0"/>
        <pt x="376" y="1325" on="0"/>
        <pt x="338" y="1347" on="0"/>
        <pt x="291" y="1354" on="0"/>
        <pt x="262" y="1354" on="1"/>
        <pt x="244" y="1354" on="1"/>
        <pt x="266" y="1462" on="1"/>
        <pt x="944" y="1462" on="1"/>
        <pt x="922" y="1354" on="1"/>
        <pt x="874" y="1354" on="1"/>
        <pt x="823" y="1354" on="0"/>
        <pt x="778" y="1324" on="0"/>
        <pt x="778" y="1296" on="1"/>
        <pt x="778" y="1276" on="0"/>
        <pt x="797" y="1217" on="0"/>
        <pt x="815" y="1174" on="1"/>
        <pt x="924" y="920" on="1"/>
        <pt x="1165" y="1178" on="1"/>
        <pt x="1193" y="1207" on="0"/>
        <pt x="1237" y="1275" on="0"/>
        <pt x="1237" y="1303" on="1"/>
        <pt x="1237" y="1329" on="0"/>
        <pt x="1187" y="1354" on="0"/>
        <pt x="1139" y="1354" on="1"/>
        <pt x="1133" y="1354" on="1"/>
        <pt x="1155" y="1462" on="1"/>
        <pt x="1632" y="1462" on="1"/>
      </contour>
    </TTGlyph>
    <TTGlyph name="Xi" xMin="0" yMin="0" xMax="1386" yMax="1462">
      <contour>
        <pt x="1139" y="0" on="1"/>
        <pt x="0" y="0" on="1"/>
        <pt x="86" y="465" on="1"/>
        <pt x="213" y="465" on="1"/>
        <pt x="207" y="403" on="1"/>
        <pt x="205" y="373" on="0"/>
        <pt x="214" y="317" on="0"/>
        <pt x="245" y="275" on="0"/>
        <pt x="302" y="250" on="0"/>
        <pt x="348" y="250" on="1"/>
        <pt x="895" y="250" on="1"/>
        <pt x="941" y="250" on="0"/>
        <pt x="1008" y="275" on="0"/>
        <pt x="1056" y="317" on="0"/>
        <pt x="1088" y="373" on="0"/>
        <pt x="1098" y="403" on="1"/>
        <pt x="1120" y="465" on="1"/>
        <pt x="1247" y="465" on="1"/>
      </contour>
      <contour>
        <pt x="1305" y="1022" on="1"/>
        <pt x="1178" y="1022" on="1"/>
        <pt x="1178" y="1085" on="1"/>
        <pt x="1178" y="1116" on="0"/>
        <pt x="1170" y="1171" on="0"/>
        <pt x="1142" y="1213" on="0"/>
        <pt x="1088" y="1237" on="0"/>
        <pt x="1042" y="1237" on="1"/>
        <pt x="618" y="1237" on="1"/>
        <pt x="572" y="1237" on="0"/>
        <pt x="505" y="1212" on="0"/>
        <pt x="457" y="1170" on="0"/>
        <pt x="424" y="1114" on="0"/>
        <pt x="414" y="1083" on="1"/>
        <pt x="393" y="1022" on="1"/>
        <pt x="266" y="1022" on="1"/>
        <pt x="369" y="1462" on="1"/>
        <pt x="1386" y="1462" on="1"/>
      </contour>
      <contour>
        <pt x="571" y="942" on="1"/>
        <pt x="573" y="903" on="1"/>
        <pt x="575" y="881" on="0"/>
        <pt x="582" y="846" on="0"/>
        <pt x="607" y="822" on="0"/>
        <pt x="659" y="809" on="0"/>
        <pt x="705" y="809" on="1"/>
        <pt x="776" y="809" on="1"/>
        <pt x="817" y="809" on="0"/>
        <pt x="874" y="822" on="0"/>
        <pt x="913" y="847" on="0"/>
        <pt x="938" y="882" on="0"/>
        <pt x="948" y="903" on="1"/>
        <pt x="967" y="942" on="1"/>
        <pt x="1073" y="942" on="1"/>
        <pt x="991" y="551" on="1"/>
        <pt x="885" y="551" on="1"/>
        <pt x="883" y="590" on="1"/>
        <pt x="882" y="611" on="0"/>
        <pt x="871" y="646" on="0"/>
        <pt x="842" y="671" on="0"/>
        <pt x="790" y="684" on="0"/>
        <pt x="750" y="684" on="1"/>
        <pt x="678" y="684" on="1"/>
        <pt x="632" y="684" on="0"/>
        <pt x="575" y="671" on="0"/>
        <pt x="540" y="647" on="0"/>
        <pt x="519" y="612" on="0"/>
        <pt x="508" y="590" on="1"/>
        <pt x="489" y="551" on="1"/>
        <pt x="383" y="551" on="1"/>
        <pt x="465" y="942" on="1"/>
      </contour>
    </TTGlyph>
    <TTGlyph name="Y" xMin="180" yMin="0" xMax="1620" yMax="1462">
      <contour>
        <pt x="227" y="0" on="1"/>
        <pt x="250" y="109" on="1"/>
        <pt x="305" y="109" on="1"/>
        <pt x="337" y="109" on="0"/>
        <pt x="397" y="118" on="0"/>
        <pt x="447" y="145" on="0"/>
        <pt x="483" y="193" on="0"/>
        <pt x="492" y="233" on="1"/>
        <pt x="551" y="518" on="1"/>
        <pt x="330" y="1245" on="1"/>
        <pt x="321" y="1275" on="0"/>
        <pt x="302" y="1317" on="0"/>
        <pt x="276" y="1342" on="0"/>
        <pt x="237" y="1354" on="0"/>
        <pt x="207" y="1354" on="1"/>
        <pt x="180" y="1354" on="1"/>
        <pt x="203" y="1462" on="1"/>
        <pt x="868" y="1462" on="1"/>
        <pt x="846" y="1354" on="1"/>
        <pt x="754" y="1354" on="1"/>
        <pt x="707" y="1354" on="0"/>
        <pt x="668" y="1322" on="0"/>
        <pt x="668" y="1294" on="1"/>
        <pt x="668" y="1276" on="0"/>
        <pt x="680" y="1208" on="0"/>
        <pt x="692" y="1161" on="1"/>
        <pt x="766" y="872" on="1"/>
        <pt x="773" y="842" on="0"/>
        <pt x="789" y="774" on="0"/>
        <pt x="802" y="706" on="0"/>
        <pt x="811" y="641" on="0"/>
        <pt x="813" y="616" on="1"/>
        <pt x="832" y="657" on="0"/>
        <pt x="910" y="783" on="0"/>
        <pt x="963" y="858" on="1"/>
        <pt x="1165" y="1147" on="1"/>
        <pt x="1190" y="1182" on="0"/>
        <pt x="1227" y="1264" on="0"/>
        <pt x="1227" y="1298" on="1"/>
        <pt x="1227" y="1326" on="0"/>
        <pt x="1170" y="1354" on="0"/>
        <pt x="1102" y="1354" on="1"/>
        <pt x="1059" y="1354" on="1"/>
        <pt x="1083" y="1462" on="1"/>
        <pt x="1620" y="1462" on="1"/>
        <pt x="1597" y="1354" on="1"/>
        <pt x="1559" y="1354" on="1"/>
        <pt x="1536" y="1354" on="0"/>
        <pt x="1497" y="1342" on="0"/>
        <pt x="1457" y="1311" on="0"/>
        <pt x="1412" y="1260" on="0"/>
        <pt x="1384" y="1221" on="1"/>
        <pt x="877" y="516" on="1"/>
        <pt x="815" y="225" on="1"/>
        <pt x="813" y="214" on="0"/>
        <pt x="807" y="186" on="0"/>
        <pt x="807" y="178" on="1"/>
        <pt x="807" y="156" on="0"/>
        <pt x="829" y="129" on="0"/>
        <pt x="869" y="114" on="0"/>
        <pt x="924" y="109" on="0"/>
        <pt x="956" y="109" on="1"/>
        <pt x="1006" y="109" on="1"/>
        <pt x="983" y="0" on="1"/>
      </contour>
    </TTGlyph>
    <TTGlyph name="Yacute" xMin="180" yMin="0" xMax="1620" yMax="1907">
      <component glyphName="Y" x="0" y="0" flags="0x204"/>
      <component glyphName="acute" x="328" y="338" flags="0x4"/>
    </TTGlyph>
    <TTGlyph name="Ycircumflex" xMin="180" yMin="0" xMax="1620" yMax="1907">
      <component glyphName="Y" x="0" y="0" flags="0x204"/>
      <component glyphName="circumflex" x="231" y="338" flags="0x4"/>
    </TTGlyph>
    <TTGlyph name="Ydieresis" xMin="180" yMin="0" xMax="1620" yMax="1868">
      <component glyphName="Y" x="0" y="0" flags="0x204"/>
      <component glyphName="dieresis" x="303" y="338" flags="0x4"/>
    </TTGlyph>
    <TTGlyph name="Ygrave" xMin="180" yMin="0" xMax="1620" yMax="1907">
      <component glyphName="Y" x="0" y="0" flags="0x204"/>
      <component glyphName="grave" x="82" y="338" flags="0x4"/>
    </TTGlyph>
    <TTGlyph name="Z" xMin="-4" yMin="0" xMax="1444" yMax="1462">
      <contour>
        <pt x="1423" y="1358" on="1"/>
        <pt x="412" y="125" on="1"/>
        <pt x="834" y="125" on="1"/>
        <pt x="880" y="125" on="0"/>
        <pt x="962" y="149" on="0"/>
        <pt x="1030" y="201" on="0"/>
        <pt x="1084" y="286" on="0"/>
        <pt x="1102" y="348" on="1"/>
        <pt x="1124" y="422" on="1"/>
        <pt x="1272" y="422" on="1"/>
        <pt x="1174" y="0" on="1"/>
        <pt x="-4" y="0" on="1"/>
        <pt x="14" y="102" on="1"/>
        <pt x="1024" y="1337" on="1"/>
        <pt x="668" y="1337" on="1"/>
        <pt x="575" y="1337" on="0"/>
        <pt x="462" y="1253" on="0"/>
        <pt x="436" y="1159" on="1"/>
        <pt x="401" y="1040" on="1"/>
        <pt x="254" y="1040" on="1"/>
        <pt x="354" y="1462" on="1"/>
        <pt x="1444" y="1462" on="1"/>
      </contour>
    </TTGlyph>
    <TTGlyph name="Zacute" xMin="-4" yMin="0" xMax="1444" yMax="1907">
      <component glyphName="Z" x="0" y="0" flags="0x204"/>
      <component glyphName="acute" x="266" y="338" flags="0x4"/>
    </TTGlyph>
    <TTGlyph name="Zcaron" xMin="-4" yMin="0" xMax="1444" yMax="1907">
      <component glyphName="Z" x="0" y="0" flags="0x204"/>
      <component glyphName="caron" x="184" y="338" flags="0x4"/>
    </TTGlyph>
    <TTGlyph name="Zdotaccent" xMin="-4" yMin="0" xMax="1444" yMax="1915">
      <component glyphName="Z" x="0" y="0" flags="0x204"/>
      <component glyphName="dotaccent" x="434" y="338" flags="0x4"/>
    </TTGlyph>
    <TTGlyph name="Zeta" xMin="-4" yMin="0" xMax="1444" yMax="1462">
      <component glyphName="Z" x="0" y="0" flags="0x204"/>
    </TTGlyph>
    <TTGlyph name="a" xMin="82" yMin="-20" xMax="1292" yMax="1118">
      <contour>
        <pt x="969" y="-20" on="1"/>
        <pt x="878" y="-20" on="0"/>
        <pt x="768" y="63" on="0"/>
        <pt x="768" y="143" on="1"/>
        <pt x="768" y="175" on="0"/>
        <pt x="774" y="236" on="0"/>
        <pt x="782" y="276" on="1"/>
        <pt x="768" y="276" on="1"/>
        <pt x="730" y="205" on="0"/>
        <pt x="655" y="94" on="0"/>
        <pt x="563" y="19" on="0"/>
        <pt x="450" y="-20" on="0"/>
        <pt x="375" y="-20" on="1"/>
        <pt x="302" y="-20" on="0"/>
        <pt x="192" y="37" on="0"/>
        <pt x="119" y="137" on="0"/>
        <pt x="82" y="274" on="0"/>
        <pt x="82" y="354" on="1"/>
        <pt x="82" y="434" on="0"/>
        <pt x="119" y="609" on="0"/>
        <pt x="193" y="779" on="0"/>
        <pt x="302" y="933" on="0"/>
        <pt x="445" y="1049" on="0"/>
        <pt x="621" y="1118" on="0"/>
        <pt x="725" y="1118" on="1"/>
        <pt x="765" y="1118" on="0"/>
        <pt x="848" y="1105" on="0"/>
        <pt x="924" y="1085" on="0"/>
        <pt x="991" y="1060" on="0"/>
        <pt x="1014" y="1047" on="1"/>
        <pt x="1122" y="1096" on="1"/>
        <pt x="1231" y="1096" on="1"/>
        <pt x="1096" y="457" on="1"/>
        <pt x="1092" y="440" on="0"/>
        <pt x="1080" y="384" on="0"/>
        <pt x="1069" y="321" on="0"/>
        <pt x="1061" y="262" on="0"/>
        <pt x="1061" y="242" on="1"/>
        <pt x="1061" y="191" on="0"/>
        <pt x="1101" y="141" on="0"/>
        <pt x="1133" y="141" on="1"/>
        <pt x="1162" y="141" on="0"/>
        <pt x="1215" y="166" on="0"/>
        <pt x="1247" y="184" on="1"/>
        <pt x="1292" y="102" on="1"/>
        <pt x="1266" y="82" on="0"/>
        <pt x="1200" y="39" on="0"/>
        <pt x="1119" y="3" on="0"/>
        <pt x="1024" y="-20" on="0"/>
      </contour>
      <contour>
        <pt x="393" y="352" on="1"/>
        <pt x="393" y="293" on="0"/>
        <pt x="410" y="213" on="0"/>
        <pt x="439" y="164" on="0"/>
        <pt x="480" y="143" on="0"/>
        <pt x="504" y="143" on="1"/>
        <pt x="549" y="143" on="0"/>
        <pt x="645" y="221" on="0"/>
        <pt x="729" y="348" on="0"/>
        <pt x="796" y="508" on="0"/>
        <pt x="813" y="590" on="1"/>
        <pt x="885" y="930" on="1"/>
        <pt x="865" y="959" on="0"/>
        <pt x="794" y="987" on="0"/>
        <pt x="754" y="987" on="1"/>
        <pt x="694" y="987" on="0"/>
        <pt x="595" y="925" on="0"/>
        <pt x="515" y="821" on="0"/>
        <pt x="454" y="689" on="0"/>
        <pt x="413" y="547" on="0"/>
        <pt x="393" y="409" on="0"/>
      </contour>
    </TTGlyph>
    <TTGlyph name="aacute" xMin="82" yMin="-20" xMax="1292" yMax="1569">
      <component glyphName="a" x="0" y="0" flags="0x204"/>
      <component glyphName="acute" x="133" y="0" flags="0x4"/>
    </TTGlyph>
    <TTGlyph name="abreve" xMin="82" yMin="-20" xMax="1292" yMax="1563">
      <component glyphName="a" x="0" y="0" flags="0x204"/>
      <component glyphName="breve" x="186" y="0" flags="0x4"/>
    </TTGlyph>
    <TTGlyph name="acircumflex" xMin="82" yMin="-20" xMax="1292" yMax="1569">
      <component glyphName="a" x="0" y="0" flags="0x204"/>
      <component glyphName="circumflex" x="59" y="0" flags="0x4"/>
    </TTGlyph>
    <TTGlyph name="acute" xMin="498" yMin="1241" xMax="1069" yMax="1569">
      <contour>
        <pt x="504" y="1268" on="1"/>
        <pt x="532" y="1297" on="0"/>
        <pt x="598" y="1373" on="0"/>
        <pt x="663" y="1454" on="0"/>
        <pt x="724" y="1534" on="0"/>
        <pt x="748" y="1569" on="1"/>
        <pt x="1069" y="1569" on="1"/>
        <pt x="1063" y="1548" on="1"/>
        <pt x="1047" y="1530" on="0"/>
        <pt x="991" y="1481" on="0"/>
        <pt x="920" y="1425" on="0"/>
        <pt x="839" y="1366" on="0"/>
        <pt x="755" y="1310" on="0"/>
        <pt x="673" y="1259" on="0"/>
        <pt x="637" y="1241" on="1"/>
        <pt x="498" y="1241" on="1"/>
      </contour>
    </TTGlyph>
    <TTGlyph name="acutecomb" xMin="-713" yMin="1241" xMax="-142" yMax="1569">
      <component glyphName="acute" x="-1211" y="0" flags="0x4"/>
    </TTGlyph>
    <TTGlyph name="adieresis" xMin="82" yMin="-20" xMax="1292" yMax="1530">
      <component glyphName="a" x="0" y="0" flags="0x204"/>
      <component glyphName="dieresis" x="43" y="0" flags="0x4"/>
    </TTGlyph>
    <TTGlyph name="ae" xMin="82" yMin="-20" xMax="1792" yMax="1122">
      <contour>
        <pt x="1325" y="135" on="1"/>
        <pt x="1375" y="135" on="0"/>
        <pt x="1465" y="164" on="0"/>
        <pt x="1541" y="211" on="0"/>
        <pt x="1603" y="270" on="0"/>
        <pt x="1624" y="301" on="1"/>
        <pt x="1636" y="286" on="0"/>
        <pt x="1651" y="239" on="0"/>
        <pt x="1651" y="213" on="1"/>
        <pt x="1651" y="176" on="0"/>
        <pt x="1603" y="94" on="0"/>
        <pt x="1504" y="25" on="0"/>
        <pt x="1350" y="-20" on="0"/>
        <pt x="1245" y="-20" on="1"/>
        <pt x="1058" y="-20" on="0"/>
        <pt x="833" y="130" on="0"/>
        <pt x="795" y="276" on="1"/>
        <pt x="776" y="276" on="1"/>
        <pt x="738" y="205" on="0"/>
        <pt x="660" y="94" on="0"/>
        <pt x="566" y="19" on="0"/>
        <pt x="450" y="-20" on="0"/>
        <pt x="375" y="-20" on="1"/>
        <pt x="302" y="-20" on="0"/>
        <pt x="192" y="37" on="0"/>
        <pt x="119" y="137" on="0"/>
        <pt x="82" y="274" on="0"/>
        <pt x="82" y="354" on="1"/>
        <pt x="82" y="434" on="0"/>
        <pt x="119" y="609" on="0"/>
        <pt x="193" y="779" on="0"/>
        <pt x="302" y="933" on="0"/>
        <pt x="445" y="1049" on="0"/>
        <pt x="621" y="1118" on="0"/>
        <pt x="725" y="1118" on="1"/>
        <pt x="828" y="1118" on="0"/>
        <pt x="994" y="1055" on="0"/>
        <pt x="1065" y="993" on="1"/>
        <pt x="1145" y="1055" on="0"/>
        <pt x="1348" y="1122" on="0"/>
        <pt x="1473" y="1122" on="1"/>
        <pt x="1627" y="1122" on="0"/>
        <pt x="1792" y="995" on="0"/>
        <pt x="1792" y="881" on="1"/>
        <pt x="1792" y="798" on="0"/>
        <pt x="1700" y="645" on="0"/>
        <pt x="1538" y="528" on="0"/>
        <pt x="1314" y="459" on="0"/>
        <pt x="1182" y="459" on="1"/>
        <pt x="1165" y="459" on="0"/>
        <pt x="1124" y="459" on="0"/>
        <pt x="1106" y="461" on="1"/>
        <pt x="1103" y="441" on="0"/>
        <pt x="1102" y="400" on="0"/>
        <pt x="1102" y="383" on="1"/>
        <pt x="1102" y="264" on="0"/>
        <pt x="1213" y="135" on="0"/>
      </contour>
      <contour>
        <pt x="393" y="352" on="1"/>
        <pt x="393" y="293" on="0"/>
        <pt x="410" y="213" on="0"/>
        <pt x="439" y="164" on="0"/>
        <pt x="480" y="143" on="0"/>
        <pt x="504" y="143" on="1"/>
        <pt x="541" y="143" on="0"/>
        <pt x="621" y="199" on="0"/>
        <pt x="696" y="292" on="0"/>
        <pt x="762" y="415" on="0"/>
        <pt x="786" y="483" on="1"/>
        <pt x="796" y="536" on="0"/>
        <pt x="824" y="645" on="0"/>
        <pt x="863" y="749" on="0"/>
        <pt x="912" y="847" on="0"/>
        <pt x="944" y="889" on="1"/>
        <pt x="934" y="904" on="0"/>
        <pt x="895" y="938" on="0"/>
        <pt x="844" y="967" on="0"/>
        <pt x="785" y="987" on="0"/>
        <pt x="754" y="987" on="1"/>
        <pt x="694" y="987" on="0"/>
        <pt x="595" y="925" on="0"/>
        <pt x="515" y="821" on="0"/>
        <pt x="454" y="689" on="0"/>
        <pt x="413" y="547" on="0"/>
        <pt x="393" y="409" on="0"/>
      </contour>
      <contour>
        <pt x="1397" y="999" on="1"/>
        <pt x="1364" y="999" on="0"/>
        <pt x="1301" y="964" on="0"/>
        <pt x="1245" y="903" on="0"/>
        <pt x="1197" y="821" on="0"/>
        <pt x="1157" y="727" on="0"/>
        <pt x="1128" y="627" on="0"/>
        <pt x="1120" y="578" on="1"/>
        <pt x="1139" y="578" on="1"/>
        <pt x="1215" y="578" on="0"/>
        <pt x="1346" y="620" on="0"/>
        <pt x="1442" y="695" on="0"/>
        <pt x="1497" y="801" on="0"/>
        <pt x="1497" y="866" on="1"/>
        <pt x="1497" y="929" on="0"/>
        <pt x="1445" y="999" on="0"/>
      </contour>
    </TTGlyph>
    <TTGlyph name="aeacute" xMin="82" yMin="-20" xMax="1792" yMax="1569">
      <component glyphName="ae" x="0" y="0" flags="0x204"/>
      <component glyphName="acute" x="436" y="0" flags="0x4"/>
    </TTGlyph>
    <TTGlyph name="afii00208" xMin="-25" yMin="477" xMax="2073" yMax="623">
      <contour>
        <pt x="2042" y="477" on="1"/>
        <pt x="-25" y="477" on="1"/>
        <pt x="4" y="623" on="1"/>
        <pt x="2073" y="623" on="1"/>
      </contour>
    </TTGlyph>
    <TTGlyph name="afii10017" xMin="-100" yMin="0" xMax="1456" yMax="1462">
      <component glyphName="A" x="0" y="0" flags="0x204"/>
    </TTGlyph>
    <TTGlyph name="afii10018" xMin="-47" yMin="0" xMax="1356" yMax="1462">
      <contour>
        <pt x="489" y="125" on="1"/>
        <pt x="590" y="125" on="1"/>
        <pt x="677" y="125" on="0"/>
        <pt x="795" y="176" on="0"/>
        <pt x="867" y="266" on="0"/>
        <pt x="899" y="387" on="0"/>
        <pt x="899" y="457" on="1"/>
        <pt x="899" y="586" on="0"/>
        <pt x="796" y="702" on="0"/>
        <pt x="690" y="702" on="1"/>
        <pt x="612" y="702" on="1"/>
      </contour>
      <contour>
        <pt x="1284" y="1065" on="1"/>
        <pt x="1139" y="1065" on="1"/>
        <pt x="1140" y="1072" on="0"/>
        <pt x="1143" y="1108" on="0"/>
        <pt x="1146" y="1152" on="0"/>
        <pt x="1149" y="1197" on="0"/>
        <pt x="1149" y="1212" on="1"/>
        <pt x="1149" y="1269" on="0"/>
        <pt x="1083" y="1337" on="0"/>
        <pt x="1004" y="1337" on="1"/>
        <pt x="745" y="1337" on="1"/>
        <pt x="639" y="829" on="1"/>
        <pt x="752" y="829" on="1"/>
        <pt x="993" y="829" on="0"/>
        <pt x="1237" y="653" on="0"/>
        <pt x="1237" y="467" on="1"/>
        <pt x="1237" y="355" on="0"/>
        <pt x="1161" y="181" on="0"/>
        <pt x="1013" y="62" on="0"/>
        <pt x="792" y="0" on="0"/>
        <pt x="647" y="0" on="1"/>
        <pt x="-47" y="0" on="1"/>
        <pt x="-25" y="109" on="1"/>
        <pt x="2" y="109" on="1"/>
        <pt x="34" y="109" on="0"/>
        <pt x="95" y="117" on="0"/>
        <pt x="145" y="143" on="0"/>
        <pt x="182" y="191" on="0"/>
        <pt x="190" y="231" on="1"/>
        <pt x="397" y="1204" on="1"/>
        <pt x="404" y="1233" on="0"/>
        <pt x="412" y="1276" on="0"/>
        <pt x="412" y="1284" on="1"/>
        <pt x="412" y="1306" on="0"/>
        <pt x="390" y="1334" on="0"/>
        <pt x="351" y="1349" on="0"/>
        <pt x="296" y="1354" on="0"/>
        <pt x="264" y="1354" on="1"/>
        <pt x="238" y="1354" on="1"/>
        <pt x="260" y="1462" on="1"/>
        <pt x="1356" y="1462" on="1"/>
      </contour>
    </TTGlyph>
    <TTGlyph name="afii10019" xMin="-47" yMin="0" xMax="1374" yMax="1462">
      <component glyphName="B" x="0" y="0" flags="0x204"/>
    </TTGlyph>
    <TTGlyph name="afii10020" xMin="-47" yMin="0" xMax="1376" yMax="1462">
      <component glyphName="Gamma" x="0" y="0" flags="0x204"/>
    </TTGlyph>
    <TTGlyph name="afii10021" xMin="-186" yMin="-430" xMax="1561" yMax="1462">
      <contour>
        <pt x="834" y="1337" on="1"/>
        <pt x="812" y="1236" on="0"/>
        <pt x="734" y="1023" on="0"/>
        <pt x="633" y="808" on="0"/>
        <pt x="514" y="596" on="0"/>
        <pt x="390" y="394" on="0"/>
        <pt x="265" y="207" on="0"/>
        <pt x="209" y="125" on="1"/>
        <pt x="782" y="125" on="1"/>
        <pt x="1040" y="1337" on="1"/>
      </contour>
      <contour>
        <pt x="1196" y="-430" on="1"/>
        <pt x="1061" y="-430" on="1"/>
        <pt x="1072" y="-379" on="0"/>
        <pt x="1083" y="-292" on="0"/>
        <pt x="1083" y="-254" on="1"/>
        <pt x="1083" y="-122" on="0"/>
        <pt x="960" y="0" on="0"/>
        <pt x="850" y="0" on="1"/>
        <pt x="342" y="0" on="1"/>
        <pt x="272" y="0" on="0"/>
        <pt x="151" y="-49" on="0"/>
        <pt x="51" y="-154" on="0"/>
        <pt x="-25" y="-316" on="0"/>
        <pt x="-49" y="-430" on="1"/>
        <pt x="-186" y="-430" on="1"/>
        <pt x="-66" y="125" on="1"/>
        <pt x="55" y="125" on="1"/>
        <pt x="127" y="226" on="0"/>
        <pt x="267" y="430" on="0"/>
        <pt x="395" y="631" on="0"/>
        <pt x="508" y="828" on="0"/>
        <pt x="599" y="1015" on="0"/>
        <pt x="665" y="1190" on="0"/>
        <pt x="682" y="1270" on="1"/>
        <pt x="684" y="1275" on="0"/>
        <pt x="686" y="1289" on="0"/>
        <pt x="686" y="1294" on="1"/>
        <pt x="686" y="1316" on="0"/>
        <pt x="658" y="1341" on="0"/>
        <pt x="612" y="1352" on="0"/>
        <pt x="553" y="1354" on="0"/>
        <pt x="522" y="1354" on="1"/>
        <pt x="516" y="1354" on="1"/>
        <pt x="539" y="1462" on="1"/>
        <pt x="1561" y="1462" on="1"/>
        <pt x="1538" y="1354" on="1"/>
        <pt x="1526" y="1354" on="1"/>
        <pt x="1492" y="1354" on="0"/>
        <pt x="1432" y="1345" on="0"/>
        <pt x="1383" y="1319" on="0"/>
        <pt x="1348" y="1269" on="0"/>
        <pt x="1339" y="1229" on="1"/>
        <pt x="1139" y="283" on="1"/>
        <pt x="1132" y="254" on="0"/>
        <pt x="1124" y="203" on="0"/>
        <pt x="1124" y="195" on="1"/>
        <pt x="1124" y="172" on="0"/>
        <pt x="1147" y="145" on="0"/>
        <pt x="1187" y="130" on="0"/>
        <pt x="1242" y="125" on="0"/>
        <pt x="1274" y="125" on="1"/>
        <pt x="1315" y="125" on="1"/>
      </contour>
    </TTGlyph>
    <TTGlyph name="afii10022" xMin="-47" yMin="0" xMax="1372" yMax="1462">
      <component glyphName="E" x="0" y="0" flags="0x204"/>
    </TTGlyph>
    <TTGlyph name="afii10023" xMin="-47" yMin="0" xMax="1372" yMax="1868">
      <component glyphName="E" x="0" y="0" flags="0x204"/>
      <component glyphName="dieresis" x="195" y="338" flags="0x4"/>
    </TTGlyph>
    <TTGlyph name="afii10024" xMin="-119" yMin="0" xMax="2263" yMax="1475">
      <contour>
        <pt x="618" y="0" on="1"/>
        <pt x="641" y="109" on="1"/>
        <pt x="668" y="109" on="1"/>
        <pt x="700" y="109" on="0"/>
        <pt x="761" y="117" on="0"/>
        <pt x="811" y="143" on="0"/>
        <pt x="848" y="191" on="0"/>
        <pt x="856" y="231" on="1"/>
        <pt x="950" y="676" on="1"/>
        <pt x="887" y="674" on="0"/>
        <pt x="806" y="656" on="0"/>
        <pt x="751" y="622" on="0"/>
        <pt x="710" y="572" on="0"/>
        <pt x="688" y="539" on="1"/>
        <pt x="451" y="188" on="1"/>
        <pt x="408" y="125" on="0"/>
        <pt x="326" y="50" on="0"/>
        <pt x="218" y="11" on="0"/>
        <pt x="70" y="0" on="0"/>
        <pt x="-39" y="0" on="1"/>
        <pt x="-119" y="0" on="1"/>
        <pt x="-96" y="113" on="1"/>
        <pt x="-90" y="113" on="1"/>
        <pt x="-26" y="113" on="0"/>
        <pt x="98" y="186" on="0"/>
        <pt x="158" y="270" on="1"/>
        <pt x="393" y="602" on="1"/>
        <pt x="424" y="648" on="0"/>
        <pt x="496" y="712" on="0"/>
        <pt x="580" y="752" on="0"/>
        <pt x="678" y="772" on="0"/>
        <pt x="737" y="774" on="1"/>
        <pt x="702" y="800" on="0"/>
        <pt x="624" y="942" on="0"/>
        <pt x="584" y="1067" on="1"/>
        <pt x="564" y="1126" on="0"/>
        <pt x="531" y="1213" on="0"/>
        <pt x="495" y="1270" on="0"/>
        <pt x="449" y="1298" on="0"/>
        <pt x="418" y="1298" on="1"/>
        <pt x="391" y="1298" on="0"/>
        <pt x="349" y="1280" on="0"/>
        <pt x="316" y="1248" on="0"/>
        <pt x="292" y="1207" on="0"/>
        <pt x="283" y="1184" on="1"/>
        <pt x="248" y="1198" on="0"/>
        <pt x="209" y="1259" on="0"/>
        <pt x="209" y="1313" on="1"/>
        <pt x="209" y="1387" on="0"/>
        <pt x="308" y="1475" on="0"/>
        <pt x="399" y="1475" on="1"/>
        <pt x="466" y="1475" on="0"/>
        <pt x="559" y="1429" on="0"/>
        <pt x="626" y="1343" on="0"/>
        <pt x="675" y="1221" on="0"/>
        <pt x="698" y="1145" on="1"/>
        <pt x="718" y="1080" on="0"/>
        <pt x="753" y="984" on="0"/>
        <pt x="785" y="916" on="0"/>
        <pt x="812" y="871" on="0"/>
        <pt x="825" y="856" on="1"/>
        <pt x="838" y="841" on="0"/>
        <pt x="865" y="817" on="0"/>
        <pt x="899" y="801" on="0"/>
        <pt x="943" y="793" on="0"/>
        <pt x="973" y="793" on="1"/>
        <pt x="1069" y="1237" on="1"/>
        <pt x="1072" y="1248" on="0"/>
        <pt x="1077" y="1276" on="0"/>
        <pt x="1077" y="1284" on="1"/>
        <pt x="1077" y="1306" on="0"/>
        <pt x="1055" y="1334" on="0"/>
        <pt x="1016" y="1349" on="0"/>
        <pt x="962" y="1354" on="0"/>
        <pt x="930" y="1354" on="1"/>
        <pt x="903" y="1354" on="1"/>
        <pt x="926" y="1462" on="1"/>
        <pt x="1591" y="1462" on="1"/>
        <pt x="1569" y="1354" on="1"/>
        <pt x="1542" y="1354" on="1"/>
        <pt x="1508" y="1354" on="0"/>
        <pt x="1445" y="1345" on="0"/>
        <pt x="1394" y="1319" on="0"/>
        <pt x="1356" y="1269" on="0"/>
        <pt x="1348" y="1229" on="1"/>
        <pt x="1255" y="793" on="1"/>
        <pt x="1330" y="793" on="0"/>
        <pt x="1428" y="826" on="0"/>
        <pt x="1462" y="858" on="1"/>
        <pt x="1494" y="889" on="0"/>
        <pt x="1595" y="1029" on="0"/>
        <pt x="1669" y="1145" on="1"/>
        <pt x="1725" y="1233" on="0"/>
        <pt x="1826" y="1358" on="0"/>
        <pt x="1928" y="1438" on="0"/>
        <pt x="2037" y="1475" on="0"/>
        <pt x="2101" y="1475" on="1"/>
        <pt x="2185" y="1475" on="0"/>
        <pt x="2263" y="1409" on="0"/>
        <pt x="2263" y="1354" on="1"/>
        <pt x="2263" y="1319" on="0"/>
        <pt x="2240" y="1260" on="0"/>
        <pt x="2199" y="1218" on="0"/>
        <pt x="2142" y="1195" on="0"/>
        <pt x="2109" y="1194" on="1"/>
        <pt x="2109" y="1213" on="0"/>
        <pt x="2101" y="1251" on="0"/>
        <pt x="2080" y="1281" on="0"/>
        <pt x="2046" y="1300" on="0"/>
        <pt x="2021" y="1300" on="1"/>
        <pt x="1968" y="1300" on="0"/>
        <pt x="1844" y="1193" on="0"/>
        <pt x="1765" y="1073" on="1"/>
        <pt x="1726" y="1013" on="0"/>
        <pt x="1663" y="919" on="0"/>
        <pt x="1608" y="848" on="0"/>
        <pt x="1558" y="798" on="0"/>
        <pt x="1532" y="782" on="1"/>
        <pt x="1570" y="775" on="0"/>
        <pt x="1632" y="741" on="0"/>
        <pt x="1685" y="682" on="0"/>
        <pt x="1731" y="596" on="0"/>
        <pt x="1753" y="537" on="1"/>
        <pt x="1860" y="250" on="1"/>
        <pt x="1874" y="211" on="0"/>
        <pt x="1918" y="158" on="0"/>
        <pt x="1974" y="124" on="0"/>
        <pt x="2038" y="109" on="0"/>
        <pt x="2073" y="109" on="1"/>
        <pt x="2079" y="109" on="1"/>
        <pt x="2054" y="0" on="1"/>
        <pt x="1925" y="0" on="1"/>
        <pt x="1843" y="0" on="0"/>
        <pt x="1718" y="17" on="0"/>
        <pt x="1626" y="63" on="0"/>
        <pt x="1563" y="141" on="0"/>
        <pt x="1542" y="203" on="1"/>
        <pt x="1432" y="530" on="1"/>
        <pt x="1417" y="574" on="0"/>
        <pt x="1384" y="630" on="0"/>
        <pt x="1338" y="663" on="0"/>
        <pt x="1275" y="676" on="0"/>
        <pt x="1231" y="676" on="1"/>
        <pt x="1137" y="225" on="1"/>
        <pt x="1135" y="214" on="0"/>
        <pt x="1128" y="186" on="0"/>
        <pt x="1128" y="178" on="1"/>
        <pt x="1128" y="156" on="0"/>
        <pt x="1151" y="129" on="0"/>
        <pt x="1191" y="114" on="0"/>
        <pt x="1246" y="109" on="0"/>
        <pt x="1278" y="109" on="1"/>
        <pt x="1305" y="109" on="1"/>
        <pt x="1282" y="0" on="1"/>
      </contour>
    </TTGlyph>
    <TTGlyph name="afii10025" xMin="10" yMin="-23" xMax="1245" yMax="1483">
      <contour>
        <pt x="510" y="-23" on="1"/>
        <pt x="389" y="-23" on="0"/>
        <pt x="203" y="19" on="0"/>
        <pt x="76" y="96" on="0"/>
        <pt x="10" y="202" on="0"/>
        <pt x="10" y="266" on="1"/>
        <pt x="10" y="305" on="0"/>
        <pt x="40" y="368" on="0"/>
        <pt x="96" y="413" on="0"/>
        <pt x="173" y="438" on="0"/>
        <pt x="221" y="438" on="1"/>
        <pt x="221" y="378" on="0"/>
        <pt x="263" y="261" on="0"/>
        <pt x="343" y="168" on="0"/>
        <pt x="461" y="111" on="0"/>
        <pt x="537" y="111" on="1"/>
        <pt x="599" y="111" on="0"/>
        <pt x="706" y="151" on="0"/>
        <pt x="784" y="231" on="0"/>
        <pt x="829" y="351" on="0"/>
        <pt x="829" y="430" on="1"/>
        <pt x="829" y="486" on="0"/>
        <pt x="792" y="582" on="0"/>
        <pt x="715" y="652" on="0"/>
        <pt x="598" y="692" on="0"/>
        <pt x="518" y="692" on="1"/>
        <pt x="358" y="692" on="1"/>
        <pt x="381" y="819" on="1"/>
        <pt x="555" y="819" on="1"/>
        <pt x="636" y="819" on="0"/>
        <pt x="777" y="864" on="0"/>
        <pt x="883" y="949" on="0"/>
        <pt x="944" y="1073" on="0"/>
        <pt x="944" y="1151" on="1"/>
        <pt x="944" y="1196" on="0"/>
        <pt x="922" y="1273" on="0"/>
        <pt x="873" y="1329" on="0"/>
        <pt x="796" y="1360" on="0"/>
        <pt x="741" y="1360" on="1"/>
        <pt x="673" y="1360" on="0"/>
        <pt x="580" y="1311" on="0"/>
        <pt x="519" y="1225" on="0"/>
        <pt x="483" y="1111" on="0"/>
        <pt x="473" y="1047" on="1"/>
        <pt x="425" y="1047" on="0"/>
        <pt x="341" y="1063" on="0"/>
        <pt x="278" y="1100" on="0"/>
        <pt x="242" y="1160" on="0"/>
        <pt x="242" y="1204" on="1"/>
        <pt x="242" y="1266" on="0"/>
        <pt x="329" y="1369" on="0"/>
        <pt x="474" y="1442" on="0"/>
        <pt x="664" y="1483" on="0"/>
        <pt x="768" y="1483" on="1"/>
        <pt x="874" y="1483" on="0"/>
        <pt x="1050" y="1440" on="0"/>
        <pt x="1176" y="1358" on="0"/>
        <pt x="1245" y="1239" on="0"/>
        <pt x="1245" y="1163" on="1"/>
        <pt x="1245" y="1074" on="0"/>
        <pt x="1180" y="933" on="0"/>
        <pt x="1068" y="831" on="0"/>
        <pt x="916" y="768" on="0"/>
        <pt x="829" y="758" on="1"/>
        <pt x="878" y="752" on="0"/>
        <pt x="989" y="710" on="0"/>
        <pt x="1082" y="634" on="0"/>
        <pt x="1143" y="520" on="0"/>
        <pt x="1143" y="442" on="1"/>
        <pt x="1143" y="324" on="0"/>
        <pt x="1053" y="149" on="0"/>
        <pt x="888" y="34" on="0"/>
        <pt x="654" y="-23" on="0"/>
      </contour>
    </TTGlyph>
    <TTGlyph name="afii10026" xMin="-47" yMin="0" xMax="1823" yMax="1462">
      <contour>
        <pt x="1202" y="963" on="1"/>
        <pt x="524" y="289" on="1"/>
        <pt x="516" y="248" on="1"/>
        <pt x="504" y="192" on="0"/>
        <pt x="504" y="178" on="1"/>
        <pt x="504" y="156" on="0"/>
        <pt x="526" y="129" on="0"/>
        <pt x="566" y="114" on="0"/>
        <pt x="621" y="109" on="0"/>
        <pt x="653" y="109" on="1"/>
        <pt x="680" y="109" on="1"/>
        <pt x="657" y="0" on="1"/>
        <pt x="-47" y="0" on="1"/>
        <pt x="-25" y="109" on="1"/>
        <pt x="2" y="109" on="1"/>
        <pt x="34" y="109" on="0"/>
        <pt x="95" y="117" on="0"/>
        <pt x="145" y="143" on="0"/>
        <pt x="182" y="191" on="0"/>
        <pt x="190" y="231" on="1"/>
        <pt x="399" y="1214" on="1"/>
        <pt x="412" y="1267" on="0"/>
        <pt x="412" y="1284" on="1"/>
        <pt x="412" y="1306" on="0"/>
        <pt x="390" y="1334" on="0"/>
        <pt x="351" y="1349" on="0"/>
        <pt x="296" y="1354" on="0"/>
        <pt x="264" y="1354" on="1"/>
        <pt x="238" y="1354" on="1"/>
        <pt x="260" y="1462" on="1"/>
        <pt x="967" y="1462" on="1"/>
        <pt x="944" y="1354" on="1"/>
        <pt x="918" y="1354" on="1"/>
        <pt x="884" y="1354" on="0"/>
        <pt x="821" y="1345" on="0"/>
        <pt x="769" y="1319" on="0"/>
        <pt x="731" y="1269" on="0"/>
        <pt x="723" y="1229" on="1"/>
        <pt x="569" y="502" on="1"/>
        <pt x="1249" y="1180" on="1"/>
        <pt x="1255" y="1202" on="1"/>
        <pt x="1258" y="1211" on="0"/>
        <pt x="1263" y="1237" on="0"/>
        <pt x="1267" y="1261" on="0"/>
        <pt x="1270" y="1280" on="0"/>
        <pt x="1270" y="1284" on="1"/>
        <pt x="1270" y="1306" on="0"/>
        <pt x="1247" y="1334" on="0"/>
        <pt x="1207" y="1349" on="0"/>
        <pt x="1152" y="1354" on="0"/>
        <pt x="1120" y="1354" on="1"/>
        <pt x="1094" y="1354" on="1"/>
        <pt x="1116" y="1462" on="1"/>
        <pt x="1823" y="1462" on="1"/>
        <pt x="1800" y="1354" on="1"/>
        <pt x="1774" y="1354" on="1"/>
        <pt x="1741" y="1354" on="0"/>
        <pt x="1679" y="1345" on="0"/>
        <pt x="1627" y="1319" on="0"/>
        <pt x="1590" y="1269" on="0"/>
        <pt x="1581" y="1229" on="1"/>
        <pt x="1370" y="225" on="1"/>
        <pt x="1367" y="214" on="0"/>
        <pt x="1362" y="186" on="0"/>
        <pt x="1362" y="178" on="1"/>
        <pt x="1362" y="156" on="0"/>
        <pt x="1384" y="129" on="0"/>
        <pt x="1423" y="114" on="0"/>
        <pt x="1477" y="109" on="0"/>
        <pt x="1509" y="109" on="1"/>
        <pt x="1536" y="109" on="1"/>
        <pt x="1513" y="0" on="1"/>
        <pt x="807" y="0" on="1"/>
        <pt x="829" y="109" on="1"/>
        <pt x="856" y="109" on="1"/>
        <pt x="889" y="109" on="0"/>
        <pt x="951" y="117" on="0"/>
        <pt x="1003" y="144" on="0"/>
        <pt x="1040" y="192" on="0"/>
        <pt x="1049" y="233" on="1"/>
      </contour>
    </TTGlyph>
    <TTGlyph name="afii10027" xMin="-47" yMin="0" xMax="1823" yMax="1944">
      <component glyphName="afii10026" x="0" y="0" flags="0x204"/>
      <component glyphName="glyph00566" x="324" y="338" flags="0x4"/>
    </TTGlyph>
    <TTGlyph name="afii10028" xMin="-47" yMin="0" xMax="1638" yMax="1475">
      <contour>
        <pt x="-47" y="0" on="1"/>
        <pt x="-25" y="109" on="1"/>
        <pt x="2" y="109" on="1"/>
        <pt x="34" y="109" on="0"/>
        <pt x="95" y="117" on="0"/>
        <pt x="145" y="143" on="0"/>
        <pt x="182" y="191" on="0"/>
        <pt x="190" y="231" on="1"/>
        <pt x="403" y="1237" on="1"/>
        <pt x="407" y="1248" on="0"/>
        <pt x="412" y="1276" on="0"/>
        <pt x="412" y="1284" on="1"/>
        <pt x="412" y="1306" on="0"/>
        <pt x="390" y="1334" on="0"/>
        <pt x="351" y="1349" on="0"/>
        <pt x="296" y="1354" on="0"/>
        <pt x="264" y="1354" on="1"/>
        <pt x="238" y="1354" on="1"/>
        <pt x="260" y="1462" on="1"/>
        <pt x="967" y="1462" on="1"/>
        <pt x="944" y="1354" on="1"/>
        <pt x="918" y="1354" on="1"/>
        <pt x="884" y="1354" on="0"/>
        <pt x="821" y="1345" on="0"/>
        <pt x="769" y="1319" on="0"/>
        <pt x="731" y="1269" on="0"/>
        <pt x="723" y="1229" on="1"/>
        <pt x="631" y="793" on="1"/>
        <pt x="705" y="793" on="0"/>
        <pt x="804" y="826" on="0"/>
        <pt x="838" y="858" on="1"/>
        <pt x="870" y="889" on="0"/>
        <pt x="972" y="1027" on="0"/>
        <pt x="1044" y="1145" on="1"/>
        <pt x="1098" y="1232" on="0"/>
        <pt x="1199" y="1357" on="0"/>
        <pt x="1302" y="1437" on="0"/>
        <pt x="1413" y="1475" on="0"/>
        <pt x="1477" y="1475" on="1"/>
        <pt x="1560" y="1475" on="0"/>
        <pt x="1638" y="1409" on="0"/>
        <pt x="1638" y="1354" on="1"/>
        <pt x="1638" y="1319" on="0"/>
        <pt x="1615" y="1260" on="0"/>
        <pt x="1574" y="1218" on="0"/>
        <pt x="1518" y="1195" on="0"/>
        <pt x="1485" y="1194" on="1"/>
        <pt x="1485" y="1213" on="0"/>
        <pt x="1476" y="1251" on="0"/>
        <pt x="1456" y="1281" on="0"/>
        <pt x="1422" y="1300" on="0"/>
        <pt x="1397" y="1300" on="1"/>
        <pt x="1343" y="1300" on="0"/>
        <pt x="1219" y="1193" on="0"/>
        <pt x="1141" y="1073" on="1"/>
        <pt x="1062" y="953" on="0"/>
        <pt x="953" y="810" on="0"/>
        <pt x="905" y="782" on="1"/>
        <pt x="976" y="774" on="0"/>
        <pt x="1083" y="655" on="0"/>
        <pt x="1128" y="537" on="1"/>
        <pt x="1235" y="250" on="1"/>
        <pt x="1264" y="173" on="0"/>
        <pt x="1379" y="109" on="0"/>
        <pt x="1448" y="109" on="1"/>
        <pt x="1454" y="109" on="1"/>
        <pt x="1430" y="0" on="1"/>
        <pt x="1300" y="0" on="1"/>
        <pt x="1218" y="0" on="0"/>
        <pt x="1090" y="17" on="0"/>
        <pt x="994" y="63" on="0"/>
        <pt x="928" y="141" on="0"/>
        <pt x="907" y="203" on="1"/>
        <pt x="797" y="530" on="1"/>
        <pt x="782" y="574" on="0"/>
        <pt x="752" y="630" on="0"/>
        <pt x="710" y="663" on="0"/>
        <pt x="650" y="676" on="0"/>
        <pt x="606" y="676" on="1"/>
        <pt x="512" y="225" on="1"/>
        <pt x="510" y="214" on="0"/>
        <pt x="504" y="186" on="0"/>
        <pt x="504" y="178" on="1"/>
        <pt x="504" y="156" on="0"/>
        <pt x="526" y="129" on="0"/>
        <pt x="566" y="114" on="0"/>
        <pt x="621" y="109" on="0"/>
        <pt x="653" y="109" on="1"/>
        <pt x="680" y="109" on="1"/>
        <pt x="657" y="0" on="1"/>
      </contour>
    </TTGlyph>
    <TTGlyph name="afii10029" xMin="-96" yMin="-14" xMax="1622" yMax="1462">
      <contour>
        <pt x="817" y="1354" on="1"/>
        <pt x="784" y="1227" on="0"/>
        <pt x="698" y="945" on="0"/>
        <pt x="598" y="661" on="0"/>
        <pt x="483" y="389" on="0"/>
        <pt x="422" y="272" on="1"/>
        <pt x="383" y="197" on="0"/>
        <pt x="306" y="89" on="0"/>
        <pt x="221" y="19" on="0"/>
        <pt x="125" y="-14" on="0"/>
        <pt x="66" y="-14" on="1"/>
        <pt x="-15" y="-14" on="0"/>
        <pt x="-96" y="63" on="0"/>
        <pt x="-96" y="129" on="1"/>
        <pt x="-96" y="165" on="0"/>
        <pt x="-73" y="220" on="0"/>
        <pt x="-35" y="257" on="0"/>
        <pt x="15" y="276" on="0"/>
        <pt x="43" y="276" on="1"/>
        <pt x="43" y="257" on="0"/>
        <pt x="49" y="222" on="0"/>
        <pt x="66" y="196" on="0"/>
        <pt x="94" y="180" on="0"/>
        <pt x="117" y="180" on="1"/>
        <pt x="144" y="180" on="0"/>
        <pt x="196" y="199" on="0"/>
        <pt x="255" y="257" on="0"/>
        <pt x="325" y="364" on="0"/>
        <pt x="369" y="453" on="1"/>
        <pt x="399" y="514" on="0"/>
        <pt x="462" y="671" on="0"/>
        <pt x="524" y="838" on="0"/>
        <pt x="579" y="1004" on="0"/>
        <pt x="623" y="1145" on="0"/>
        <pt x="652" y="1248" on="0"/>
        <pt x="657" y="1270" on="1"/>
        <pt x="659" y="1276" on="0"/>
        <pt x="662" y="1295" on="0"/>
        <pt x="662" y="1300" on="1"/>
        <pt x="662" y="1319" on="0"/>
        <pt x="638" y="1340" on="0"/>
        <pt x="597" y="1351" on="0"/>
        <pt x="543" y="1354" on="0"/>
        <pt x="512" y="1354" on="1"/>
        <pt x="477" y="1354" on="1"/>
        <pt x="500" y="1462" on="1"/>
        <pt x="1622" y="1462" on="1"/>
        <pt x="1599" y="1354" on="1"/>
        <pt x="1573" y="1354" on="1"/>
        <pt x="1539" y="1354" on="0"/>
        <pt x="1476" y="1345" on="0"/>
        <pt x="1424" y="1319" on="0"/>
        <pt x="1387" y="1269" on="0"/>
        <pt x="1378" y="1229" on="1"/>
        <pt x="1167" y="225" on="1"/>
        <pt x="1165" y="214" on="0"/>
        <pt x="1159" y="186" on="0"/>
        <pt x="1159" y="178" on="1"/>
        <pt x="1159" y="156" on="0"/>
        <pt x="1182" y="129" on="0"/>
        <pt x="1222" y="114" on="0"/>
        <pt x="1277" y="109" on="0"/>
        <pt x="1309" y="109" on="1"/>
        <pt x="1335" y="109" on="1"/>
        <pt x="1313" y="0" on="1"/>
        <pt x="608" y="0" on="1"/>
        <pt x="631" y="109" on="1"/>
        <pt x="657" y="109" on="1"/>
        <pt x="689" y="109" on="0"/>
        <pt x="750" y="117" on="0"/>
        <pt x="800" y="143" on="0"/>
        <pt x="837" y="191" on="0"/>
        <pt x="846" y="231" on="1"/>
        <pt x="1085" y="1354" on="1"/>
      </contour>
    </TTGlyph>
    <TTGlyph name="afii10030" xMin="-47" yMin="0" xMax="2097" yMax="1462">
      <component glyphName="M" x="0" y="0" flags="0x204"/>
    </TTGlyph>
    <TTGlyph name="afii10031" xMin="-47" yMin="0" xMax="1823" yMax="1462">
      <component glyphName="H" x="0" y="0" flags="0x204"/>
    </TTGlyph>
    <TTGlyph name="afii10032" xMin="129" yMin="-23" xMax="1567" yMax="1485">
      <component glyphName="O" x="0" y="0" flags="0x204"/>
    </TTGlyph>
    <TTGlyph name="afii10033" xMin="-47" yMin="0" xMax="1802" yMax="1462">
      <component glyphName="Pi" x="0" y="0" flags="0x204"/>
    </TTGlyph>
    <TTGlyph name="afii10034" xMin="-47" yMin="0" xMax="1368" yMax="1462">
      <component glyphName="P" x="0" y="0" flags="0x204"/>
    </TTGlyph>
    <TTGlyph name="afii10035" xMin="129" yMin="-20" xMax="1440" yMax="1491">
      <component glyphName="C" x="0" y="0" flags="0x204"/>
    </TTGlyph>
    <TTGlyph name="afii10036" xMin="139" yMin="0" xMax="1507" yMax="1462">
      <component glyphName="T" x="0" y="0" flags="0x204"/>
    </TTGlyph>
</ttFont>
